<svg width="305" height="160" viewBox="0 0 305 160" fill="none" xmlns="http://www.w3.org/2000/svg">
<path d="M213.824 34.2722L213.032 32.9688C206.369 21.9875 194.322 15.3671 181.617 16.171C179.979 16.2742 178.35 16.4971 176.745 16.8379C165.197 19.3107 155.148 28.0446 150.982 39.2299C148.545 45.8077 147.848 53.3844 143.198 58.604C137.147 65.4011 126.875 65.6081 117.846 65.331C108.817 65.0539 98.5358 65.2914 92.5152 72.1129C88.7452 76.3763 87.5453 82.4668 87.8499 88.1828C88.663 103.339 99.2088 116.885 112.645 123.618C126.08 130.351 141.879 130.954 156.57 127.994C177.168 123.843 196.728 112.448 208.495 94.849C220.262 77.2503 223.237 53.2717 213.824 34.2722Z" fill="#F5F5F5"/>
<path d="M126.018 28.5695C128.235 26.3527 128.235 22.7586 126.018 20.5418C123.801 18.3251 120.207 18.3251 117.99 20.5418C115.774 22.7586 115.774 26.3527 117.99 28.5695C120.207 30.7863 123.801 30.7863 126.018 28.5695Z" fill="#F5F5F5"/>
<path d="M181.765 139.354C184.071 137.23 184.218 133.639 182.094 131.333C179.97 129.027 176.379 128.88 174.073 131.004C171.768 133.128 171.62 136.719 173.744 139.025C175.868 141.33 179.459 141.478 181.765 139.354Z" fill="#F5F5F5"/>
<path d="M219.74 146.616C219.74 146.616 219.883 146.616 220.175 146.616H221.5V146.643C214.648 146.677 186.744 146.704 153.383 146.704L103.964 146.68L88.9906 146.643H84.9191L88.9906 146.628L103.964 146.603L153.383 146.579C186.744 146.579 214.648 146.607 221.5 146.64V146.643H220.175C219.883 146.622 219.74 146.616 219.74 146.616Z" fill="#263238"/>
<path d="M208.35 28.2942H140.096V124.601H208.35V28.2942Z" fill="white"/>
<path d="M208.349 124.601C208.349 123.959 208.318 85.1861 208.276 28.2941L208.349 28.3642H140.101L140.18 28.285C140.18 64.3746 140.18 97.7479 140.165 124.592L140.101 124.528L208.355 124.592L140.101 124.656H140.016V124.592C140.016 97.7479 140.016 64.3746 140.016 28.285V28.2119H140.101H208.349H208.422V28.285C208.379 85.1861 208.349 123.959 208.349 124.601Z" fill="#263238"/>
<path d="M171.789 92.2361H146.727C145.602 92.2361 144.689 93.1482 144.689 94.2734V96.8801C144.689 98.0053 145.602 98.9174 146.727 98.9174H171.789C172.915 98.9174 173.827 98.0053 173.827 96.8801V94.2734C173.827 93.1482 172.915 92.2361 171.789 92.2361Z" fill="#F5F5F5"/>
<path d="M202.195 92.2361H177.778C176.652 92.2361 175.74 93.1482 175.74 94.2734V96.8801C175.74 98.0053 176.652 98.9174 177.778 98.9174H202.195C203.32 98.9174 204.232 98.0053 204.232 96.8801V94.2734C204.232 93.1482 203.32 92.2361 202.195 92.2361Z" fill="#F5F5F5"/>
<path d="M202.596 105.928H146.59C145.465 105.928 144.553 106.84 144.553 107.965V110.572C144.553 111.697 145.465 112.609 146.59 112.609H202.596C203.721 112.609 204.633 111.697 204.633 110.572V107.965C204.633 106.84 203.721 105.928 202.596 105.928Z" fill="#F5F5F5"/>
<path d="M158.069 89.547C158.069 89.5896 155.255 89.6261 151.781 89.6261C148.306 89.6261 145.492 89.5896 145.492 89.547C145.492 89.5043 148.306 89.4678 151.781 89.4678C155.255 89.4678 158.069 89.5043 158.069 89.547Z" fill="#263238"/>
<path d="M187.828 89.547C187.828 89.5896 185.611 89.6261 182.877 89.6261C180.142 89.6261 177.922 89.5896 177.922 89.547C177.922 89.5043 180.139 89.4678 182.877 89.4678C185.614 89.4678 187.828 89.5043 187.828 89.547Z" fill="#263238"/>
<path d="M166.054 103.172C166.054 103.214 161.486 103.251 155.852 103.251C150.218 103.251 145.65 103.214 145.65 103.172C145.65 103.129 150.218 103.092 155.852 103.092C161.486 103.092 166.054 103.129 166.054 103.172Z" fill="#263238"/>
<path d="M203.052 76.9935H155.228C154.313 76.9935 153.57 77.9005 153.57 79.0192V82.4296C153.57 83.5483 154.313 84.4552 155.228 84.4552H203.052C203.968 84.4552 204.71 83.5483 204.71 82.4296V79.0192C204.71 77.9005 203.968 76.9935 203.052 76.9935Z" fill="#FF6262"/>
<path d="M187.083 80.7188C187.083 80.7645 181.656 80.798 174.966 80.798C168.275 80.798 162.846 80.7645 162.846 80.7188C162.846 80.6731 168.272 80.6396 174.966 80.6396C181.659 80.6396 187.083 80.6762 187.083 80.7188Z" fill="#263238"/>
<path d="M202.65 32.667H145.463C144.368 32.667 143.48 33.5546 143.48 34.6495V37.9871C143.48 39.082 144.368 39.9696 145.463 39.9696H202.65C203.745 39.9696 204.633 39.082 204.633 37.9871V34.6495C204.633 33.5546 203.745 32.667 202.65 32.667Z" fill="#E0E0E0"/>
<path d="M187.083 36.3189C187.083 36.3616 181.656 36.3981 174.966 36.3981C168.275 36.3981 162.846 36.3616 162.846 36.3189C162.846 36.2763 168.272 36.2397 174.966 36.2397C181.659 36.2397 187.083 36.2732 187.083 36.3189Z" fill="#263238"/>
<path d="M208.349 41.7359C208.349 41.7816 193.056 41.8181 174.193 41.8181C155.331 41.8181 140.031 41.7816 140.031 41.7359C140.031 41.6902 155.325 41.6567 174.193 41.6567C193.062 41.6567 208.349 41.6933 208.349 41.7359Z" fill="#EBEBEB"/>
<path d="M208.349 74.0435C208.349 74.0892 193.056 74.1227 174.193 74.1227C155.331 74.1227 140.031 74.0892 140.031 74.0435C140.031 73.9979 155.325 73.9644 174.193 73.9644C193.062 73.9644 208.349 74.0009 208.349 74.0435Z" fill="#EBEBEB"/>
<path d="M171.789 49.0601H146.727C145.602 49.0601 144.689 49.9722 144.689 51.0974V53.7041C144.689 54.8293 145.602 55.7414 146.727 55.7414H171.789C172.915 55.7414 173.827 54.8293 173.827 53.7041V51.0974C173.827 49.9722 172.915 49.0601 171.789 49.0601Z" fill="#F5F5F5"/>
<path d="M202.195 49.0601H177.778C176.652 49.0601 175.74 49.9722 175.74 51.0974V53.7041C175.74 54.8293 176.652 55.7414 177.778 55.7414H202.195C203.32 55.7414 204.232 54.8293 204.232 53.7041V51.0974C204.232 49.9722 203.32 49.0601 202.195 49.0601Z" fill="#F5F5F5"/>
<path d="M202.596 62.7518H146.59C145.465 62.7518 144.553 63.664 144.553 64.7891V67.3959C144.553 68.5211 145.465 69.4332 146.59 69.4332H202.596C203.721 69.4332 204.633 68.5211 204.633 67.3959V64.7891C204.633 63.664 203.721 62.7518 202.596 62.7518Z" fill="#F5F5F5"/>
<path d="M158.069 46.3709C158.069 46.4136 155.255 46.4501 151.781 46.4501C148.306 46.4501 145.492 46.4136 145.492 46.3709C145.492 46.3283 148.306 46.2917 151.781 46.2917C155.255 46.2917 158.069 46.3283 158.069 46.3709Z" fill="#263238"/>
<path d="M187.828 46.3709C187.828 46.4136 185.611 46.4501 182.877 46.4501C180.142 46.4501 177.922 46.4136 177.922 46.3709C177.922 46.3283 180.139 46.2917 182.877 46.2917C185.614 46.2917 187.828 46.3283 187.828 46.3709Z" fill="#263238"/>
<path d="M166.054 59.9954C166.054 60.0381 161.486 60.0746 155.852 60.0746C150.218 60.0746 145.65 60.0381 145.65 59.9954C145.65 59.9528 150.218 59.9163 155.852 59.9163C161.486 59.9163 166.054 59.9528 166.054 59.9954Z" fill="#263238"/>
<path d="M202.526 116.668C202.526 116.714 198.071 116.747 192.574 116.747C187.077 116.747 182.625 116.714 182.625 116.668C182.625 116.623 187.077 116.589 192.574 116.589C198.071 116.589 202.526 116.626 202.526 116.668Z" fill="#263238"/>
<path d="M169.354 53.101C169.2 53.1518 169.042 53.1914 168.882 53.2198C167.686 53.4399 166.451 53.2635 165.365 52.7173C165.163 52.6125 164.98 52.4734 164.826 52.3062C164.656 52.1264 164.543 51.901 164.5 51.6576C164.472 51.5278 164.471 51.3936 164.498 51.2636C164.525 51.1336 164.578 51.0106 164.655 50.9024C164.745 50.7905 164.867 50.7077 165.004 50.6644C165.141 50.621 165.287 50.6191 165.426 50.6587C165.498 50.68 165.566 50.7161 165.624 50.7648C165.682 50.8136 165.73 50.8739 165.764 50.9419C165.831 51.0799 165.851 51.236 165.821 51.3866C165.758 51.6818 165.612 51.9531 165.401 52.1692C164.986 52.6355 164.463 52.9939 163.879 53.2137C163.249 53.4515 162.567 53.5126 161.905 53.3903C161.554 53.3304 161.222 53.1851 160.94 52.9671C160.788 52.8556 160.665 52.7085 160.583 52.5385C160.502 52.3685 160.463 52.181 160.471 51.9926C160.491 51.799 160.563 51.6146 160.681 51.4596C160.796 51.2942 160.967 51.1754 161.162 51.1247C161.265 51.1043 161.372 51.111 161.472 51.1441C161.572 51.1772 161.661 51.2355 161.732 51.3135C161.865 51.4705 161.938 51.6706 161.936 51.8768C161.939 52.0785 161.891 52.2777 161.796 52.4554C161.693 52.6306 161.551 52.7796 161.381 52.8909C161.043 53.0932 160.675 53.2402 160.291 53.3264C159.551 53.5365 158.744 53.7649 157.922 53.5792C157.51 53.4898 157.132 53.2849 156.832 52.9884C156.676 52.8373 156.554 52.6557 156.472 52.455C156.39 52.2542 156.351 52.0387 156.357 51.822C156.36 51.6828 156.391 51.5456 156.448 51.4185C156.505 51.2914 156.587 51.177 156.689 51.082C156.801 50.9934 156.936 50.9384 157.078 50.9233C157.221 50.9082 157.364 50.9337 157.493 50.9968C157.625 51.0562 157.732 51.161 157.794 51.2922C157.856 51.4234 157.869 51.5724 157.831 51.7124C157.749 51.9705 157.581 52.193 157.356 52.3428C156.538 52.9034 155.598 53.2605 154.615 53.3843C154.136 53.4668 153.644 53.4238 153.187 53.2594C152.961 53.1683 152.763 53.0216 152.609 52.8332C152.456 52.6447 152.353 52.4204 152.31 52.1814C152.273 51.9417 152.327 51.6972 152.461 51.4951C152.595 51.2931 152.799 51.1481 153.034 51.0881C153.154 51.0651 153.277 51.0744 153.392 51.1151C153.506 51.1558 153.608 51.2264 153.686 51.3196C153.829 51.5 153.91 51.7225 153.914 51.953C153.925 52.1757 153.876 52.3973 153.774 52.5955C153.666 52.7822 153.518 52.9432 153.342 53.0675C153.001 53.2905 152.622 53.4495 152.224 53.5365C151.478 53.7345 150.702 53.8745 149.995 53.6157C149.662 53.4953 149.369 53.2844 149.149 53.0066C148.935 52.7407 148.827 52.406 148.844 52.0656C148.876 51.7504 149.021 51.4573 149.252 51.2404C149.357 51.1354 149.486 51.0582 149.628 51.0157C149.77 50.9732 149.92 50.9666 150.065 50.9968H150.096V51.0272C150.105 51.6249 149.887 52.2039 149.487 52.6473C149.202 52.981 148.833 53.2323 148.418 53.3751C148.162 53.4636 147.89 53.4989 147.62 53.4787C147.437 53.4513 147.346 53.4269 147.346 53.4269C147.7 53.4848 148.064 53.4513 148.402 53.3294C148.804 53.1827 149.16 52.9327 149.435 52.6047C149.811 52.1692 150.011 51.6087 149.995 51.0333L150.029 51.0729C149.898 51.0488 149.763 51.057 149.636 51.0968C149.51 51.1366 149.394 51.2068 149.301 51.3013C149.09 51.5037 148.96 51.7749 148.932 52.0656C148.887 52.6747 149.377 53.2838 150.016 53.503C150.656 53.7223 151.432 53.6096 152.172 53.4086C152.554 53.3234 152.917 53.1697 153.244 52.9549C153.403 52.842 153.536 52.6967 153.634 52.5285C153.725 52.3519 153.767 52.1543 153.756 51.956C153.752 51.758 153.683 51.5667 153.561 51.4109C153.499 51.3363 153.419 51.2797 153.328 51.247C153.237 51.2143 153.138 51.2068 153.043 51.2252C152.845 51.2789 152.673 51.404 152.561 51.5764C152.448 51.7488 152.403 51.9566 152.434 52.1601C152.475 52.3728 152.569 52.5719 152.706 52.739C152.844 52.9061 153.022 53.0358 153.223 53.1163C153.656 53.2701 154.122 53.309 154.575 53.2289C155.532 53.1074 156.446 52.7587 157.24 52.2118C157.435 52.0832 157.581 51.8936 157.657 51.6728C157.686 51.5676 157.676 51.4556 157.629 51.3572C157.582 51.2587 157.501 51.1805 157.401 51.1368C157.3 51.0886 157.188 51.0691 157.077 51.0804C156.966 51.0917 156.86 51.1333 156.771 51.2008C156.685 51.2816 156.617 51.3787 156.569 51.4865C156.521 51.5942 156.496 51.7104 156.494 51.8281C156.489 52.0224 156.525 52.2155 156.599 52.3953C156.673 52.575 156.783 52.7375 156.923 52.8727C157.201 53.1474 157.552 53.3375 157.934 53.4208C158.702 53.5974 159.49 53.3843 160.227 53.1741C160.595 53.091 160.947 52.9513 161.272 52.76C161.422 52.6633 161.549 52.533 161.64 52.3793C161.723 52.2248 161.764 52.0519 161.762 51.8768C161.765 51.7068 161.707 51.5414 161.598 51.4109C161.545 51.3518 161.478 51.3075 161.404 51.2824C161.329 51.2573 161.249 51.2522 161.171 51.2678C161.014 51.3215 160.876 51.4198 160.774 51.5507C160.672 51.6816 160.61 51.8393 160.596 52.0047C160.593 52.17 160.631 52.3334 160.707 52.4805C160.782 52.6276 160.892 52.7539 161.028 52.8483C161.296 53.0534 161.609 53.1903 161.942 53.2472C162.579 53.3647 163.235 53.3068 163.842 53.0797C164.411 52.8727 164.921 52.5286 165.325 52.0778C165.521 51.8799 165.659 51.6309 165.721 51.3591C165.757 51.2379 165.745 51.1077 165.689 50.9947C165.632 50.8816 165.535 50.7942 165.416 50.7501C165.3 50.7151 165.175 50.7158 165.059 50.7522C164.943 50.7885 164.841 50.8589 164.765 50.9541C164.696 51.05 164.648 51.159 164.623 51.2742C164.599 51.3895 164.598 51.5086 164.622 51.6241C164.671 51.8415 164.77 52.0446 164.91 52.2178C165.051 52.391 165.229 52.5296 165.432 52.6229C166.08 52.9612 166.789 53.1682 167.518 53.232C167.979 53.2692 168.443 53.2529 168.9 53.1833L169.257 53.1163C169.289 53.1092 169.321 53.1041 169.354 53.101Z" fill="#FF6262"/>
<path d="M199.146 52.7388C199.025 52.815 198.896 52.8782 198.762 52.9276C198.381 53.0834 197.974 53.169 197.562 53.1803C196.907 53.2039 196.258 53.0525 195.68 52.7418C195.31 52.5583 194.995 52.2798 194.767 51.9348C194.641 51.7385 194.583 51.5063 194.602 51.274C194.616 51.1509 194.654 51.0319 194.715 50.9241C194.775 50.8162 194.857 50.7218 194.956 50.6467C195.062 50.5642 195.193 50.5211 195.327 50.5248C195.465 50.5295 195.596 50.5848 195.696 50.6802C195.79 50.779 195.862 50.8979 195.905 51.0281C195.947 51.1583 195.96 51.2965 195.942 51.4323C195.893 51.7072 195.759 51.9597 195.559 52.1541C195.361 52.3528 195.138 52.5239 194.895 52.6626C194.386 52.9622 193.817 53.1443 193.229 53.1956C192.6 53.2679 191.963 53.1502 191.402 52.8575C191.108 52.6996 190.863 52.4636 190.695 52.1754C190.611 52.0246 190.557 51.8593 190.534 51.6881C190.517 51.4222 190.586 51.1579 190.73 50.9338C190.874 50.7097 191.086 50.5376 191.335 50.4426C191.425 50.4144 191.52 50.4047 191.614 50.4141C191.709 50.4236 191.8 50.4519 191.883 50.4974C192.046 50.5894 192.175 50.7329 192.248 50.9055C192.32 51.0757 192.354 51.2597 192.347 51.4443C192.34 51.629 192.293 51.81 192.209 51.9744C192.036 52.2958 191.787 52.5698 191.484 52.7723C190.88 53.1904 190.172 53.4348 189.439 53.4788C188.705 53.5228 187.974 53.3648 187.324 53.022C187.004 52.8592 186.713 52.6429 186.465 52.3825C186.204 52.1226 186.052 51.7731 186.039 51.4049C186.043 51.2194 186.1 51.0388 186.204 50.8849C186.307 50.7309 186.453 50.6102 186.624 50.537C186.713 50.5017 186.81 50.4891 186.906 50.5003C187.001 50.5114 187.093 50.546 187.172 50.601C187.322 50.709 187.43 50.8663 187.476 51.0456C187.519 51.2148 187.523 51.3915 187.488 51.5624C187.452 51.7333 187.379 51.8939 187.272 52.0323C187.075 52.2936 186.838 52.5218 186.569 52.7083C186.082 53.0684 185.525 53.3214 184.933 53.4505C184.342 53.5796 183.729 53.582 183.137 53.4574C182.586 53.3579 182.09 53.0613 181.742 52.623C181.581 52.4094 181.49 52.1507 181.483 51.883C181.476 51.6273 181.539 51.3744 181.666 51.1522C181.725 51.0433 181.805 50.9475 181.902 50.8705C181.999 50.7936 182.11 50.7371 182.229 50.7045C182.344 50.6787 182.463 50.6787 182.578 50.7045C182.693 50.7303 182.801 50.7813 182.893 50.8537C183.059 50.9849 183.187 51.157 183.266 51.3529C183.345 51.5488 183.372 51.762 183.344 51.9713C183.281 52.3313 183.09 52.6561 182.805 52.8849C182.574 53.0774 182.302 53.2148 182.01 53.2869C181.611 53.3767 181.199 53.4024 180.792 53.363L180.487 53.3356C180.452 53.3401 180.416 53.3401 180.381 53.3356C180.416 53.3316 180.452 53.3316 180.487 53.3356H180.807C181.216 53.3619 181.627 53.327 182.025 53.2321C182.306 53.156 182.566 53.0187 182.787 52.8301C183.048 52.5997 183.216 52.281 183.259 51.9348C183.282 51.7426 183.255 51.5477 183.182 51.3686C183.108 51.1895 182.99 51.0322 182.838 50.9116C182.756 50.8497 182.662 50.8065 182.561 50.785C182.461 50.7634 182.357 50.764 182.257 50.7867C182.153 50.8181 182.056 50.8698 181.971 50.9388C181.887 51.0077 181.818 51.0927 181.766 51.1887C181.647 51.395 181.59 51.6319 181.603 51.8701C181.617 52.1083 181.7 52.3373 181.843 52.5286C182.176 52.939 182.647 53.2157 183.167 53.3082C183.741 53.4291 184.334 53.427 184.908 53.3021C185.481 53.1772 186.021 52.9322 186.493 52.5835C186.747 52.4034 186.971 52.1845 187.157 51.9348C187.25 51.8148 187.315 51.675 187.346 51.5262C187.377 51.3774 187.374 51.2234 187.336 51.076C187.301 50.9317 187.216 50.8045 187.096 50.7167C187.037 50.6754 186.969 50.6493 186.898 50.6408C186.827 50.6323 186.754 50.6416 186.688 50.668C186.546 50.7306 186.425 50.8323 186.339 50.9613C186.254 51.0902 186.206 51.241 186.203 51.3958C186.219 51.7234 186.357 52.0332 186.59 52.2637C186.827 52.511 187.104 52.7168 187.409 52.8728C188.035 53.1974 188.737 53.3478 189.441 53.3082C190.144 53.2674 190.823 53.0323 191.402 52.6291C191.687 52.4478 191.924 52.1989 192.09 51.9044C192.164 51.7606 192.205 51.6026 192.212 51.4412C192.219 51.2798 192.191 51.1189 192.13 50.9695C192.078 50.826 191.974 50.7072 191.838 50.6368C191.703 50.5663 191.546 50.5491 191.399 50.5888C191.184 50.6736 191.001 50.824 190.876 51.0186C190.752 51.2132 190.691 51.4422 190.704 51.6729C190.724 51.8239 190.773 51.9696 190.848 52.1023C191.001 52.3677 191.226 52.585 191.496 52.7296C192.028 53.0088 192.631 53.1233 193.229 53.0585C193.794 53.0075 194.341 52.8317 194.831 52.5439C195.065 52.4129 195.28 52.2511 195.47 52.0627C195.653 51.8875 195.776 51.6597 195.823 51.411C195.84 51.2938 195.83 51.1744 195.794 51.0617C195.758 50.9489 195.697 50.8456 195.616 50.7593C195.538 50.6835 195.434 50.6389 195.325 50.6338C195.215 50.6288 195.108 50.6637 195.023 50.7319C194.938 50.7988 194.868 50.8816 194.816 50.9757C194.764 51.0698 194.73 51.1732 194.718 51.2801C194.701 51.4935 194.752 51.7068 194.864 51.8891C195.083 52.2193 195.385 52.4869 195.738 52.6657C196.296 52.9762 196.927 53.1338 197.565 53.1225C197.971 53.1151 198.372 53.041 198.753 52.9032C199.015 52.8058 199.14 52.7296 199.146 52.7388Z" fill="#FF6262"/>
<path d="M170.833 66.1897C170.797 66.2131 170.758 66.2325 170.718 66.2476L170.367 66.406C170.063 66.543 169.603 66.744 169.003 66.9693C168.273 67.2511 167.516 67.4552 166.744 67.5784C166.26 67.6492 165.771 67.6787 165.282 67.6667C164.73 67.6773 164.18 67.5949 163.656 67.4231C163.361 67.3231 163.096 67.1539 162.88 66.9297C162.665 66.7055 162.507 66.433 162.419 66.1349C162.374 65.973 162.362 65.8038 162.383 65.637C162.404 65.4702 162.457 65.3093 162.541 65.1635C162.625 65.0084 162.746 64.8759 162.892 64.7773C163.038 64.6787 163.206 64.6169 163.382 64.5971C163.567 64.5939 163.749 64.6457 163.904 64.746C164.06 64.8463 164.182 64.9906 164.256 65.1604C164.422 65.4979 164.449 65.8871 164.332 66.2446C164.204 66.6001 163.985 66.9154 163.695 67.1581C163.406 67.4037 163.084 67.6086 162.739 67.7672C162.028 68.137 161.205 68.2335 160.428 68.0382C160.025 67.9141 159.664 67.6841 159.381 67.3723C159.098 67.0605 158.904 66.6783 158.82 66.2659C158.783 66.0532 158.783 65.8359 158.82 65.6233C158.849 65.4 158.94 65.1892 159.082 65.0143C159.149 64.9193 159.236 64.84 159.337 64.7817C159.438 64.7234 159.55 64.6874 159.666 64.6762C159.79 64.6739 159.911 64.7107 160.012 64.7812C160.113 64.8518 160.189 64.9525 160.23 65.0691C160.288 65.2883 160.298 65.5175 160.259 65.7409C160.22 65.9644 160.133 66.1767 160.004 66.3633C159.779 66.7462 159.491 67.088 159.152 67.3744C158.484 67.9458 157.631 68.2538 156.752 68.2403C155.873 68.2269 155.03 67.8929 154.38 67.3013C154.067 67.0108 153.854 66.6294 153.771 66.2111C153.729 66 153.743 65.7818 153.81 65.5776C153.884 65.3774 154.007 65.1985 154.167 65.0569C154.325 64.9121 154.523 64.8196 154.736 64.792C154.845 64.7763 154.956 64.7848 155.061 64.8169C155.167 64.849 155.263 64.9039 155.345 64.9777C155.488 65.1268 155.588 65.3112 155.636 65.5119C155.683 65.7126 155.677 65.9224 155.616 66.1197C155.497 66.49 155.279 66.8207 154.986 67.0759C154.715 67.3278 154.418 67.5494 154.1 67.7367C153.49 68.0968 152.813 68.327 152.111 68.4128C151.454 68.4994 150.787 68.4401 150.156 68.2392C149.856 68.1386 149.581 67.9733 149.352 67.755C149.13 67.5437 148.978 67.2695 148.916 66.9693C148.85 66.683 148.878 66.383 148.996 66.1136C149.052 65.9837 149.14 65.8701 149.252 65.7834C149.363 65.6966 149.495 65.6394 149.635 65.6172C149.766 65.5973 149.9 65.6051 150.028 65.6403C150.156 65.6754 150.276 65.7371 150.378 65.8213C150.475 65.9021 150.548 66.0077 150.589 66.1268C150.631 66.2459 150.639 66.374 150.613 66.4973C150.562 66.7222 150.439 66.9244 150.262 67.0729C150.107 67.209 149.934 67.3237 149.748 67.4139C149.427 67.573 149.091 67.7015 148.746 67.7977C148.27 67.9339 147.779 68.0066 147.284 68.0139C147.112 68.02 146.94 68.0129 146.77 67.9925H146.9C146.989 67.9925 147.117 67.9925 147.284 67.9925C147.773 67.9705 148.258 67.8887 148.728 67.7489C149.067 67.647 149.397 67.5155 149.714 67.3561C149.893 67.2673 150.059 67.1546 150.208 67.0211C150.363 66.8813 150.47 66.6957 150.512 66.4912C150.534 66.383 150.526 66.2708 150.489 66.1667C150.452 66.0626 150.387 65.9706 150.302 65.9004C150.209 65.8271 150.102 65.7736 149.987 65.7433C149.872 65.7129 149.752 65.7063 149.635 65.7238C149.512 65.7447 149.397 65.7965 149.299 65.8742C149.202 65.952 149.126 66.0532 149.078 66.1684C148.972 66.4163 148.948 66.6918 149.011 66.9541C149.085 67.2359 149.232 67.4932 149.438 67.7001C149.643 67.907 149.899 68.0562 150.18 68.1326C150.793 68.3256 151.441 68.3797 152.077 68.291C153.123 68.1601 154.101 67.7017 154.87 66.9815C155.145 66.7441 155.35 66.4353 155.461 66.0892C155.513 65.9181 155.52 65.736 155.479 65.5617C155.438 65.3873 155.352 65.2268 155.229 65.0965C155.086 64.9875 154.908 64.9358 154.729 64.9516C154.55 64.9674 154.383 65.0495 154.261 65.1818C154.124 65.3063 154.02 65.4619 153.956 65.6355C153.898 65.8154 153.886 66.0072 153.923 66.1928C154.005 66.5796 154.206 66.9311 154.498 67.1977C155.121 67.7629 155.929 68.0812 156.77 68.093C157.611 68.1047 158.428 67.8092 159.066 67.2617C159.394 66.9879 159.671 66.6592 159.886 66.2902C159.997 66.1158 160.076 65.923 160.12 65.7208C160.169 65.527 160.163 65.3234 160.102 65.133C160.074 65.0456 160.019 64.9692 159.945 64.9146C159.871 64.86 159.782 64.8299 159.691 64.8285C159.597 64.8398 159.507 64.8706 159.426 64.9189C159.346 64.9671 159.276 65.0318 159.222 65.1087C159.107 65.2691 159.028 65.4518 158.989 65.6448C158.949 65.8378 158.951 66.0369 158.993 66.2293C159.073 66.6136 159.254 66.9695 159.517 67.2603C159.781 67.5511 160.117 67.7661 160.492 67.8829C161.233 68.0692 162.017 67.9783 162.696 67.6271C163.36 67.3074 163.997 66.8445 164.219 66.1837C164.326 65.8606 164.302 65.5086 164.152 65.2031C164.091 65.0562 163.988 64.9308 163.856 64.8429C163.723 64.755 163.568 64.7086 163.409 64.7097C163.255 64.7278 163.107 64.7825 162.978 64.8694C162.849 64.9563 162.743 65.0728 162.669 65.2092C162.592 65.3404 162.543 65.4856 162.524 65.6363C162.504 65.7869 162.515 65.9399 162.556 66.0862C162.638 66.367 162.785 66.6242 162.987 66.8362C163.188 67.0481 163.437 67.2087 163.713 67.3043C164.226 67.4765 164.763 67.5609 165.303 67.554C165.787 67.5698 166.271 67.5443 166.75 67.4779C167.517 67.3658 168.271 67.1749 169 66.9084C169.609 66.6922 170.06 66.5004 170.374 66.3755L170.73 66.2293L170.833 66.1897Z" fill="#FF6262"/>
<path d="M199.702 133.192C199.702 133.192 192.698 125.128 190.048 117.052C187.399 108.976 188.663 109.914 188.663 109.914C188.663 109.914 192.232 117.746 194.942 121.531C197.652 125.317 202.479 130.868 202.479 130.868L199.702 133.192Z" fill="#455A64"/>
<path d="M201.11 111.178C201.063 111.095 200.988 111.032 200.9 110.999C200.811 110.965 200.714 110.964 200.624 110.994C200.534 111.025 200.458 111.086 200.408 111.166C200.359 111.247 200.339 111.343 200.352 111.436C200.778 114.272 201.701 120.919 201.667 125.232C201.618 130.832 201.667 132.997 201.667 132.997H204.575C204.575 132.997 204.058 121.425 203.397 117.886C202.946 115.414 201.966 112.664 201.11 111.178Z" fill="#455A64"/>
<path d="M202.701 132.056C203.923 129.287 204.731 126.354 205.101 123.35C205.341 121.285 204.912 118.499 204.276 114.78C204.027 113.421 203.904 112.042 203.907 110.66C203.908 110.505 203.96 110.355 204.055 110.234C204.15 110.112 204.283 110.026 204.433 109.988C204.583 109.951 204.742 109.964 204.883 110.027C205.024 110.09 205.141 110.198 205.214 110.334C205.564 110.961 206.584 113.105 206.843 114.451C207.549 118.124 208.347 119.96 207.738 123.441C207.129 126.922 204.879 132.291 204.879 132.291L202.701 132.056Z" fill="#455A64"/>
<path d="M205.326 132.291C205.326 132.291 213.021 115.758 213.548 113.303C214.075 110.849 215.893 105.2 216.106 105.52C216.319 105.839 216.642 108.824 215.253 112.238C213.865 115.651 207.944 132.796 207.944 132.796H205.316" fill="#455A64"/>
<path d="M201.858 131.551C201.782 131.508 201.71 131.46 201.642 131.405C201.505 131.301 201.298 131.155 201.033 130.948C200.314 130.374 199.623 129.764 198.965 129.121C196.8 126.986 194.923 124.577 193.383 121.955C191.85 119.333 190.574 116.57 189.574 113.702C189.187 112.603 188.907 111.705 188.721 111.08C188.63 110.776 188.563 110.526 188.517 110.359C188.491 110.276 188.471 110.192 188.459 110.106C188.497 110.184 188.527 110.266 188.55 110.349L188.782 111.062C188.986 111.671 189.284 112.585 189.695 113.663C190.724 116.514 192.011 119.266 193.539 121.885C195.073 124.495 196.927 126.902 199.06 129.051C199.885 129.87 200.582 130.491 201.088 130.908C201.331 131.121 201.532 131.274 201.663 131.386C201.732 131.436 201.797 131.491 201.858 131.551Z" fill="#263238"/>
<path d="M202.699 123.621C202.665 123.46 202.642 123.297 202.632 123.134L202.489 121.809C202.367 120.691 202.184 119.147 201.904 117.454C201.624 115.761 201.328 114.232 201.094 113.133L200.814 111.83C200.77 111.672 200.741 111.511 200.729 111.348C200.789 111.5 200.838 111.656 200.875 111.814C200.963 112.119 201.076 112.56 201.207 113.109C201.472 114.205 201.794 115.728 202.068 117.427C202.343 119.126 202.513 120.676 202.604 121.797C202.65 122.36 202.681 122.814 202.696 123.131C202.711 123.294 202.712 123.458 202.699 123.621Z" fill="#263238"/>
<path d="M204.501 110.203C204.539 110.27 204.569 110.34 204.592 110.413C204.65 110.569 204.726 110.773 204.824 111.023C204.921 111.272 205.043 111.616 205.153 112.006C205.262 112.396 205.415 112.831 205.527 113.331L205.719 114.107C205.783 114.378 205.829 114.665 205.887 114.957C206.011 115.545 206.091 116.175 206.191 116.851C206.543 119.763 206.44 122.711 205.887 125.591C205.743 126.249 205.622 126.879 205.454 127.455C205.375 127.744 205.308 128.027 205.226 128.292C205.143 128.557 205.058 128.813 204.979 129.054C204.833 129.544 204.653 129.967 204.51 130.348C204.367 130.729 204.233 131.048 204.111 131.307L203.837 131.916C203.809 131.987 203.773 132.054 203.73 132.117C203.751 132.043 203.776 131.971 203.807 131.901C203.871 131.749 203.95 131.545 204.053 131.292C204.157 131.039 204.294 130.707 204.425 130.327C204.556 129.946 204.729 129.517 204.869 129.029C204.942 128.786 205.022 128.53 205.104 128.268C205.186 128.006 205.247 127.72 205.323 127.431C205.485 126.855 205.6 126.228 205.737 125.573C206.273 122.705 206.375 119.774 206.042 116.876C205.954 116.212 205.88 115.578 205.762 114.994C205.707 114.689 205.664 114.415 205.603 114.144C205.542 113.873 205.482 113.614 205.424 113.367C205.32 112.868 205.18 112.429 205.073 112.043C204.967 111.656 204.863 111.321 204.769 111.05L204.568 110.441C204.536 110.365 204.514 110.285 204.501 110.203Z" fill="#263238"/>
<path d="M216.027 105.852C216.028 105.876 216.028 105.9 216.027 105.925C216.027 105.983 216.006 106.053 215.99 106.141C215.957 106.327 215.914 106.607 215.838 106.963C215.692 107.676 215.442 108.699 215.059 109.938C214.675 111.178 214.145 112.64 213.536 114.238C212.927 115.837 212.193 117.588 211.511 119.44C210.829 121.291 210.293 123.094 209.781 124.745C209.269 126.395 208.81 127.86 208.356 129.078C208.002 130.042 207.595 130.987 207.138 131.907C206.979 132.233 206.833 132.476 206.745 132.647L206.638 132.836C206.627 132.858 206.613 132.878 206.596 132.897L206.623 132.827C206.651 132.775 206.681 132.708 206.718 132.629C206.8 132.458 206.931 132.208 207.08 131.877C207.384 131.222 207.805 130.26 208.243 129.038C208.682 127.817 209.157 126.343 209.632 124.699C210.107 123.054 210.658 121.242 211.352 119.382C212.047 117.521 212.762 115.779 213.393 114.183C214.023 112.588 214.559 111.138 214.955 109.905C215.351 108.671 215.616 107.654 215.783 106.948C215.869 106.598 215.92 106.321 215.966 106.135C215.984 106.05 216.003 105.979 216.015 105.922C216.015 105.898 216.019 105.874 216.027 105.852Z" fill="#263238"/>
<path d="M192.302 102.197C192.196 102.097 192.059 102.035 191.914 102.02C191.768 102.006 191.622 102.039 191.498 102.117C191.373 102.194 191.278 102.31 191.226 102.446C191.175 102.583 191.17 102.733 191.212 102.873C191.474 103.724 191.797 104.556 192.177 105.361C193.234 107.609 196.343 115.673 197.796 120.103C199.249 124.534 201.301 132.796 201.301 132.796L204.407 132.291C204.407 132.291 201.566 118.715 198.789 113.821C196.557 109.893 194.327 104.21 192.302 102.197Z" fill="#455A64"/>
<path d="M198.646 122.872C198.715 122.99 198.769 123.116 198.808 123.246C198.899 123.49 199.024 123.855 199.167 124.288C199.453 125.174 199.801 126.419 200.154 127.787C200.507 129.154 200.799 130.412 201.004 131.319C201.098 131.749 201.174 132.108 201.238 132.394C201.274 132.525 201.296 132.66 201.302 132.796C201.246 132.672 201.203 132.543 201.174 132.41C201.101 132.126 201.004 131.77 200.891 131.347C200.653 130.412 200.34 129.185 199.996 127.826C199.651 126.468 199.31 125.214 199.055 124.321L198.75 123.265C198.703 123.137 198.668 123.006 198.646 122.872Z" fill="#263238"/>
<path d="M202.859 132.544C202.85 132.517 202.843 132.49 202.841 132.462C202.841 132.398 202.823 132.315 202.808 132.215C202.774 132.002 202.747 131.682 202.68 131.277C202.567 130.461 202.375 129.285 202.028 127.851C201.632 126.172 201.147 124.515 200.576 122.887C199.939 121.06 199.138 119.059 198.234 117.004C196.407 112.893 194.579 109.247 193.383 106.549C192.773 105.206 192.308 104.113 191.997 103.343C191.839 102.962 191.726 102.663 191.647 102.459C191.613 102.365 191.586 102.289 191.561 102.228C191.55 102.202 191.541 102.174 191.537 102.146C191.553 102.17 191.566 102.195 191.577 102.222L191.677 102.447C191.769 102.657 191.896 102.95 192.055 103.318C192.384 104.076 192.868 105.164 193.486 106.504C194.704 109.183 196.553 112.819 198.383 116.937C199.296 118.998 200.088 120.99 200.719 122.838C201.283 124.473 201.757 126.137 202.138 127.824C202.398 128.961 202.602 130.11 202.747 131.268C202.802 131.676 202.823 131.996 202.844 132.212C202.844 132.313 202.85 132.396 202.863 132.459C202.866 132.487 202.864 132.516 202.859 132.544Z" fill="#263238"/>
<path d="M204.407 132.291C204.357 132.121 204.321 131.946 204.301 131.77C204.24 131.405 204.158 130.923 204.06 130.342C203.847 129.124 203.518 127.482 203.049 125.676C202.58 123.871 202.06 122.266 201.658 121.108L201.17 119.744C201.103 119.58 201.048 119.411 201.006 119.239C201.095 119.393 201.171 119.555 201.231 119.723C201.365 120.027 201.551 120.496 201.767 121.069C202.328 122.565 202.809 124.09 203.208 125.637C203.609 127.182 203.932 128.746 204.176 130.323C204.264 130.933 204.331 131.42 204.365 131.761C204.391 131.936 204.405 132.113 204.407 132.291Z" fill="#263238"/>
<path d="M210.78 131.846H198.656V146.616H210.78V131.846Z" fill="#00AC68"/>
<g opacity="0.3">
<path d="M210.78 131.846H198.656V146.616H210.78V131.846Z" fill="black"/>
</g>
<path d="M206.912 131.846H196.156V146.616H206.912V131.846Z" fill="#00AC68"/>
<path d="M108.397 53.5359L108.053 81.2845C107.995 86.0017 108.872 92.9449 116.336 92.6982C122.799 91.9948 124.513 85.8799 124.559 81.4764C124.583 79.3873 124.607 77.6454 124.623 77.4322C124.623 77.4322 131.694 76.8536 132.291 69.8678C132.58 66.4936 132.595 59.4925 132.562 53.1583C132.535 49.8776 131.274 46.7272 129.03 44.334C126.786 41.9409 123.723 40.4804 120.451 40.2432L119.775 40.1915C112.472 40.0879 108.303 46.2303 108.397 53.5359Z" fill="#FFBE9D"/>
<path d="M124.627 77.4328C124.627 77.4328 120.202 77.3689 115.723 74.083C115.723 74.083 117.568 79.3514 124.591 79.2295L124.627 77.4328Z" fill="#EB996E"/>
<path d="M120.623 56.0211C120.486 56.1642 119.679 55.5125 118.507 55.4821C117.334 55.4516 116.463 56.0241 116.342 55.8749C116.281 55.8079 116.424 55.5491 116.808 55.2811C117.321 54.9371 117.929 54.7644 118.546 54.7877C119.157 54.8033 119.746 55.017 120.224 55.3968C120.578 55.6922 120.693 55.9602 120.623 56.0211Z" fill="#263238"/>
<path d="M120.589 58.4423C120.573 58.6884 120.462 58.9185 120.279 59.0839C120.096 59.2492 119.855 59.337 119.609 59.3285C119.367 59.3285 119.134 59.2323 118.963 59.0609C118.792 58.8896 118.695 58.6572 118.695 58.4149C118.711 58.1691 118.822 57.9391 119.004 57.7736C119.187 57.6082 119.427 57.5203 119.673 57.5288C119.793 57.5284 119.912 57.5517 120.023 57.5974C120.135 57.6432 120.236 57.7104 120.321 57.7953C120.406 57.8801 120.474 57.981 120.52 58.092C120.566 58.2031 120.589 58.3221 120.589 58.4423Z" fill="#263238"/>
<path d="M123.57 64.1613C123.57 64.1004 124.246 64.0334 125.337 63.9756C125.614 63.9756 125.879 63.9299 125.946 63.7472C125.99 63.4661 125.948 63.1781 125.824 62.9219L125.139 60.7658C124.225 57.7206 123.595 55.2052 123.716 55.1686C123.838 55.1321 124.679 57.5835 125.586 60.6501C125.806 61.4054 126.013 62.121 126.195 62.8092C126.278 63.129 126.43 63.4944 126.259 63.8964C126.213 63.9906 126.145 64.0728 126.062 64.1367C125.978 64.2006 125.881 64.2445 125.778 64.2649C125.624 64.2948 125.466 64.3051 125.309 64.2953C124.231 64.2679 123.57 64.2253 123.57 64.1613Z" fill="#263238"/>
<path d="M120.126 51.6303C120.013 51.8922 119.075 51.6942 117.955 51.7521C116.834 51.81 115.908 52.0566 115.78 51.81C115.723 51.6881 115.896 51.4506 116.277 51.2192C116.779 50.9328 117.344 50.7738 117.921 50.7563C118.495 50.726 119.068 50.839 119.587 51.0852C119.983 51.274 120.175 51.4993 120.126 51.6303Z" fill="#263238"/>
<path d="M131.238 53.7892C131.116 54.0024 130.203 53.7679 129.106 53.7344C128.01 53.7009 127.081 53.841 126.975 53.6187C126.926 53.5152 127.109 53.3142 127.492 53.1558C128.013 52.9492 128.571 52.8568 129.131 52.8848C129.695 52.9023 130.249 53.0393 130.757 53.2868C131.116 53.4847 131.293 53.6887 131.238 53.7892Z" fill="#263238"/>
<path d="M108.594 58.7562C108.478 58.6953 103.892 56.9838 103.697 61.7741C103.502 66.5643 108.344 65.7756 108.366 65.6385C108.387 65.5015 108.594 58.7562 108.594 58.7562Z" fill="#FFBE9D"/>
<path d="M106.977 63.7624C106.955 63.7472 106.888 63.8172 106.745 63.8751C106.55 63.9521 106.332 63.9521 106.136 63.8751C105.637 63.668 105.244 62.8488 105.256 61.9839C105.261 61.5729 105.358 61.1682 105.539 60.7993C105.591 60.6521 105.677 60.5197 105.791 60.4135C105.905 60.3074 106.044 60.2307 106.194 60.1903C106.291 60.1682 106.392 60.1808 106.48 60.2259C106.568 60.2711 106.637 60.3458 106.675 60.4369C106.736 60.574 106.7 60.6684 106.727 60.6775C106.755 60.6867 106.834 60.6014 106.8 60.4034C106.779 60.285 106.718 60.1775 106.627 60.0989C106.499 59.9939 106.335 59.9426 106.17 59.9558C105.969 59.9858 105.78 60.0669 105.62 60.1911C105.46 60.3154 105.335 60.4787 105.256 60.6653C105.037 61.0719 104.919 61.5252 104.912 61.987C104.912 62.9554 105.363 63.8781 106.045 64.1187C106.172 64.1605 106.308 64.1737 106.441 64.1574C106.574 64.1411 106.702 64.0956 106.815 64.0243C106.962 63.8781 106.992 63.7715 106.977 63.7624Z" fill="#EB996E"/>
<path d="M131.292 56.4628C131.152 56.6029 130.345 55.9543 129.16 55.9238C127.975 55.8934 127.117 56.4659 126.992 56.3167C126.931 56.2497 127.077 55.9908 127.458 55.7228C127.971 55.3788 128.579 55.2061 129.197 55.2295C129.808 55.245 130.398 55.4588 130.878 55.8386C131.243 56.134 131.359 56.3989 131.292 56.4628Z" fill="#263238"/>
<path d="M131.101 58.7834C131.085 59.0295 130.973 59.2596 130.79 59.4249C130.607 59.5903 130.367 59.678 130.121 59.6696C129.878 59.6696 129.646 59.5733 129.475 59.402C129.303 59.2307 129.207 58.9983 129.207 58.756C129.223 58.5099 129.335 58.2798 129.518 58.1145C129.701 57.9491 129.941 57.8614 130.188 57.8698C130.43 57.8698 130.662 57.9661 130.834 58.1374C131.005 58.3087 131.101 58.5411 131.101 58.7834Z" fill="#263238"/>
<path d="M137.438 43.8825C136.962 43.1094 136.224 42.5333 135.359 42.2594C134.493 41.9854 133.558 42.0319 132.724 42.3903C132.938 41.2816 132.784 40.1332 132.285 39.1202C131.786 38.1073 130.969 37.2853 129.959 36.7796C128.95 36.2739 127.802 36.1122 126.692 36.3192C125.582 36.5261 124.57 37.0904 123.81 37.9259C123.75 37.6296 123.627 37.3498 123.448 37.1055C123.27 36.8612 123.042 36.658 122.778 36.5099C122.25 36.2154 121.664 36.0398 121.061 35.9952C119.631 35.8366 118.185 36.0558 116.867 36.6307C115.549 37.2057 114.404 38.1164 113.548 39.2719C112.155 39.1066 110.743 39.271 109.425 39.7519C108.107 40.2327 106.921 41.0165 105.962 42.0401C103.712 44.5342 103.285 50.3111 105.752 55.3023L106.331 58.4298C107.104 58.4298 107.811 58.4846 108.289 58.911C108.937 59.4926 109.227 60.5889 110.302 60.1747C110.85 59.9616 111.349 58.8135 111.52 58.2562C112.736 54.5381 113.139 50.602 112.701 46.7146C113.469 45.8965 114.387 45.2338 115.406 44.7626L115.323 44.8387C117.275 44.1596 119.483 43.4927 121.335 44.4093C122.772 45.1189 123.619 46.6111 124.684 47.7987C125.676 48.8972 126.88 49.7835 128.224 50.4042C129.567 51.025 131.022 51.3672 132.502 51.4104C132.605 53.3777 132.441 56.158 132.544 58.11L134.228 54.9795C134.359 54.7544 134.478 54.5226 134.585 54.2852L134.621 54.2121C134.926 53.9654 135.151 53.5147 135.663 52.93C136.151 52.3554 136.473 51.6578 136.593 50.9131C136.713 50.1683 136.626 49.405 136.342 48.7062C137.074 48.1682 137.588 47.3845 137.789 46.4986C137.99 45.6128 137.866 44.684 137.438 43.8825Z" fill="#263238"/>
<path d="M134.572 43.9561C134.572 43.9561 134.59 43.9896 134.609 44.0596C134.633 44.1594 134.648 44.2614 134.651 44.3641C134.667 44.7564 134.571 45.145 134.374 45.4848C134.235 45.7193 134.053 45.9259 133.838 46.0938C133.583 46.2893 133.282 46.4171 132.964 46.4654C132.594 46.5236 132.216 46.4848 131.866 46.353C131.516 46.2211 131.206 46.0007 130.966 45.7132L131.085 45.6127C131.201 45.739 131.29 45.8869 131.348 46.0479C131.406 46.2089 131.431 46.3797 131.423 46.5506C131.42 46.7792 131.37 47.0046 131.278 47.2138C131.186 47.423 131.053 47.6117 130.887 47.7688C130.572 48.0488 130.174 48.2187 129.754 48.2529C129.056 48.3039 128.361 48.1124 127.787 47.7109C127.405 47.4513 127.051 47.1511 126.733 46.8156C126.612 46.6992 126.499 46.5729 126.398 46.438C126.532 46.5401 126.659 46.6521 126.776 46.7729C127.107 47.0859 127.466 47.3682 127.848 47.6165C128.405 47.9888 129.071 48.1616 129.739 48.1068C130.126 48.0715 130.492 47.9136 130.784 47.6561C131.082 47.3679 131.254 46.9742 131.265 46.5598C131.276 46.2544 131.167 45.9568 130.96 45.7315L131.079 45.6279C131.301 45.8951 131.588 46.1009 131.912 46.2256C132.236 46.3504 132.587 46.3899 132.931 46.3405C133.208 46.2986 133.473 46.1947 133.705 46.0365C133.937 45.8784 134.13 45.67 134.27 45.4269C134.465 45.1038 134.57 44.735 134.575 44.358C134.599 44.1022 134.56 43.9591 134.572 43.9561Z" fill="#455A64"/>
<path d="M128.581 38.7056C128.581 38.7056 128.617 38.7056 128.684 38.7512C128.776 38.8048 128.865 38.8649 128.949 38.9309C129.267 39.1762 129.517 39.4992 129.674 39.8689C129.79 40.1481 129.836 40.4516 129.807 40.7527C129.778 41.0538 129.676 41.3432 129.509 41.5955C129.308 41.9039 128.994 42.1222 128.635 42.2046C128.444 42.246 128.246 42.2482 128.054 42.2111C127.862 42.1739 127.68 42.0981 127.518 41.9884C127.418 41.9127 127.328 41.8235 127.253 41.7234L127.39 41.6443C127.459 41.8166 127.491 42.0015 127.485 42.1871C127.479 42.3727 127.434 42.555 127.353 42.7223C127.213 43.0342 126.967 43.2865 126.659 43.4349C126.403 43.5537 126.125 43.6152 125.843 43.6152C125.561 43.6152 125.282 43.5537 125.027 43.4349C124.69 43.2794 124.39 43.0541 124.147 42.7741C124.052 42.6773 123.973 42.5663 123.912 42.4452C123.912 42.4452 124.01 42.5518 124.189 42.7314C124.441 42.9892 124.74 43.196 125.069 43.3405C125.311 43.4439 125.571 43.495 125.834 43.4903C126.096 43.4856 126.355 43.4252 126.592 43.3131C126.863 43.1724 127.078 42.9436 127.201 42.6644C127.271 42.5165 127.309 42.3559 127.315 42.1925C127.32 42.0291 127.292 41.8664 127.231 41.7143L126.976 41.1266L127.369 41.6382C127.433 41.7244 127.51 41.8003 127.597 41.8635C127.741 41.9615 127.903 42.0293 128.073 42.0628C128.244 42.0963 128.42 42.0948 128.59 42.0584C128.909 41.9891 129.189 41.7993 129.372 41.5285C129.53 41.296 129.628 41.0287 129.659 40.7498C129.691 40.4708 129.654 40.1883 129.552 39.9267C129.41 39.5681 129.185 39.2486 128.894 38.9949C128.705 38.7939 128.571 38.7177 128.581 38.7056Z" fill="#455A64"/>
<path d="M169.249 73.6353L158.18 82.0829C158.025 82.202 157.896 82.3515 157.8 82.5223C157.705 82.6931 157.646 82.8815 157.626 83.076C157.607 83.2705 157.627 83.467 157.686 83.6533C157.745 83.8397 157.842 84.012 157.97 84.1598C158.209 84.4366 158.546 84.6109 158.91 84.6466C159.275 84.6823 159.639 84.5767 159.928 84.3516L170.891 75.8248L172.374 72.8983L169.249 73.6353Z" fill="#00AC68"/>
<path opacity="0.5" d="M170.955 73.2302L171.738 74.1438L170.891 75.8248C170.789 75.8356 170.687 75.8229 170.59 75.7879C170.494 75.7529 170.407 75.6964 170.336 75.6226C170.265 75.5489 170.212 75.46 170.18 75.3626C170.149 75.2651 170.14 75.1618 170.154 75.0604C170.054 75.0743 169.952 75.063 169.858 75.0276C169.763 74.9922 169.679 74.9338 169.612 74.8577C169.546 74.7815 169.499 74.6901 169.477 74.5915C169.455 74.4929 169.457 74.3904 169.484 74.293C169.484 74.293 168.909 74.2413 169.235 73.6352L170.955 73.2302Z" fill="white"/>
<path d="M158.18 82.0736L159.995 84.2906L160.604 83.8186L158.865 81.5529L158.18 82.0736Z" fill="#263238"/>
<path d="M157.374 103.236L156.975 103.162L165.118 88.9288L163.826 84.8238C163.826 84.8238 162.334 78.9799 163.577 77.4877C163.577 77.4877 166.296 74.284 167.179 74.3297C168.062 74.3754 168.766 74.549 168.943 75.2128C168.943 75.2128 170.444 75.0362 170.84 75.5174C171.105 75.8502 171.341 76.2047 171.546 76.5771C171.546 76.5771 173.179 76.4431 173.62 77.8561C173.62 77.8561 175.164 78.651 175.298 79.796C175.432 80.941 174.994 86.2824 174.503 87.6498C174.013 89.0171 172.207 91.8858 171.68 96.1218C171.153 100.358 169.284 103.108 167.624 109.296L163.12 111.077L157.374 103.236Z" fill="#FFBE9D"/>
<path d="M168.866 75.1211C168.899 75.1668 168.339 75.5383 167.916 76.2235C167.492 76.9087 167.392 77.5665 167.334 77.5573C167.34 77.0506 167.485 76.5551 167.753 76.1254C168.022 75.6956 168.404 75.3482 168.857 75.1211H168.866Z" fill="#EB996E"/>
<path d="M171.456 76.5771C171.487 76.6259 170.951 76.9487 170.528 77.5638C170.104 78.179 169.97 78.7819 169.919 78.7819C169.867 78.7819 169.919 78.115 170.378 77.4664C170.628 77.0573 171.007 76.744 171.456 76.5771Z" fill="#EB996E"/>
<path d="M173.535 77.8192C173.569 77.8618 173.164 78.2181 172.792 78.7541C172.421 79.2901 172.22 79.7926 172.168 79.7743C172.214 79.3622 172.378 78.9721 172.64 78.6506C172.851 78.292 173.162 78.003 173.535 77.8192Z" fill="#EB996E"/>
<path d="M165.9 78.2824C165.605 78.1862 165.297 78.1338 164.987 78.1271C164.682 78.1745 164.386 78.2679 164.11 78.4042C164.095 78.4042 164.152 78.2885 164.302 78.1788C164.5 78.0413 164.732 77.9602 164.973 77.9441C165.213 77.928 165.454 77.9776 165.669 78.0875C165.827 78.1758 165.9 78.2641 165.9 78.2824Z" fill="#EB996E"/>
<path d="M169.134 80.3133C168.95 80.0144 168.723 79.7436 168.461 79.5094C168.001 79.15 167.502 79.1287 167.508 79.0739C167.514 79.0191 167.633 79.0221 167.837 79.0465C168.105 79.0877 168.358 79.1954 168.573 79.3598C168.789 79.5242 168.96 79.74 169.07 79.9875C169.149 80.1793 169.155 80.3072 169.134 80.3133Z" fill="#EB996E"/>
<path d="M172.359 81.0016C172.32 81.0412 171.963 80.6392 171.357 80.4808C170.986 80.4094 170.607 80.391 170.23 80.426C170.23 80.4047 170.337 80.3316 170.553 80.2798C170.835 80.2204 171.128 80.2286 171.406 80.3038C171.684 80.3789 171.941 80.5189 172.155 80.7123C172.313 80.8645 172.374 80.9894 172.359 81.0016Z" fill="#EB996E"/>
<path d="M90.197 96.5297C90.197 96.5297 85.1997 124.875 85.4463 127.528C85.693 130.18 87.0147 134.395 90.0143 135.116C91.9194 135.542 93.8951 135.542 95.8003 135.116L92.2038 100.3L90.197 96.5297Z" fill="#00AC68"/>
<path d="M104.811 81.9062C104.811 81.9062 98.8363 86.1696 97.5024 87.4029C91.9783 92.6256 90.8241 94.7634 90.1938 96.5388C89.5634 98.3142 94.0308 139.334 94.0308 139.334L94.9444 146.506L136.869 146.612V109.981L130.574 84.1962L126.698 83.0938L125.915 80.0212C125.915 80.0212 121.1 76.4643 113.158 76.3668C110.722 76.3333 107.256 77.2956 105.326 78.803L104.811 81.9062Z" fill="#00AC68"/>
<path d="M125.873 84.3026C125.873 84.3026 130.183 84.1108 130.563 84.196C131.891 84.5006 135.536 87.8504 139.699 91.9676C143.658 95.896 151.46 104.073 151.46 104.073C151.46 104.073 152.861 102.66 154.46 104.548L160.614 95.5945C160.614 95.5945 169.86 96.7274 171.297 103.704C171.297 103.704 168.465 109.113 166.144 112.977C166.144 112.977 157.56 127.226 150.778 124.643C144.584 122.28 136.815 115.983 135.722 114.637L126.586 108.129C126.586 108.129 120.337 96.2158 123.099 90.2592L125.873 84.3026Z" fill="#00AC68"/>
<path d="M126.685 83.0939C126.611 83.0872 126.537 83.0719 126.466 83.0482L125.857 82.8838C125.318 82.7467 124.532 82.5579 123.552 82.3722C120.994 81.8993 118.41 81.581 115.814 81.419C113.219 81.2347 110.614 81.2429 108.021 81.4434C107.025 81.5286 106.227 81.6535 105.679 81.7479L105.048 81.8727C104.976 81.8936 104.901 81.9039 104.826 81.9032C104.895 81.8734 104.966 81.8509 105.039 81.8362L105.664 81.6778C106.438 81.5108 107.221 81.3878 108.008 81.3094C110.608 81.0712 113.222 81.0457 115.826 81.2332C118.427 81.3938 121.014 81.7316 123.57 82.2443C124.55 82.4483 125.333 82.6554 125.872 82.8168L126.481 83.0147C126.552 83.0332 126.62 83.0597 126.685 83.0939Z" fill="#263238"/>
<path d="M110.357 80.9625C110.305 80.9625 110.168 80.2682 110.052 79.3942C109.937 78.5202 109.873 77.8106 109.924 77.8015C110.084 78.3113 110.186 78.8373 110.229 79.3698C110.351 80.256 110.409 80.9564 110.357 80.9625Z" fill="#263238"/>
<path d="M111.921 80.8282C111.505 79.8225 111.428 78.7084 111.702 77.655C111.757 77.655 111.675 78.3737 111.736 79.2477C111.797 80.1217 111.973 80.813 111.921 80.8282Z" fill="#263238"/>
<g opacity="0.3">
<path d="M104.947 81.8727C111.507 83.033 118.158 81.8727 125.101 82.7041C118.401 81.3154 111.415 80.6577 104.947 81.8727Z" fill="black"/>
</g>
<g opacity="0.3">
<path d="M93.4216 135.171C89.7307 126.526 90.1692 116.757 90.6808 107.374L93.4216 135.171Z" fill="black"/>
</g>
<path d="M90.1979 102.708C90.2079 102.744 90.214 102.781 90.2162 102.818C90.2162 102.9 90.2405 103.007 90.2558 103.138C90.2862 103.442 90.3319 103.847 90.3867 104.377C90.4933 105.464 90.6486 107.018 90.8374 108.945C91.212 112.788 91.7236 118.102 92.3357 123.965C92.9478 129.827 93.5538 135.129 94.0471 138.96C94.2877 140.875 94.4948 142.425 94.6562 143.494C94.7262 144.021 94.7811 144.435 94.8176 144.727C94.8359 144.861 94.8481 144.968 94.8572 145.05C94.8605 145.087 94.8605 145.123 94.8572 145.16C94.8448 145.125 94.8367 145.09 94.8328 145.053L94.775 144.733C94.7293 144.429 94.6623 144.03 94.5801 143.515C94.4126 142.446 94.1842 140.899 93.9253 138.987C93.4046 135.159 92.7712 129.851 92.1591 123.992C91.547 118.133 91.0567 112.813 90.7156 108.967C90.5512 107.051 90.4111 105.495 90.3228 104.399C90.2832 103.869 90.2497 103.455 90.2284 103.159C90.2284 103.025 90.2284 102.919 90.207 102.833C90.1989 102.792 90.1958 102.75 90.1979 102.708Z" fill="#263238"/>
<path d="M118.579 98.0705C118.491 98.0842 118.401 98.0893 118.311 98.0858H117.535C116.865 98.0858 115.89 98.0858 114.69 98.1193C112.288 98.1741 108.971 98.3507 105.332 98.7801C101.693 99.2095 98.4255 99.8307 96.0776 100.355C94.9021 100.607 93.9459 100.827 93.3034 100.988L92.5481 101.165C92.4614 101.188 92.3727 101.205 92.2832 101.213C92.3657 101.177 92.4513 101.149 92.539 101.128L93.2851 100.918C93.9337 100.735 94.8778 100.498 96.0502 100.227C102.165 98.8211 108.413 98.0768 114.687 98.0066C115.905 98.0066 116.865 98.0066 117.538 98.0309L118.311 98.0614C118.401 98.0573 118.49 98.0603 118.579 98.0705Z" fill="#263238"/>
<path d="M102.481 107.249C102.429 107.249 102.526 103.324 102.694 98.4847C102.861 93.6457 103.044 89.7203 103.096 89.7234C103.148 89.7264 103.05 93.6488 102.88 98.4908C102.709 103.333 102.529 107.252 102.481 107.249Z" fill="#263238"/>
<path d="M123.907 106.765C123.85 106.686 123.798 106.604 123.751 106.518C123.644 106.337 123.504 106.097 123.331 105.796L121.784 103.138C121.001 101.829 120.351 100.444 119.844 99.0055C119.563 98.146 119.369 97.2605 119.266 96.3621C119.177 95.3958 119.177 94.4233 119.266 93.4569C119.394 91.5842 119.863 89.7504 120.648 88.0455C121.009 87.3073 121.469 86.6219 122.015 86.0082C122.496 85.4792 123.047 85.0191 123.654 84.6408C124.527 84.0793 125.527 83.7444 126.562 83.6664C126.939 83.6349 127.318 83.6564 127.689 83.7303C127.315 83.7104 126.941 83.7104 126.568 83.7303C125.552 83.8327 124.576 84.1796 123.724 84.7413C123.133 85.1205 122.596 85.5785 122.128 86.1026C121.598 86.7096 121.152 87.3857 120.803 88.1125C120.034 89.8013 119.575 91.6147 119.448 93.4661C119.363 94.4194 119.363 95.3784 119.448 96.3317C119.549 97.2179 119.737 98.092 120.009 98.9415C120.506 100.373 121.14 101.754 121.9 103.065L123.395 105.751L123.788 106.491C123.836 106.578 123.875 106.67 123.907 106.765Z" fill="#263238"/>
<g opacity="0.3">
<path d="M92.9598 101.18C95.6091 101.043 98.2435 100.695 100.838 100.141C100.518 101.288 100.369 102.475 100.396 103.665C101.219 102.738 101.818 101.635 102.147 100.44C102.242 101.09 102.466 101.714 102.808 102.275C103.15 102.836 103.602 103.322 104.136 103.704C104.397 102.526 104.457 101.312 104.313 100.114C108.233 99.643 112.127 98.9984 115.994 98.1802C108.166 97.9906 100.353 98.9624 92.8105 101.064" fill="black"/>
</g>
<path d="M143.365 120.718C143.301 120.69 143.24 120.654 143.185 120.612L142.683 120.277C142.25 119.972 141.629 119.555 140.855 119.016C139.333 117.944 137.228 116.436 134.941 114.731C132.654 113.026 130.611 111.442 129.155 110.282C128.425 109.703 127.834 109.228 127.429 108.896L126.966 108.513C126.909 108.471 126.857 108.423 126.811 108.37C126.873 108.404 126.932 108.444 126.987 108.488L127.468 108.848L129.225 110.194C130.709 111.333 132.761 112.898 135.048 114.603C137.335 116.309 139.406 117.828 140.928 118.931L142.719 120.234L143.203 120.59C143.26 120.628 143.314 120.671 143.365 120.718Z" fill="#263238"/>
<path d="M153.595 111.376C153.567 111.376 153.595 110.913 153.531 110.179C153.393 108.255 152.813 106.389 151.837 104.725C151.463 104.088 151.189 103.72 151.21 103.701C151.293 103.773 151.365 103.855 151.426 103.945C151.607 104.177 151.776 104.418 151.932 104.667C152.976 106.32 153.566 108.219 153.643 110.173C153.66 110.466 153.66 110.76 153.643 111.053C153.641 111.162 153.625 111.271 153.595 111.376Z" fill="#263238"/>
<path d="M155.482 110.684C155.491 110.37 155.516 110.057 155.558 109.746C155.615 108.995 155.601 108.241 155.516 107.492C155.429 106.744 155.271 106.006 155.044 105.288C154.87 104.733 154.739 104.401 154.758 104.389C154.81 104.457 154.852 104.532 154.882 104.612C154.983 104.82 155.073 105.033 155.15 105.251C155.674 106.692 155.851 108.236 155.668 109.758C155.632 110.047 155.592 110.282 155.555 110.44C155.543 110.524 155.518 110.606 155.482 110.684Z" fill="#263238"/>
<path d="M169.782 106.765C169.782 106.765 169.782 106.707 169.712 106.649C169.66 106.616 169.617 106.57 169.587 106.515C169.554 106.451 169.529 106.375 169.487 106.302C169.404 106.147 169.2 106.031 169.054 105.806C168.896 105.556 168.773 105.285 168.689 105.002C168.481 104.278 168.124 103.606 167.641 103.028C167.352 102.692 167.037 102.379 166.7 102.09C166.343 101.774 165.963 101.484 165.564 101.222C165.178 100.941 164.771 100.689 164.346 100.47L163.128 99.8794C162.744 99.6967 162.385 99.5079 162.035 99.3587L161.06 98.9414C160.916 98.886 160.774 98.822 160.637 98.7496C160.506 98.6735 160.4 98.5882 160.29 98.5273L159.985 98.3598C159.888 98.308 159.806 98.238 159.733 98.1923C159.583 98.0979 159.452 98.0461 159.367 98.0004C159.282 97.9548 159.239 97.9304 159.242 97.9243C159.29 97.935 159.336 97.9514 159.379 97.973C159.512 98.0193 159.641 98.0753 159.766 98.1405C159.951 98.2568 160.144 98.3586 160.345 98.4451C160.463 98.5029 160.576 98.5882 160.698 98.6552C160.82 98.7222 160.972 98.7709 161.118 98.8349L162.099 99.2307C162.449 99.3739 162.814 99.5627 163.204 99.7424L164.422 100.324C164.853 100.545 165.265 100.8 165.656 101.085C166.062 101.35 166.446 101.645 166.807 101.968C167.148 102.263 167.466 102.583 167.757 102.928C168.246 103.522 168.601 104.215 168.798 104.959C168.875 105.236 168.986 105.502 169.13 105.751C169.258 105.964 169.456 106.089 169.541 106.265C169.587 106.351 169.605 106.43 169.633 106.488C169.657 106.539 169.693 106.585 169.736 106.622C169.813 106.701 169.785 106.771 169.782 106.765Z" fill="#263238"/>
<path d="M130.714 145.906C130.671 145.906 130.635 138.202 130.635 128.697C130.635 119.193 130.671 111.488 130.714 111.488C130.757 111.488 130.793 119.193 130.793 128.697C130.793 138.202 130.76 145.906 130.714 145.906Z" fill="#263238"/>
<path d="M119.757 64.0722C119.945 64.0722 119.924 65.3042 120.973 66.2015C122.023 67.0989 123.373 67.0016 123.382 67.175C123.398 67.251 123.078 67.4061 122.512 67.4092C121.776 67.401 121.065 67.1388 120.499 66.667C119.962 66.2168 119.622 65.5752 119.55 64.8783C119.525 64.3673 119.665 64.0631 119.757 64.0722Z" fill="#263238"/>
<mask id="mask0_14385_20488" style="mask-type:alpha" maskUnits="userSpaceOnUse" x="143" y="76" width="9" height="10">
<rect x="143.012" y="76.4478" width="8.74454" height="8.74454" fill="#D9D9D9"/>
</mask>
<g mask="url(#mask0_14385_20488)">
<path d="M144.005 84.0989C143.938 84.0989 143.877 84.0822 143.823 84.0488C143.768 84.0154 143.725 83.9714 143.695 83.9168C143.665 83.8621 143.648 83.8029 143.645 83.7391C143.642 83.6754 143.659 83.6131 143.695 83.5524L147.065 77.7227C147.102 77.662 147.149 77.6164 147.206 77.5861C147.264 77.5557 147.323 77.5405 147.384 77.5405C147.445 77.5405 147.504 77.5557 147.562 77.5861C147.619 77.6164 147.666 77.662 147.703 77.7227L151.073 83.5524C151.11 83.6131 151.126 83.6754 151.123 83.7391C151.12 83.8029 151.104 83.8621 151.073 83.9168C151.043 83.9714 151 84.0154 150.946 84.0488C150.891 84.0822 150.83 84.0989 150.763 84.0989H144.005ZM144.633 83.3702H150.135L147.384 78.6336L144.633 83.3702ZM147.384 83.0059C147.487 83.0059 147.574 82.9709 147.644 82.9011C147.714 82.8313 147.748 82.7447 147.748 82.6415C147.748 82.5383 147.714 82.4517 147.644 82.3819C147.574 82.3121 147.487 82.2772 147.384 82.2772C147.281 82.2772 147.194 82.3121 147.124 82.3819C147.055 82.4517 147.02 82.5383 147.02 82.6415C147.02 82.7447 147.055 82.8313 147.124 82.9011C147.194 82.9709 147.281 83.0059 147.384 83.0059ZM147.384 81.9128C147.487 81.9128 147.574 81.8779 147.644 81.808C147.714 81.7382 147.748 81.6517 147.748 81.5484V80.4554C147.748 80.3521 147.714 80.2656 147.644 80.1958C147.574 80.1259 147.487 80.091 147.384 80.091C147.281 80.091 147.194 80.1259 147.124 80.1958C147.055 80.2656 147.02 80.3521 147.02 80.4554V81.5484C147.02 81.6517 147.055 81.7382 147.124 81.808C147.194 81.8779 147.281 81.9128 147.384 81.9128Z" fill="#FF6262"/>
</g>
</svg>
