<svg width="305" height="160" viewBox="0 0 305 160" fill="none" xmlns="http://www.w3.org/2000/svg">
<g opacity="0.6">
<path d="M99.3274 54.2864C99.3274 54.3889 99.3274 54.4848 99.3274 54.5873C99.3109 54.4782 99.3208 54.3889 99.3274 54.2864Z" fill="#263238"/>
</g>
<path d="M91.9133 69.4173C91.8835 69.4173 91.8174 69.2255 91.6586 68.8881C91.4398 68.4109 91.1486 67.9702 90.7954 67.5817C90.5517 67.3192 90.28 67.084 89.9851 66.8806C89.6488 66.6488 89.2843 66.4609 88.9003 66.3217C88.6932 66.2478 88.481 66.1892 88.2653 66.1464C88.041 66.0981 87.8131 66.0683 87.584 66.0571C87.3468 66.0456 87.1091 66.0522 86.8729 66.0769C86.6305 66.1017 86.3905 66.146 86.1552 66.2092C85.685 66.3284 85.2379 66.5252 84.8323 66.7913C84.6394 66.9154 84.4559 67.0536 84.2833 67.2047C84.1207 67.3509 83.9693 67.509 83.8302 67.6777C83.5654 67.9887 83.343 68.3335 83.1687 68.7029C83.0149 69.0263 82.8973 69.3657 82.8181 69.715C82.7044 70.227 82.6698 70.7535 82.7156 71.276C82.7505 71.4702 82.766 71.6675 82.7619 71.8647C82.6599 71.6907 82.5967 71.4966 82.5767 71.2959C82.4744 70.7572 82.4744 70.2041 82.5767 69.6654C82.6424 69.2895 82.7535 68.923 82.9074 68.5739C83.0828 68.1732 83.312 67.7982 83.5887 67.4594C83.8955 67.0846 84.2567 66.758 84.6603 66.4903C84.8701 66.3486 85.0913 66.2247 85.3218 66.1199C85.5615 66.0126 85.8092 65.9241 86.0626 65.8553C86.5655 65.7194 87.0873 65.6669 87.6071 65.6999C87.8531 65.7152 88.0974 65.7495 88.3381 65.8024C88.5687 65.8543 88.7953 65.9228 89.0161 66.0075C89.4253 66.1627 89.8114 66.373 90.1637 66.6325C90.4683 66.8602 90.7458 67.1221 90.9905 67.4131C91.3431 67.8328 91.6155 68.3137 91.7942 68.8319C91.8746 69.0165 91.9152 69.216 91.9133 69.4173Z" fill="#E0E0E0"/>
<path d="M85.7662 67.8699L85.625 68.7717L89.5003 69.3786L89.6415 68.4767L85.7662 67.8699Z" fill="#E0E0E0"/>
<path d="M84.9928 69.1178L84.8516 70.0197L89.9522 70.8184L90.0934 69.9166L84.9928 69.1178Z" fill="#E0E0E0"/>
<path d="M88.4614 73.3463C88.0381 73.2801 87.3435 72.999 87.4361 71.8745C87.4924 71.2131 87.6974 70.0456 87.7073 69.996L88.6069 70.1547C88.6069 70.1547 88.3986 71.3387 88.349 71.9506C88.3093 72.3971 88.435 72.4169 88.6036 72.4434C88.812 72.4765 88.9344 72.1292 88.9344 72.1127L89.8075 72.3872C89.695 72.7807 89.2618 73.472 88.4614 73.3463Z" fill="#E0E0E0"/>
<path d="M84.5809 72.536L84.4916 71.6298L84.5445 72.0829L84.4883 71.6298C84.9434 71.5613 85.3626 71.3429 85.6795 71.0092C85.9964 70.6755 86.1929 70.2456 86.2379 69.7876L87.1441 69.8967C87.0744 70.5603 86.7839 71.1812 86.3191 71.6598C85.8542 72.1384 85.2421 72.447 84.5809 72.536Z" fill="#E0E0E0"/>
<path d="M222.5 145.988C222.5 146.035 192.247 146.074 154.941 146.074C117.634 146.074 87.375 146.035 87.375 145.988C87.375 145.942 117.621 145.902 154.941 145.902C192.261 145.902 222.5 145.942 222.5 145.988Z" fill="#263238"/>
<path d="M118.886 49.57C119.824 51.8677 120.059 54.392 119.562 56.8233C119.064 59.2546 117.856 61.4836 116.091 63.2279C114.326 64.9722 112.082 66.1534 109.645 66.6218C107.208 67.0903 104.687 66.825 102.4 65.8595C100.114 64.894 98.166 63.2717 96.8024 61.1982C95.4388 59.1246 94.7213 56.6931 94.7406 54.2114C94.76 51.7298 95.5153 49.3097 96.9111 47.2576C98.3068 45.2056 100.28 43.6139 102.581 42.6842C105.657 41.4377 109.101 41.4628 112.158 42.7538C115.215 44.0449 117.635 46.4964 118.886 49.57Z" fill="#00AC68"/>
<path d="M116.135 50.6913C116.849 52.4421 117.027 54.3653 116.648 56.2174C116.268 58.0695 115.347 59.7674 114.002 61.0961C112.657 62.4247 110.948 63.3245 109.091 63.6814C107.235 64.0383 105.314 63.8364 103.572 63.1012C101.83 62.366 100.345 61.1306 99.3059 59.5513C98.2665 57.972 97.719 56.1198 97.7327 54.2292C97.7464 52.3386 98.3206 50.4945 99.3828 48.9304C100.445 47.3663 101.947 46.1525 103.7 45.4426C106.045 44.4897 108.672 44.5074 111.004 45.4917C113.336 46.476 115.182 48.3463 116.135 50.6913Z" fill="#00AC68"/>
<path d="M116.135 50.691C116.109 50.6472 116.084 50.6019 116.063 50.5554L115.861 50.1453L115.715 49.8477C115.656 49.7385 115.583 49.6261 115.507 49.5004C115.342 49.2094 115.157 48.9308 114.951 48.6669C114.409 47.926 113.758 47.2715 113.02 46.7255C112.047 45.9981 110.943 45.4638 109.769 45.1513C108.347 44.7664 106.855 44.7211 105.413 45.019C103.315 45.4649 101.423 46.5943 100.035 48.2304C99.8899 48.4057 99.7609 48.5942 99.6187 48.7794C99.4794 48.9627 99.3523 49.1549 99.2383 49.3549C98.9897 49.755 98.7687 50.1716 98.5768 50.6017C98.3948 51.0447 98.2445 51.5001 98.127 51.9644C97.8764 52.9151 97.7826 53.9004 97.8492 54.8814C97.9703 56.9185 98.7556 58.8597 100.085 60.408C100.722 61.1574 101.476 61.7995 102.317 62.3097C102.725 62.5593 103.149 62.7803 103.587 62.9711C104.019 63.1465 104.461 63.2945 104.91 63.4143C105.79 63.6498 106.7 63.748 107.609 63.7054C109.3 63.6422 110.944 63.1308 112.372 62.2237C113.503 61.4993 114.469 60.5437 115.205 59.4196C115.941 58.2956 116.43 57.0285 116.642 55.7016C116.794 54.7961 116.807 53.8727 116.681 52.9632C116.645 52.6284 116.585 52.2967 116.499 51.971C116.466 51.8288 116.443 51.6965 116.41 51.5807C116.377 51.465 116.334 51.3591 116.304 51.25C116.245 51.0681 116.198 50.9192 116.165 50.8167C116.146 50.7688 116.131 50.7189 116.122 50.6679C116.147 50.7131 116.167 50.7608 116.182 50.8101C116.221 50.9159 116.274 51.0548 116.341 51.2367L116.456 51.5509C116.493 51.67 116.522 51.8023 116.559 51.9445C116.65 52.2697 116.717 52.6014 116.757 52.9367C116.9 53.8528 116.9 54.7855 116.757 55.7016C116.552 57.0504 116.062 58.3403 115.321 59.4857C114.58 60.6312 113.604 61.6061 112.458 62.3461C111.018 63.2786 109.356 63.8127 107.642 63.8939C107.183 63.9114 106.724 63.8992 106.266 63.8575C105.802 63.8034 105.341 63.7183 104.887 63.6028C104.423 63.4829 103.966 63.3326 103.521 63.153C103.075 62.9622 102.642 62.7412 102.225 62.4916C101.366 61.9702 100.595 61.3148 99.9428 60.5502C98.5847 58.9701 97.7829 56.9878 97.6607 54.9079C97.5949 53.9068 97.691 52.9017 97.9451 51.9313C98.1767 50.994 98.5587 50.1004 99.0762 49.2854C99.1905 49.0791 99.321 48.8822 99.4665 48.6967C99.6087 48.5115 99.741 48.3197 99.8899 48.1411C100.186 47.7886 100.507 47.4571 100.849 47.1489C102.134 46.001 103.701 45.2156 105.39 44.8734C106.727 44.6073 108.106 44.6286 109.435 44.9359C110.763 45.2433 112.011 45.8296 113.096 46.6561C113.838 47.2134 114.489 47.8829 115.024 48.6405C115.229 48.9085 115.411 49.1928 115.57 49.4905C115.643 49.6195 115.715 49.7319 115.772 49.8444C115.828 49.9568 115.868 50.056 115.907 50.1486C115.983 50.3239 116.046 50.4794 116.089 50.5654C116.108 50.6061 116.123 50.6481 116.135 50.691Z" fill="#263238"/>
<g opacity="0.3">
<path d="M116.106 50.81C116.053 50.8332 115.858 50.4594 115.445 49.841C114.865 48.9645 114.154 48.1834 113.334 47.5258C112.773 47.0802 112.164 46.6976 111.519 46.3848C110.783 46.0323 110.005 45.7767 109.204 45.6241C108.767 45.5374 108.325 45.4854 107.881 45.4687C107.423 45.4463 106.964 45.4584 106.508 45.5051C106.037 45.5549 105.571 45.64 105.112 45.7597C104.643 45.888 104.183 46.0494 103.737 46.2426C103.291 46.4428 102.861 46.676 102.45 46.9404C102.052 47.1974 101.675 47.4849 101.322 47.8003C100.981 48.1061 100.663 48.4378 100.373 48.7925C100.09 49.1308 99.8337 49.4901 99.6057 49.8674C99.1805 50.5648 98.8471 51.314 98.6135 52.0966C98.4106 52.7841 98.2831 53.4916 98.2331 54.2066C98.1683 55.2525 98.2643 56.3021 98.5176 57.3188C98.6962 58.0431 98.8483 58.44 98.7888 58.4632C98.7292 58.4863 98.5176 58.1324 98.2464 57.4015C97.8772 56.3708 97.699 55.2814 97.7205 54.1868C97.7428 53.4257 97.8538 52.6699 98.0512 51.9345C98.2711 51.0875 98.6049 50.2742 99.0434 49.5168C99.2797 49.1076 99.5473 48.7173 99.8438 48.3494C100.474 47.5644 101.224 46.8836 102.066 46.3319C102.507 46.0456 102.969 45.7935 103.449 45.5778C103.931 45.3691 104.429 45.1966 104.937 45.0619C105.908 44.81 106.913 44.7129 107.914 44.7741C108.385 44.8017 108.854 44.8658 109.316 44.966C110.172 45.1469 110.998 45.444 111.773 45.849C112.446 46.2023 113.076 46.6329 113.649 47.1323C114.476 47.8514 115.163 48.7184 115.673 49.6888C116.037 50.3801 116.142 50.7935 116.106 50.81Z" fill="black"/>
</g>
<g opacity="0.3">
<path d="M110.42 59.1547L111.082 60.6893L109.712 61.2681L109.067 59.7699C107.678 60.2627 106.2 60.385 105.198 60.1006L105.244 58.1162C106.263 58.3336 107.32 58.2823 108.313 57.9674L107.348 55.682C105.671 55.9532 103.759 56.1616 102.932 54.2036C102.32 52.7517 102.85 51.0617 104.917 49.9041L104.275 48.3827L105.644 47.804L106.276 49.2989C107.279 48.9422 108.353 48.8289 109.408 48.9681L109.435 50.9525C108.633 50.8507 107.819 50.9092 107.04 51.1245L108.032 53.4396C109.686 53.1519 111.584 52.9568 112.401 54.8849C112.98 56.317 112.461 57.9872 110.42 59.1547ZM106.498 53.6811L105.677 51.7364C105.016 52.206 104.9 52.7286 105.092 53.1784C105.284 53.6282 105.813 53.7439 106.498 53.6811ZM110.245 55.9962C110.043 55.5166 109.537 55.424 108.859 55.467L109.659 57.3588C110.288 56.909 110.43 56.4262 110.245 55.9863V55.9962Z" fill="black"/>
</g>
<path d="M148.464 24.3815C148.877 26.8275 148.554 29.3409 147.538 31.6036C146.521 33.8664 144.856 35.7767 142.754 37.093C140.651 38.4092 138.205 39.0722 135.726 38.9981C133.246 38.924 130.845 38.116 128.825 36.6765C126.804 35.237 125.257 33.2306 124.377 30.9111C123.498 28.5917 123.326 26.0635 123.884 23.6465C124.441 21.2294 125.703 19.0321 127.51 17.3326C129.317 15.6331 131.588 14.5078 134.034 14.099C135.657 13.8261 137.318 13.8756 138.921 14.2448C140.525 14.6139 142.04 15.2954 143.38 16.2503C144.72 17.2052 145.859 18.4148 146.731 19.81C147.604 21.2052 148.192 22.7586 148.464 24.3815Z" fill="#00AC68"/>
<path d="M145.523 24.8642C145.838 26.7283 145.593 28.6439 144.819 30.3687C144.045 32.0935 142.777 33.5499 141.175 34.5536C139.573 35.5573 137.709 36.0632 135.819 36.0072C133.929 35.9513 132.099 35.3361 130.559 34.2394C129.019 33.1427 127.839 31.6139 127.168 29.8464C126.498 28.0788 126.366 26.1521 126.791 24.3099C127.216 22.4677 128.178 20.793 129.554 19.4975C130.931 18.2021 132.662 17.3442 134.526 17.0325C137.023 16.6133 139.584 17.2028 141.646 18.6715C143.708 20.1401 145.103 22.3676 145.523 24.8642Z" fill="#00AC68"/>
<path d="M145.523 24.8644C145.503 24.8163 145.488 24.7665 145.477 24.7155C145.45 24.6064 145.417 24.4609 145.371 24.2723C145.348 24.1764 145.321 24.0673 145.295 23.9416C145.268 23.8159 145.212 23.6969 145.169 23.558C145.069 23.2383 144.947 22.9257 144.805 22.622C144.437 21.7804 143.943 20.9998 143.34 20.3069C142.464 19.2902 141.383 18.4701 140.168 17.9001C138.953 17.3302 137.631 17.0233 136.289 16.9995C134.597 16.9703 132.929 17.3915 131.454 18.2199C131.063 18.4405 130.687 18.6869 130.329 18.9575C130.147 19.0964 129.982 19.2518 129.803 19.4006C129.627 19.5485 129.461 19.7088 129.307 19.8802C128.98 20.2178 128.677 20.5769 128.398 20.9551C128.127 21.3491 127.882 21.76 127.663 22.1854C127.213 23.0599 126.907 24.0014 126.757 24.9735C126.435 26.9894 126.784 29.0553 127.749 30.8539C128.208 31.7246 128.804 32.5153 129.516 33.1955C130.191 33.8703 130.973 34.429 131.831 34.8492C132.239 35.0607 132.662 35.242 133.097 35.3916C133.525 35.5316 133.961 35.6421 134.404 35.7223C136.568 36.1208 138.803 35.756 140.729 34.6903C142.654 33.6245 144.15 31.9238 144.961 29.8783C145.303 29.0327 145.517 28.141 145.596 27.2324C145.631 26.9029 145.643 26.5714 145.632 26.2402C145.632 26.0947 145.632 25.9591 145.632 25.8367C145.632 25.7143 145.609 25.6052 145.599 25.506C145.579 25.3175 145.566 25.1752 145.556 25.0562C145.55 25.0045 145.55 24.9524 145.556 24.9007C145.568 24.9509 145.577 25.0017 145.583 25.0529C145.583 25.162 145.619 25.3141 145.645 25.5027C145.645 25.6019 145.672 25.7143 145.688 25.8334C145.705 25.9525 145.688 26.0914 145.688 26.2369C145.706 26.5743 145.699 26.9125 145.669 27.2489C145.606 28.1735 145.401 29.0828 145.06 29.9444C144.571 31.2163 143.817 32.3694 142.847 33.3269C141.878 34.2844 140.715 35.0243 139.438 35.4974C137.378 36.241 135.129 36.2759 133.048 35.5966C132.605 35.4434 132.173 35.26 131.755 35.0476C131.327 34.8309 130.915 34.5856 130.521 34.3134C130.126 34.025 129.752 33.7101 129.4 33.3708C128.675 32.6748 128.067 31.8676 127.597 30.9796C126.621 29.1404 126.272 27.0324 126.605 24.9768C126.76 23.9839 127.074 23.0225 127.534 22.1292C127.757 21.6956 128.008 21.2769 128.285 20.8757C128.554 20.4807 128.85 20.1049 129.172 19.7512C129.33 19.5764 129.5 19.4129 129.681 19.2617C129.863 19.1096 130.031 18.9508 130.217 18.8119C130.583 18.5358 130.967 18.285 131.368 18.0612C132.871 17.2206 134.571 16.7959 136.292 16.8308C137.656 16.8618 138.997 17.1824 140.227 17.7715C141.457 18.3605 142.547 19.2045 143.426 20.2473C144.029 20.9527 144.518 21.747 144.878 22.6021C145.011 22.9102 145.122 23.2274 145.209 23.5513C145.252 23.6902 145.295 23.8192 145.328 23.9383C145.361 24.0574 145.374 24.1698 145.394 24.269C145.43 24.4576 145.46 24.5998 145.483 24.7155C145.5 24.7643 145.513 24.814 145.523 24.8644Z" fill="#263238"/>
<g opacity="0.3">
<path d="M145.464 24.9735C145.407 24.9735 145.298 24.5799 145.027 23.882C144.651 22.9038 144.126 21.99 143.469 21.1733C143.019 20.6166 142.509 20.1108 141.948 19.6652C141.304 19.1658 140.599 18.7502 139.851 18.4283C139.449 18.2502 139.033 18.1043 138.607 17.9917C138.166 17.8701 137.716 17.7827 137.261 17.7304C136.79 17.6766 136.316 17.6578 135.843 17.6742C135.356 17.6974 134.872 17.7549 134.394 17.8462C133.916 17.944 133.446 18.0778 132.988 18.2464C132.543 18.4104 132.112 18.6095 131.698 18.8417C131.299 19.0643 130.918 19.3176 130.557 19.599C130.205 19.8666 129.873 20.1607 129.565 20.4788C128.495 21.5852 127.71 22.9362 127.28 24.4145C126.987 25.4218 126.852 26.4682 126.88 27.5168C126.896 28.2643 126.949 28.681 126.88 28.6909C126.81 28.7008 126.688 28.3006 126.582 27.5366C126.445 26.4483 126.509 25.3441 126.771 24.2789C127.16 22.6815 127.958 21.2127 129.086 20.0158C129.406 19.6617 129.756 19.3354 130.131 19.0401C130.516 18.7308 130.925 18.4521 131.354 18.2067C131.796 17.9485 132.259 17.7272 132.737 17.5452C133.723 17.1703 134.765 16.9624 135.819 16.93C137.3 16.8824 138.771 17.1767 140.119 17.7899C141.613 18.4701 142.907 19.5237 143.876 20.8492C144.525 21.7323 145.007 22.7265 145.298 23.7828C145.493 24.5402 145.507 24.9668 145.464 24.9735Z" fill="black"/>
</g>
<g opacity="0.3">
<path d="M139.79 28.7306L141.397 30.0899C140.468 31.35 139.006 32.0743 137.184 32.1636C134.538 32.2926 132.375 30.8969 131.578 28.6744L129.891 28.7537L129.831 27.5002L131.293 27.4275C131.273 27.2952 131.267 27.1596 131.26 27.0273C131.252 26.8918 131.252 26.756 131.26 26.6205L129.802 26.6966L129.742 25.4398L131.429 25.3604C132.011 23.0684 134.032 21.4743 136.674 21.3486C138.5 21.2626 140.025 21.848 141.067 23.0023L139.598 24.5104C139.256 24.1396 138.836 23.8489 138.368 23.6591C137.9 23.4693 137.397 23.3851 136.893 23.4124C136.29 23.4187 135.702 23.5933 135.193 23.9165C134.685 24.2397 134.277 24.6986 134.015 25.2413L137.796 25.0627L137.855 26.3162L133.701 26.5147C133.701 26.6503 133.701 26.7859 133.701 26.9182C133.704 27.0532 133.715 27.188 133.734 27.3217L137.888 27.1232L137.948 28.38L134.167 28.5586C134.479 29.0744 134.929 29.4927 135.466 29.7662C136.003 30.0397 136.606 30.1576 137.207 30.1064C137.713 30.0848 138.208 29.95 138.655 29.7119C139.102 29.4738 139.49 29.1385 139.79 28.7306Z" fill="black"/>
</g>
<path d="M188.891 30.5729C188.141 32.9374 186.706 35.0262 184.768 36.575C182.83 38.1237 180.476 39.0627 178.004 39.2732C175.532 39.4836 173.054 38.9561 170.882 37.7573C168.71 36.5585 166.942 34.7423 165.803 32.5386C164.664 30.335 164.204 27.8428 164.481 25.3776C164.759 22.9124 165.761 20.5849 167.362 18.6897C168.963 16.7945 171.09 15.4168 173.474 14.7309C175.858 14.045 178.392 14.0818 180.755 14.8366C182.323 15.3351 183.777 16.1376 185.035 17.1984C186.292 18.2592 187.329 19.5573 188.084 21.0188C188.84 22.4802 189.3 24.0761 189.438 25.7155C189.577 27.3548 189.391 29.0054 188.891 30.5729Z" fill="#00AC68"/>
<path d="M186.048 29.6732C185.477 31.4765 184.383 33.0699 182.906 34.2517C181.429 35.4334 179.635 36.1503 177.75 36.3115C175.865 36.4728 173.975 36.0712 172.319 35.1577C170.662 34.2441 169.314 32.8596 168.445 31.1794C167.576 29.4993 167.225 27.599 167.437 25.7193C167.648 23.8396 168.413 22.0649 169.634 20.6199C170.854 19.1749 172.476 18.1246 174.294 17.602C176.112 17.0794 178.045 17.108 179.846 17.6841C182.258 18.4525 184.266 20.1469 185.429 22.395C186.591 24.6431 186.814 27.261 186.048 29.6732Z" fill="#00AC68"/>
<path d="M186.048 29.673C186.054 29.6215 186.064 29.5706 186.078 29.5209C186.105 29.4117 186.138 29.2662 186.184 29.081C186.207 28.9818 186.234 28.876 186.263 28.7503C186.293 28.6246 186.303 28.4956 186.326 28.3501C186.386 28.0224 186.421 27.6908 186.432 27.3579C186.49 26.4412 186.408 25.5211 186.187 24.6293C185.68 22.4874 184.444 20.5885 182.69 19.2576C180.937 17.9267 178.776 17.2465 176.576 17.3334C176.127 17.3487 175.679 17.3951 175.237 17.4723C175.015 17.5153 174.794 17.5781 174.575 17.6277C174.35 17.6788 174.129 17.7463 173.914 17.8295C173.469 17.9798 173.035 18.1599 172.614 18.3686C172.192 18.5946 171.786 18.8476 171.397 19.1259C170.597 19.6994 169.895 20.3972 169.317 21.193C168.726 22.0148 168.263 22.9214 167.944 23.8819C167.65 24.8467 167.501 25.8498 167.501 26.8585C167.509 27.8427 167.678 28.819 168 29.7491C168.154 30.2017 168.337 30.6436 168.549 31.072C168.771 31.4863 169.021 31.8852 169.297 32.266C169.564 32.6383 169.857 32.9919 170.173 33.3243C171.871 35.0676 174.173 36.0932 176.605 36.1898C179.037 36.2864 181.413 35.4467 183.244 33.8436C183.94 33.2454 184.541 32.5451 185.026 31.7666C185.211 31.4865 185.376 31.1936 185.519 30.8901C185.582 30.7611 185.648 30.6421 185.698 30.5296C185.747 30.4172 185.784 30.3146 185.82 30.2187C185.893 30.0434 185.949 29.888 185.989 29.7987C186.006 29.7493 186.029 29.7017 186.055 29.6565C186.044 29.7074 186.029 29.7572 186.009 29.8053L185.86 30.2353L185.744 30.5495C185.698 30.6652 185.635 30.7843 185.572 30.9166C185.435 31.2248 185.275 31.5222 185.093 31.8062C184.613 32.6003 184.016 33.3163 183.32 33.9296C182.3 34.8345 181.101 35.5127 179.799 35.9192C178.498 36.3257 177.126 36.4513 175.773 36.2877C174.062 36.0765 172.44 35.4119 171.073 34.3628C170.708 34.0852 170.363 33.7824 170.041 33.4566C169.718 33.1176 169.419 32.7574 169.145 32.3784C168.863 31.9899 168.608 31.5834 168.381 31.1613C168.162 30.7239 167.974 30.272 167.818 29.8086C167.489 28.8596 167.315 27.8632 167.306 26.8585C167.275 24.7798 167.926 22.7483 169.158 21.074C169.75 20.2615 170.469 19.55 171.288 18.9672C172.065 18.389 172.932 17.9421 173.854 17.6443C174.075 17.561 174.302 17.4935 174.532 17.4425C174.76 17.3896 174.985 17.3268 175.214 17.2838C175.665 17.2067 176.122 17.1603 176.58 17.1449C178.301 17.0833 180.008 17.4817 181.524 18.2991C182.722 18.9509 183.767 19.8496 184.592 20.9357C185.416 22.0219 186.001 23.2707 186.306 24.5996C186.518 25.5027 186.591 26.4329 186.521 27.3579C186.505 27.6913 186.463 28.023 186.396 28.3501C186.369 28.4956 186.349 28.6312 186.323 28.7503L186.234 29.081C186.181 29.2662 186.138 29.4117 186.108 29.5176C186.094 29.5715 186.074 29.6237 186.048 29.673Z" fill="#263238"/>
<g opacity="0.3">
<path d="M185.948 29.736C185.892 29.736 185.981 29.3093 186.061 28.5652C186.171 27.523 186.121 26.47 185.912 25.4431C185.765 24.7432 185.544 24.0612 185.25 23.4091C184.727 22.2631 183.98 21.2339 183.051 20.3829C182.362 19.7534 181.581 19.2326 180.736 18.8383C180.293 18.6336 179.835 18.4623 179.367 18.3257C178.897 18.1949 178.418 18.0988 177.934 18.038C177.008 17.931 176.07 17.9622 175.153 18.1306C174.721 18.2088 174.295 18.3193 173.88 18.4613C173.105 18.7234 172.368 19.0847 171.687 19.5362C171.086 19.9335 170.532 20.396 170.033 20.9153C169.313 21.6766 168.715 22.5445 168.26 23.4884C167.93 24.1499 167.791 24.56 167.735 24.5435C167.678 24.5269 167.735 24.1069 167.999 23.3793C168.372 22.3483 168.933 21.3951 169.653 20.5681C170.151 19.9931 170.715 19.4791 171.333 19.0368C172.047 18.5312 172.826 18.123 173.648 17.823C174.095 17.6594 174.554 17.53 175.021 17.436C176.008 17.2352 177.02 17.1917 178.02 17.307C178.542 17.3712 179.058 17.4741 179.565 17.6146C180.071 17.7606 180.564 17.9464 181.04 18.1702C181.501 18.3878 181.943 18.6422 182.363 18.9309C182.772 19.2082 183.157 19.5191 183.514 19.8603C183.859 20.1822 184.179 20.5305 184.47 20.9021C185.489 22.1898 186.159 23.7185 186.414 25.3405C186.588 26.4221 186.561 27.5264 186.335 28.5983C186.173 29.3622 185.988 29.7492 185.948 29.736Z" fill="black"/>
</g>
<g opacity="0.3">
<path d="M179.637 30.1066L178.43 31.0988C178.215 31.1715 178.04 31.0987 177.2 30.477C176.995 30.3281 176.77 30.1462 176.519 29.9908C176.761 29.4374 176.949 28.8613 177.077 28.271C177.104 28.1291 177.118 27.9853 177.12 27.841L178.572 28.2313L179.128 26.1708L176.522 25.4697C176.44 25.2109 176.381 24.9453 176.347 24.6759C176.331 24.365 176.383 24.0544 176.497 23.7647C176.611 23.4751 176.785 23.213 177.008 22.9958C177.421 22.6419 178.017 22.5658 178.771 22.7709C179.005 22.8165 179.227 22.9095 179.424 23.0443C179.621 23.1791 179.788 23.3528 179.915 23.5547C180.355 24.3187 180.084 25.3936 180.081 25.4068L180.008 25.6747L182.062 26.2469L182.138 25.9724C182.158 25.8963 182.66 24.0608 181.774 22.5063C181.51 22.0557 181.157 21.6639 180.736 21.3551C180.315 21.0462 179.835 20.8268 179.326 20.7104C177.491 20.2176 176.3 20.7964 175.626 21.3719C175.142 21.8082 174.764 22.348 174.518 22.951C174.272 23.554 174.166 24.2047 174.207 24.8545L173.423 24.6428L172.88 26.6967L174.865 27.2292C174.945 27.4326 174.986 27.649 174.987 27.8675C174.898 28.27 174.771 28.6632 174.607 29.0416C174.007 28.9139 173.383 28.9777 172.821 29.224C172.26 29.4703 171.79 29.8865 171.478 30.4141L171.336 30.6556L173.172 31.7338L173.317 31.4956C173.512 31.1649 173.899 30.8937 174.64 31.3203C175.09 31.5872 175.524 31.8798 175.94 32.1968C176.455 32.6303 177.044 32.9666 177.679 33.189C178.043 33.2903 178.426 33.3011 178.795 33.2204C179.164 33.1397 179.508 32.9699 179.796 32.726L181.007 31.7503L179.637 30.1066Z" fill="black"/>
</g>
<path d="M210.17 53.4529C211.107 55.7509 211.341 58.2752 210.843 60.7063C210.345 63.1375 209.136 65.3661 207.371 67.1101C205.605 68.8541 203.362 70.0351 200.925 70.5036C198.488 70.9721 195.966 70.7071 193.68 69.7421C191.394 68.777 189.445 67.1554 188.081 65.0824C186.717 63.0093 185.998 60.5782 186.016 58.0966C186.034 55.615 186.788 53.1945 188.182 51.1415C189.576 49.0886 191.548 47.4954 193.849 46.5637C195.373 45.9441 197.004 45.6308 198.649 45.6416C200.294 45.6525 201.921 45.9874 203.437 46.6271C204.952 47.2669 206.327 48.199 207.483 49.3702C208.638 50.5413 209.551 51.9287 210.17 53.4529Z" fill="#00AC68"/>
<path d="M207.402 54.5705C208.115 56.321 208.293 58.2437 207.913 60.0952C207.533 61.9467 206.612 63.6439 205.267 64.9721C203.923 66.3003 202.214 67.1999 200.358 67.5569C198.502 67.914 196.582 67.7125 194.84 66.978C193.098 66.2435 191.614 65.009 190.574 63.4306C189.534 61.8523 188.986 60.0009 188.998 58.1109C189.011 56.2208 189.584 54.3769 190.644 52.8124C191.705 51.2479 193.206 50.0332 194.957 49.3218C196.119 48.8489 197.362 48.6095 198.616 48.6174C199.871 48.6252 201.111 48.8802 202.267 49.3676C203.423 49.855 204.471 50.5654 205.352 51.4581C206.233 52.3509 206.93 53.4085 207.402 54.5705Z" fill="#00AC68"/>
<path d="M207.401 54.5706C207.37 54.5287 207.345 54.4831 207.325 54.435L207.123 54.0282L206.981 53.7272C206.921 53.6214 206.845 53.5056 206.772 53.3965C206.608 53.1047 206.422 52.825 206.217 52.5598C205.672 51.8214 205.019 51.1682 204.282 50.6217C202.522 49.2991 200.357 48.6296 198.158 48.728C195.958 48.8263 193.862 49.6864 192.227 51.1608C191.893 51.462 191.579 51.7846 191.288 52.1265C191.142 52.3018 191.013 52.4903 190.874 52.6722C190.732 52.8545 190.605 53.0481 190.494 53.251C190.246 53.6515 190.025 54.068 189.832 54.4978C189.653 54.9406 189.503 55.3947 189.382 55.8572C189.135 56.8097 189.042 57.7955 189.105 58.7775C189.226 60.8142 190.012 62.7548 191.344 64.3008C191.98 65.0513 192.732 65.6945 193.573 66.2058C193.982 66.4535 194.406 66.6744 194.843 66.8673C195.279 67.0436 195.727 67.1905 196.182 67.3071C196.627 67.4229 197.079 67.508 197.535 67.5618C197.982 67.6035 198.432 67.6157 198.881 67.5982C201.08 67.5156 203.182 66.673 204.829 65.2142C206.476 63.7553 207.566 61.7704 207.914 59.5977C208.064 58.6921 208.078 57.7689 207.953 56.8593C207.916 56.5247 207.855 56.1931 207.771 55.8671C207.738 55.7249 207.712 55.5926 207.679 55.4735C207.646 55.3544 207.606 55.2519 207.573 55.1428C207.517 54.9609 207.47 54.812 207.434 54.7128C207.416 54.6635 207.403 54.6126 207.394 54.5607C207.417 54.6067 207.437 54.6542 207.454 54.7029L207.613 55.1295C207.646 55.2255 207.685 55.3313 207.728 55.4603C207.771 55.5893 207.791 55.7083 207.828 55.8505C207.92 56.1756 207.987 56.5073 208.029 56.8427C208.17 57.759 208.17 58.6914 208.029 59.6077C207.85 60.8262 207.434 61.9979 206.806 63.0572C205.755 64.8589 204.144 66.2672 202.218 67.0669C200.292 67.8666 198.157 68.0137 196.139 67.4857C195.675 67.3684 195.22 67.2192 194.777 67.0392C194.329 66.8429 193.894 66.6164 193.477 66.3612C192.617 65.8427 191.847 65.1869 191.198 64.4198C189.837 62.8411 189.034 60.8583 188.913 58.7775C188.846 57.7763 188.944 56.7709 189.201 55.8009C189.321 55.3276 189.475 54.8635 189.66 54.4119C189.852 53.9743 190.073 53.55 190.322 53.1418C190.438 52.937 190.569 52.7403 190.712 52.5531C190.854 52.3646 190.99 52.1728 191.135 51.9975C191.433 51.645 191.755 51.3135 192.098 51.0053C193.381 49.8562 194.947 49.0706 196.635 48.7299C197.974 48.4616 199.354 48.4816 200.684 48.7884C202.013 49.0952 203.263 49.6818 204.348 50.5092C205.09 51.0673 205.742 51.7367 206.28 52.4936C206.482 52.764 206.663 53.0493 206.822 53.3469C206.895 53.4726 206.968 53.5883 207.024 53.6975L207.159 54.0051C207.239 54.1803 207.298 54.3193 207.345 54.4218C207.367 54.4698 207.386 54.5196 207.401 54.5706Z" fill="#263238"/>
<g opacity="0.3">
<path d="M207.37 54.6931C207.317 54.7163 207.122 54.3425 206.708 53.7208C206.126 52.8457 205.413 52.065 204.595 51.4056C204.034 50.9618 203.426 50.5804 202.782 50.2679C202.046 49.9158 201.268 49.6591 200.467 49.5039C200.03 49.4206 199.588 49.3687 199.144 49.3485C198.687 49.3272 198.23 49.3405 197.775 49.3882C197.304 49.4361 196.837 49.5213 196.379 49.6428C195.435 49.8911 194.536 50.2886 193.717 50.8202C192.934 51.3292 192.233 51.9536 191.637 52.6723C191.355 53.0095 191.1 53.3677 190.873 53.7439C190.448 54.4417 190.115 55.1908 189.88 55.9731C189.679 56.6608 189.553 57.3682 189.503 58.0831C189.436 59.129 189.532 60.1789 189.788 61.1953C189.966 61.9229 190.119 62.3198 190.059 62.3397C189.999 62.3595 189.784 62.0089 189.517 61.278C189.143 60.2472 188.965 59.156 188.991 58.06C189.006 57.2997 189.111 56.5438 189.302 55.8077C189.521 54.9627 189.855 54.1516 190.294 53.3966C190.529 52.9861 190.798 52.5956 191.097 52.2292C191.403 51.8422 191.74 51.4815 192.106 51.151C192.484 50.8056 192.888 50.4915 193.317 50.2117C193.758 49.9248 194.222 49.6727 194.702 49.4576C195.185 49.2468 195.682 49.0732 196.191 48.9384C196.686 48.8112 197.19 48.7239 197.699 48.6771C198.189 48.6282 198.683 48.6205 199.174 48.6539C199.647 48.685 200.117 48.7524 200.58 48.8557C202.186 49.1907 203.678 49.9372 204.909 51.022C205.735 51.7418 206.423 52.6072 206.936 53.5752C207.303 54.2632 207.409 54.6766 207.37 54.6931Z" fill="black"/>
</g>
<g opacity="0.3">
<path d="M203.289 52.9568H201.086L198.907 57.1108H198.351L196.036 52.9568L193.797 52.9535L196.112 57.1108H194.293V59.0654H197.203L197.465 59.5384H194.267V61.4963H197.666V65.5875H199.624V61.4963H202.971V59.5384H199.81L200.061 59.0654H202.998V57.1108H201.093L203.289 52.9568Z" fill="black"/>
</g>
<path d="M105.807 133.563C105.807 133.563 99.3212 126.098 96.8771 118.634C94.433 111.169 95.5939 112.019 95.5939 112.019C95.5939 112.019 98.9012 119.272 101.405 122.775C103.909 126.277 108.38 131.417 108.38 131.417L105.807 133.563Z" fill="#455A64"/>
<path d="M107.1 113.186C107.055 113.111 106.986 113.054 106.904 113.024C106.822 112.993 106.732 112.992 106.65 113.021C106.567 113.049 106.497 113.105 106.45 113.179C106.404 113.253 106.385 113.341 106.396 113.428C106.792 116.051 107.649 122.202 107.613 126.194C107.57 131.38 107.613 133.384 107.613 133.384H110.311C110.311 133.384 109.832 122.665 109.223 119.398C108.797 117.106 107.89 114.562 107.1 113.186Z" fill="#455A64"/>
<path d="M108.57 132.511C109.703 129.948 110.451 127.232 110.793 124.451C111.014 122.543 110.618 119.963 110.029 116.514C109.805 115.255 109.694 113.979 109.698 112.7C109.698 112.557 109.745 112.418 109.833 112.305C109.921 112.192 110.044 112.112 110.183 112.077C110.322 112.042 110.468 112.054 110.599 112.112C110.73 112.17 110.838 112.27 110.905 112.396C111.236 112.978 112.175 114.966 112.413 116.209C113.075 119.609 113.809 121.309 113.244 124.531C112.678 127.752 110.598 132.723 110.598 132.723L108.57 132.511Z" fill="#455A64"/>
<path d="M111.002 132.73C111.002 132.73 118.126 117.427 118.609 115.154C119.092 112.882 120.782 107.653 120.977 107.948C121.172 108.242 121.473 111.007 120.19 114.169C118.906 117.331 113.436 133.193 113.436 133.193H111.002" fill="#455A64"/>
<path d="M107.792 132.045C107.722 132.004 107.656 131.959 107.593 131.909C107.468 131.813 107.262 131.678 107.041 131.486C106.375 130.955 105.737 130.391 105.129 129.796C103.122 127.822 101.384 125.592 99.9599 123.164C98.5397 120.738 97.3589 118.179 96.4342 115.525C96.077 114.509 95.8158 113.676 95.6438 113.1C95.5578 112.813 95.4983 112.584 95.4553 112.439C95.4301 112.362 95.4124 112.284 95.4023 112.204C95.4355 112.277 95.4631 112.352 95.485 112.429C95.5379 112.594 95.6107 112.813 95.7033 113.09C95.8885 113.663 96.1663 114.489 96.5368 115.498C97.4876 118.137 98.6777 120.683 100.092 123.105C101.513 125.514 103.23 127.736 105.202 129.72C105.966 130.477 106.618 131.043 107.081 131.439C107.305 131.638 107.491 131.77 107.613 131.883C107.677 131.931 107.737 131.985 107.792 132.045Z" fill="#263238"/>
<path d="M108.572 124.703C108.538 124.555 108.517 124.404 108.509 124.253C108.473 123.922 108.43 123.525 108.377 123.026C108.264 121.991 108.089 120.565 107.838 118.994C107.586 117.423 107.302 116.018 107.087 114.996C106.981 114.506 106.892 114.103 106.825 113.792C106.787 113.645 106.761 113.496 106.746 113.345C106.805 113.484 106.851 113.628 106.882 113.775C106.964 114.056 107.067 114.466 107.189 114.972C107.434 115.988 107.732 117.397 107.986 118.971C108.241 120.545 108.4 121.977 108.482 123.016C108.525 123.535 108.555 123.958 108.568 124.249C108.581 124.4 108.582 124.552 108.572 124.703Z" fill="#263238"/>
<path d="M110.239 112.284C110.276 112.345 110.304 112.411 110.325 112.479C110.378 112.624 110.451 112.809 110.537 113.048C110.623 113.286 110.742 113.597 110.845 113.957C110.947 114.318 111.086 114.724 111.175 115.184L111.354 115.905C111.414 116.153 111.457 116.418 111.51 116.692C111.625 117.235 111.698 117.823 111.784 118.442C111.936 119.788 111.994 121.143 111.956 122.497C111.897 123.851 111.743 125.199 111.496 126.532C111.364 127.143 111.252 127.725 111.096 128.258C111.02 128.526 110.96 128.787 110.881 129.035C110.802 129.283 110.729 129.515 110.656 129.74C110.521 130.193 110.352 130.586 110.223 130.937C110.094 131.287 109.965 131.598 109.853 131.823C109.74 132.048 109.664 132.237 109.598 132.376C109.57 132.44 109.538 132.503 109.502 132.564C109.518 132.494 109.541 132.427 109.571 132.362L109.796 131.8C109.902 131.559 110.021 131.261 110.127 130.907C110.233 130.553 110.408 130.16 110.537 129.707C110.607 129.482 110.679 129.247 110.752 129.002C110.825 128.757 110.884 128.496 110.957 128.228C111.106 127.696 111.215 127.114 111.341 126.505C111.58 125.179 111.729 123.839 111.787 122.493C111.826 121.146 111.773 119.798 111.629 118.458C111.546 117.843 111.48 117.254 111.371 116.715C111.318 116.444 111.278 116.18 111.222 115.928C111.166 115.677 111.109 115.439 111.056 115.211C110.96 114.748 110.832 114.344 110.726 113.984C110.62 113.623 110.531 113.322 110.445 113.067C110.359 112.813 110.306 112.634 110.259 112.489C110.248 112.421 110.242 112.352 110.239 112.284Z" fill="#263238"/>
<path d="M120.909 108.255C120.91 108.278 120.91 108.301 120.909 108.325L120.875 108.523C120.846 108.698 120.806 108.956 120.737 109.284C120.598 109.945 120.369 110.891 120.012 112.039C119.655 113.186 119.172 114.539 118.597 116.008C118.021 117.476 117.353 119.103 116.721 120.823C116.09 122.543 115.584 124.213 115.121 125.734C114.658 127.256 114.221 128.618 113.798 129.746C113.471 130.638 113.096 131.512 112.673 132.362C112.528 132.667 112.395 132.891 112.309 133.047L112.21 133.222C112.2 133.242 112.188 133.261 112.174 133.278C112.174 133.278 112.174 133.255 112.197 133.216L112.283 133.034C112.359 132.872 112.481 132.643 112.614 132.336C112.898 131.731 113.275 130.838 113.689 129.706C114.102 128.575 114.522 127.216 114.975 125.691C115.428 124.167 115.924 122.49 116.569 120.77C117.214 119.05 117.872 117.436 118.454 115.958C119.037 114.48 119.533 113.14 119.9 111.989C120.267 110.838 120.515 109.905 120.667 109.251C120.746 108.92 120.796 108.669 120.836 108.497C120.856 108.42 120.872 108.354 120.882 108.301C120.889 108.285 120.898 108.27 120.909 108.255Z" fill="#263238"/>
<path d="M98.9464 104.875C98.8472 104.788 98.7227 104.736 98.5914 104.726C98.46 104.715 98.3288 104.748 98.2174 104.818C98.1059 104.888 98.02 104.993 97.9726 105.115C97.9252 105.238 97.9188 105.373 97.9542 105.5C98.1977 106.292 98.496 107.065 98.8472 107.815C99.8394 109.896 102.704 117.36 104.05 121.461C105.396 125.562 107.291 133.209 107.291 133.209L110.168 132.743C110.168 132.743 107.522 120.175 104.966 115.647C102.885 111.996 100.822 106.734 98.9464 104.875Z" fill="#455A64"/>
<path d="M104.82 124.011C104.879 124.117 104.928 124.227 104.966 124.342C105.052 124.567 105.168 124.898 105.297 125.308C105.561 126.128 105.885 127.272 106.209 128.546C106.534 129.819 106.808 130.977 106.997 131.817C107.083 132.214 107.155 132.548 107.212 132.809C107.245 132.93 107.265 133.054 107.271 133.179C107.221 133.064 107.182 132.945 107.155 132.822C107.086 132.561 106.997 132.23 106.891 131.83C106.672 130.963 106.385 129.845 106.064 128.569C105.743 127.292 105.429 126.151 105.194 125.324C105.078 124.937 104.982 124.61 104.906 124.332C104.868 124.228 104.839 124.121 104.82 124.011Z" fill="#263238"/>
<path d="M108.72 132.964C108.712 132.939 108.706 132.912 108.703 132.885L108.67 132.66C108.641 132.462 108.614 132.167 108.555 131.79C108.449 131.033 108.26 129.945 107.949 128.619C107.583 127.065 107.135 125.531 106.607 124.025C106.015 122.321 105.284 120.482 104.437 118.577C102.747 114.774 101.057 111.397 99.9456 108.904C99.3867 107.657 98.9534 106.641 98.6657 105.927C98.5202 105.576 98.4143 105.299 98.3349 105.11C98.3019 105.024 98.2754 104.951 98.2556 104.895C98.2445 104.871 98.2367 104.845 98.2324 104.819C98.2483 104.84 98.2606 104.863 98.2688 104.888C98.2953 104.945 98.325 105.014 98.3647 105.097L98.6954 105.904C98.9997 106.605 99.4495 107.614 100.018 108.851C101.153 111.334 102.856 114.698 104.549 118.508C105.39 120.416 106.127 122.262 106.712 123.972C107.239 125.489 107.681 127.035 108.035 128.602C108.276 129.653 108.461 130.716 108.591 131.787C108.644 132.167 108.66 132.448 108.68 132.663C108.68 132.756 108.68 132.832 108.7 132.892C108.71 132.915 108.717 132.939 108.72 132.964Z" fill="#263238"/>
<path d="M110.152 132.73C110.104 132.572 110.071 132.41 110.053 132.247C109.997 131.916 109.921 131.463 109.832 130.924C109.633 129.813 109.329 128.278 108.896 126.608C108.462 124.938 107.98 123.449 107.606 122.381L107.156 121.118C107.094 120.966 107.043 120.81 107.004 120.651C107.085 120.794 107.154 120.944 107.212 121.098C107.335 121.389 107.51 121.815 107.708 122.345C108.224 123.728 108.666 125.138 109.031 126.568C109.402 127.999 109.702 129.447 109.928 130.907C110.007 131.47 110.07 131.923 110.103 132.23C110.131 132.395 110.148 132.562 110.152 132.73Z" fill="#263238"/>
<path d="M116.052 132.316H104.83V145.989H116.052V132.316Z" fill="#00AC68"/>
<g opacity="0.3">
<path d="M116.05 132.316H104.828V145.989H116.05V132.316Z" fill="black"/>
</g>
<path d="M112.471 132.316H102.516V145.988H112.471V132.316Z" fill="#00AC68"/>
<path d="M169.752 87.3528L173.658 105.212L184.982 117.096L177.025 135.448L180.187 140.551C180.187 140.551 197.226 121.574 196.756 116.894C195.949 108.741 178.669 91.6457 174.782 88.4343C173.476 87.3528 169.752 87.3528 169.752 87.3528Z" fill="#FFBE9D"/>
<path d="M190.929 114.427C190.929 114.47 190.529 114.427 189.907 114.48C188.268 114.621 186.746 115.388 185.658 116.623C185.244 117.092 185.046 117.436 184.996 117.413C185.096 117.077 185.267 116.767 185.499 116.504C186.02 115.831 186.684 115.283 187.443 114.9C188.202 114.517 189.037 114.308 189.888 114.288C190.241 114.256 190.597 114.304 190.929 114.427Z" fill="#EB996E"/>
<path d="M170.208 90.1178C170.208 90.1178 173.575 100.07 173.671 105.662C173.717 108.282 172.546 123.32 172.546 131.225L178.122 145.992H131.859L136.926 129.439L132.779 99.5139L138.871 92.3569L170.208 90.1178Z" fill="#455A64"/>
<path d="M147.429 48.6273C145.6 46.8645 141.413 47.4234 140.484 48.7232C139.716 48.421 138.861 48.4258 138.096 48.7367C137.331 49.0477 136.716 49.6409 136.376 50.3934L131.968 51.6667C131.214 51.885 130.426 52.1199 129.874 52.6755C129.322 53.2311 129.11 54.2068 129.636 54.7889C128.085 55.3015 127.622 57.6894 128.865 58.7577C128.726 58.9425 128.626 59.1538 128.571 59.3787C128.516 59.6036 128.508 59.8373 128.547 60.0655C128.585 60.2938 128.67 60.5117 128.796 60.7059C128.922 60.9002 129.086 61.0666 129.279 61.1952C128.138 62.7613 127.274 64.5107 126.722 66.3678C126.494 67.1417 126.325 68.0016 126.656 68.7392C126.987 69.4767 128.015 69.9331 128.64 69.4006C128.441 69.7259 128.34 70.1016 128.349 70.4828C128.358 70.8641 128.476 71.2347 128.69 71.5504C127.933 71.6199 127.784 72.8039 128.339 73.3198C128.895 73.8358 129.745 73.8391 130.502 73.7729C131.26 73.7068 132.073 73.6109 132.725 74.0011C132.725 74.0941 132.705 74.1859 132.668 74.2712C132.631 74.3565 132.577 74.4334 132.51 74.4972C131.28 75.6416 131.028 77.4738 132.093 78.7968C132.193 78.9191 132.285 79.0283 132.364 79.1275C132.844 79.7195 133.965 80.2189 134.663 80.5265C136.436 81.307 137.441 81.0689 139.373 81.221C138.933 82.4877 142.214 85.0112 145.587 82.0975C152.801 83.5362 157.953 83.9231 165.292 83.4601C166.341 83.394 167.588 83.1691 167.991 82.2C168.854 82.372 169.744 81.9156 170.333 81.2607C170.882 80.5671 171.307 79.7839 171.59 78.9456C172.477 78.6243 173.244 78.0359 173.783 77.2612C174.323 76.4865 174.609 75.5637 174.603 74.6196C175.184 74.0956 175.65 73.4562 175.972 72.7422C176.293 72.0281 176.462 71.2551 176.468 70.4722C178.194 69.8108 179.014 67.4692 178.069 65.8816C177.548 63.7415 176.675 61.7029 175.486 59.8491C176.67 59.5184 177.017 57.8647 176.448 56.77C175.879 55.6752 174.741 55.027 173.663 54.435C174.576 54.6136 175.284 53.4428 175.009 52.5465C174.735 51.6502 173.885 51.088 173.055 50.6613C171.841 50.0381 170.556 49.564 169.228 49.2491C168.696 47.6946 166.559 46.0311 165.034 45.4258C158.883 42.9949 154.656 42.5551 147.419 48.624" fill="#263238"/>
<path d="M164.923 70.5882C165.136 70.312 165.413 70.0918 165.73 69.9466H165.664C165.722 69.925 165.782 69.9084 165.842 69.8969C165.949 69.8569 166.062 69.8383 166.176 69.8423C166.289 69.8463 166.401 69.8727 166.504 69.9201C166.89 70.0214 167.223 70.2632 167.44 70.5981C167.611 70.8971 167.698 71.2373 167.689 71.5819C167.681 71.9264 167.579 72.2622 167.394 72.5527C167.263 72.8133 167.057 73.0284 166.802 73.1695C166.547 73.3106 166.256 73.3712 165.966 73.3433C165.676 73.3153 165.401 73.2002 165.178 73.013C164.954 72.8259 164.793 72.5754 164.715 72.2948C164.602 72.0159 164.563 71.7131 164.599 71.4146C164.635 71.1162 164.747 70.8319 164.923 70.5882Z" fill="#455A64"/>
<path d="M164.791 58.9066C164.043 54.832 160.726 50.1158 156.684 51.0319L144.289 55.7746C143.696 55.9096 143.176 56.2616 142.831 56.7612C142.486 57.2608 142.34 57.8717 142.423 58.4734L146.098 85.8018C146.331 87.5287 147.153 89.1221 148.425 90.3129C149.697 91.5036 151.341 92.2187 153.079 92.3371C154.159 92.41 155.242 92.2503 156.255 91.8688C157.268 91.4873 158.187 90.8929 158.95 90.1257C159.714 89.3586 160.304 88.4365 160.68 87.4218C161.057 86.4072 161.211 85.3235 161.133 84.2441C160.994 82.3589 160.891 80.9368 160.891 80.9368C160.891 80.9368 166.038 79.4452 166.312 72.47C166.451 68.9973 165.618 63.4377 164.791 58.9066Z" fill="#FFBE9D"/>
<path d="M162.119 64.3999C162.149 64.6292 162.089 64.8614 161.95 65.0468C161.812 65.2322 161.606 65.3561 161.378 65.392C161.268 65.413 161.154 65.4119 161.045 65.3888C160.935 65.3656 160.831 65.3209 160.738 65.2572C160.646 65.1935 160.567 65.1121 160.507 65.0177C160.446 64.9234 160.405 64.8179 160.385 64.7074C160.353 64.4778 160.413 64.2447 160.552 64.0589C160.691 63.8731 160.897 63.7496 161.126 63.7152C161.237 63.6938 161.35 63.6946 161.46 63.7175C161.57 63.7405 161.674 63.7851 161.766 63.8489C161.859 63.9127 161.938 63.9943 161.998 64.0889C162.058 64.1835 162.099 64.2892 162.119 64.3999Z" fill="#263238"/>
<path d="M163.325 61.7541C163.233 61.8797 162.508 61.4663 161.563 61.5821C160.617 61.6978 159.982 62.2435 159.866 62.1476C159.81 62.1013 159.896 61.8797 160.173 61.6251C160.548 61.2933 161.016 61.0863 161.513 61.0331C162.005 60.9711 162.503 61.0685 162.935 61.3109C163.253 61.4862 163.375 61.6813 163.325 61.7541Z" fill="#263238"/>
<path d="M152.954 65.2433C152.985 65.4733 152.924 65.7063 152.785 65.892C152.646 66.0777 152.439 66.2011 152.209 66.2355C152.099 66.2574 151.986 66.2571 151.876 66.2346C151.766 66.212 151.662 66.1677 151.57 66.1042C151.477 66.0407 151.398 65.9593 151.338 65.8648C151.277 65.7704 151.236 65.6647 151.217 65.5542C151.186 65.3252 151.245 65.093 151.383 64.9075C151.521 64.722 151.726 64.5979 151.955 64.562C152.065 64.5405 152.179 64.541 152.289 64.5637C152.399 64.5864 152.503 64.6307 152.596 64.6941C152.689 64.7574 152.769 64.8386 152.83 64.9329C152.891 65.0272 152.933 65.1327 152.954 65.2433Z" fill="#263238"/>
<path d="M154.368 62.882C154.272 63.011 153.548 62.5975 152.606 62.71C151.663 62.8224 151.025 63.3715 150.909 63.2755C150.853 63.2292 150.939 63.011 151.216 62.7563C151.59 62.4227 152.058 62.2145 152.556 62.161C153.048 62.1014 153.546 62.1999 153.978 62.4421C154.292 62.6306 154.418 62.8257 154.368 62.882Z" fill="#263238"/>
<path d="M158.906 69.8307C158.906 69.7778 159.468 69.6091 160.408 69.3743C160.646 69.318 160.867 69.2453 160.887 69.0766C160.88 68.8243 160.794 68.5806 160.642 68.3787L159.713 66.6259C158.41 64.1288 157.441 62.0618 157.54 62.0121C157.639 61.9625 158.777 63.9436 160.077 66.4407C160.408 67.0591 160.695 67.6445 160.98 68.2068C161.167 68.4798 161.251 68.8102 161.218 69.1394C161.193 69.2287 161.149 69.3111 161.087 69.3804C161.026 69.4498 160.95 69.5042 160.864 69.5396C160.735 69.5928 160.599 69.6284 160.461 69.6455C159.518 69.8108 158.926 69.8836 158.906 69.8307Z" fill="#263238"/>
<path d="M160.891 80.9366C157.674 81.3676 154.401 80.8971 151.436 79.5773C151.436 79.5773 154.217 84.0157 160.99 82.5539L160.891 80.9366Z" fill="#EB996E"/>
<path d="M159.041 72.0962C158.791 71.8098 158.475 71.5884 158.121 71.4507C157.767 71.313 157.385 71.2633 157.007 71.3057C156.76 71.3377 156.525 71.4294 156.323 71.573C156.12 71.7165 155.955 71.9075 155.843 72.1292C155.72 72.385 155.678 72.6721 155.722 72.9524C155.766 73.2326 155.895 73.4928 156.09 73.6984C156.286 73.9039 156.539 74.0452 156.817 74.1034C157.095 74.1616 157.384 74.1341 157.645 74.0243C158.151 73.7909 158.593 73.4393 158.935 72.9991C159.048 72.8894 159.135 72.7561 159.19 72.6088C159.218 72.5289 159.224 72.4429 159.208 72.3597C159.191 72.2766 159.153 72.1993 159.097 72.1359" fill="#EB996E"/>
<path d="M156.211 70.8129C156.363 70.7864 156.489 71.8051 157.451 72.4368C158.413 73.0685 159.495 72.8171 159.518 72.9593C159.541 73.0222 159.3 73.1875 158.84 73.257C158.24 73.3362 157.631 73.2015 157.12 72.8767C156.63 72.5645 156.281 72.0731 156.148 71.5074C156.055 71.0841 156.141 70.8162 156.211 70.8129Z" fill="#263238"/>
<path d="M154.607 59.2935C154.544 59.5614 153.585 59.5515 152.493 59.8161C151.402 60.0807 150.539 60.4776 150.367 60.2758C150.287 60.1733 150.413 59.912 150.747 59.6144C151.193 59.2519 151.716 58.9962 152.276 58.8666C152.836 58.7371 153.418 58.7372 153.978 58.8669C154.408 58.9893 154.64 59.1646 154.607 59.2935Z" fill="#263238"/>
<path d="M163.206 58.7445C163.063 58.976 162.385 58.8305 161.602 58.9132C160.818 58.9958 160.173 59.2439 159.994 59.0223C159.915 58.9231 159.994 58.6916 160.259 58.4567C160.617 58.1628 161.057 57.9862 161.519 57.9507C161.978 57.9045 162.441 58.0028 162.842 58.2318C163.149 58.4204 163.265 58.6287 163.206 58.7445Z" fill="#263238"/>
<path d="M168.117 61.9823C168.012 60.8959 167.533 59.8799 166.761 59.1082C166.328 58.7047 165.792 58.4137 165.398 57.9705C164.552 57.0114 164.555 55.5925 164.138 54.3853C163.86 53.6061 163.401 52.9044 162.797 52.3384C162.194 51.7724 161.464 51.3585 160.669 51.1309C159.346 50.7638 157.887 50.9325 156.631 50.3802C155.705 49.9701 154.977 49.1995 154.011 48.8456C152.159 48.1576 150.148 49.2292 148.528 50.3603C148.29 51.7296 149.229 52.8309 150.128 53.8892C150.586 54.414 151.151 54.8335 151.786 55.119C152.421 55.4044 153.11 55.549 153.806 55.5429C154.884 55.5429 156.121 55.1923 156.928 55.9034C157.735 56.6145 157.59 58.0929 158.298 58.9693C159.326 60.2195 161.413 59.5613 162.868 60.2757C163.99 60.828 164.522 62.0815 165.164 63.1663C165.805 64.2511 166.817 65.3557 168.054 65.2036C168.198 64.1357 168.219 63.0549 168.117 61.9823Z" fill="#263238"/>
<path d="M151.386 52.6125C148.238 52.7986 145.155 53.5915 142.307 54.9475C141.461 55.351 140.594 55.8504 140.154 56.6806C139.771 57.4082 139.781 58.2747 139.85 59.0982C140.068 61.668 141.338 64.7405 142.496 67.0358L145.853 68.7225C148.284 67.9552 146.845 63.7616 146.557 61.6349C147.389 61.1778 148.076 60.4967 148.54 59.6689C149.004 58.8411 149.227 57.8998 149.183 56.9518C149.852 56.4397 150.397 55.7839 150.778 55.0328C151.16 54.2817 151.367 53.4546 151.386 52.6125Z" fill="#263238"/>
<path d="M145.736 67.8165C145.528 66.3514 143.702 66.1992 142.492 67.0492C141.83 67.5156 141.367 68.3721 141.572 69.9332C142.115 74.0839 146.17 72.6816 146.16 72.5592C146.15 72.4369 145.975 69.5297 145.736 67.8165Z" fill="#FFBE9D"/>
<path d="M144.686 71.1535C144.666 71.1535 144.62 71.2163 144.504 71.2858C144.342 71.3835 144.149 71.4133 143.965 71.3684C143.505 71.2659 143.046 70.6177 142.927 69.8735C142.87 69.5191 142.893 69.1566 142.993 68.8119C143.014 68.677 143.069 68.5495 143.151 68.4405C143.234 68.3316 143.342 68.2444 143.466 68.1868C143.545 68.1539 143.634 68.1501 143.716 68.1761C143.799 68.2021 143.869 68.2562 143.915 68.329C143.988 68.4348 143.972 68.5241 143.995 68.5274C144.018 68.5307 144.074 68.4448 144.018 68.2794C143.982 68.1801 143.913 68.0961 143.823 68.0413C143.697 67.97 143.549 67.951 143.409 67.9883C143.245 68.0448 143.098 68.1426 142.982 68.2724C142.866 68.4021 142.786 68.5594 142.748 68.7292C142.619 69.1121 142.585 69.5208 142.649 69.9198C142.784 70.7533 143.31 71.4776 143.939 71.5735C144.057 71.5926 144.178 71.5847 144.292 71.5503C144.407 71.516 144.512 71.456 144.6 71.375C144.686 71.256 144.703 71.1601 144.686 71.1535Z" fill="#EB996E"/>
<path d="M142.427 72.2583C142.641 71.9828 142.917 71.7628 143.234 71.6166H143.168C143.226 71.5955 143.286 71.5789 143.346 71.567C143.455 71.5247 143.571 71.5049 143.688 71.5089C143.804 71.5129 143.919 71.5405 144.024 71.5902C144.41 71.6914 144.744 71.9333 144.96 72.2682C145.132 72.5672 145.218 72.9074 145.21 73.252C145.202 73.5965 145.099 73.9323 144.914 74.2228C144.784 74.4834 144.577 74.6985 144.323 74.8396C144.068 74.9807 143.776 75.0413 143.486 75.0134C143.196 74.9854 142.921 74.8703 142.698 74.6831C142.475 74.496 142.313 74.2455 142.235 73.9649C142.121 73.6871 142.079 73.3853 142.113 73.087C142.146 72.7888 142.254 72.5038 142.427 72.2583Z" fill="#455A64"/>
<path d="M144.355 72.9395V72.9957C144.35 73.0528 144.335 73.1086 144.312 73.1611C144.218 73.363 144.058 73.5273 143.859 73.6274C143.544 73.7932 143.198 73.8923 142.843 73.9184C142.623 73.9395 142.402 73.9395 142.182 73.9184C141.927 73.9021 141.675 73.8451 141.438 73.7498L141.484 73.7233C141.453 74.0803 141.329 74.423 141.126 74.7182C140.922 75.0133 140.646 75.2509 140.324 75.4077C140.002 75.5645 139.644 75.6352 139.287 75.6131C138.929 75.5909 138.583 75.4765 138.283 75.2811L138.352 75.2645C138.239 75.4625 138.053 75.6076 137.833 75.668C137.612 75.7341 137.376 75.7341 137.155 75.668C136.924 75.602 136.722 75.4612 136.579 75.2678C136.438 75.0727 136.347 74.8454 136.315 74.6064C136.261 74.1054 136.387 73.6017 136.669 73.1842C136.96 72.7606 137.302 72.3741 137.687 72.0333V72.1292C137.506 72.0323 137.348 71.8988 137.221 71.737C137.095 71.5753 137.003 71.3889 136.953 71.1899C136.842 70.7835 136.853 70.3535 136.983 69.9529C137.132 69.5493 137.356 69.1778 137.644 68.8582C137.934 68.5373 138.243 68.2346 138.57 67.952V68.038C138.409 67.887 138.282 67.7039 138.196 67.5005C138.11 67.2972 138.067 67.0781 138.071 66.8573C138.068 66.4044 138.2 65.9609 138.451 65.584C138.937 64.863 139.688 64.4264 140.379 64.0163L140.35 64.0924C140.21 63.6661 140.175 63.2122 140.249 62.7697C140.323 62.3271 140.503 61.9091 140.774 61.5514C141.045 61.1937 141.398 60.9071 141.804 60.716C142.21 60.5249 142.656 60.4351 143.105 60.4543L143.045 60.5304C142.952 60.1771 142.941 59.8072 143.012 59.4489C143.084 59.0906 143.237 58.7535 143.459 58.4633C143.653 58.1855 143.906 57.953 144.198 57.7817C144.491 57.6105 144.818 57.5045 145.155 57.4711L145.109 57.5273C145.092 57.1722 145.156 56.8178 145.296 56.4911C145.437 56.1644 145.65 55.8741 145.919 55.6421C146.148 55.4306 146.417 55.2674 146.71 55.1622C147.003 55.0571 147.315 55.0122 147.626 55.0303L147.583 55.0766C147.578 54.696 147.666 54.32 147.841 53.9819C147.986 53.6816 148.181 53.4077 148.416 53.1716C148.783 52.7848 149.268 52.5311 149.795 52.4506L149.954 52.4274H150.1C150.189 52.4221 150.278 52.4221 150.368 52.4274C150.504 52.4446 150.639 52.4722 150.771 52.5101L151.013 52.5928L151.092 52.6226C151.064 52.6204 151.036 52.6137 151.009 52.6027L150.768 52.5333C150.635 52.4995 150.5 52.4752 150.364 52.4605C150.276 52.4554 150.188 52.4554 150.1 52.4605H149.958L149.802 52.4836C149.294 52.5735 148.83 52.8267 148.479 53.2046C148.251 53.4387 148.063 53.7092 147.924 54.005C147.758 54.3319 147.674 54.6938 147.679 55.0601V55.1064H147.632C147.333 55.0897 147.034 55.1342 146.752 55.2371C146.471 55.34 146.213 55.4992 145.995 55.705C145.739 55.9283 145.536 56.2068 145.403 56.5195C145.269 56.8322 145.209 57.1711 145.225 57.5108V57.5637H145.175C144.853 57.5977 144.542 57.7007 144.264 57.8656C143.985 58.0305 143.746 58.2536 143.561 58.5195C143.347 58.7976 143.2 59.1214 143.132 59.4656C143.064 59.8099 143.076 60.1652 143.168 60.5039L143.191 60.5833H143.108C142.678 60.5612 142.249 60.6444 141.858 60.8258C141.467 61.0072 141.127 61.2812 140.866 61.6241C140.605 61.967 140.432 62.3683 140.362 62.7933C140.291 63.2182 140.326 63.654 140.462 64.0626L140.479 64.1089L140.436 64.1354C139.744 64.5455 139.014 64.9754 138.551 65.6667C138.314 66.0221 138.188 66.4401 138.19 66.8672C138.186 67.07 138.224 67.2714 138.303 67.4583C138.381 67.6452 138.498 67.8135 138.646 67.952L138.703 67.9983L138.646 68.0446C138.008 68.6168 137.363 69.2154 137.102 69.9926C136.979 70.3697 136.97 70.7745 137.075 71.1568C137.119 71.3395 137.2 71.511 137.314 71.6602C137.428 71.8095 137.572 71.9332 137.737 72.0233L137.813 72.0597L137.753 72.1193C137.378 72.4522 137.045 72.8298 136.761 73.2437C136.495 73.6404 136.378 74.1184 136.431 74.5931C136.445 74.8152 136.525 75.0281 136.66 75.2047C136.796 75.3813 136.98 75.5138 137.191 75.5853C137.382 75.6592 137.593 75.6667 137.789 75.6068C137.985 75.5468 138.155 75.4228 138.273 75.2546L138.296 75.2083L138.342 75.2348C138.656 75.4368 139.019 75.5481 139.392 75.5563C139.765 75.5645 140.133 75.4692 140.456 75.2811C140.723 75.1173 140.949 74.8944 141.117 74.6295C141.285 74.3647 141.39 74.0648 141.425 73.7531V73.7068L141.468 73.7233C141.699 73.8177 141.943 73.8746 142.192 73.892C142.412 73.9134 142.633 73.9134 142.853 73.892C143.199 73.8694 143.536 73.7784 143.846 73.6241C144.042 73.529 144.201 73.3721 144.299 73.1776C144.355 73.0188 144.355 72.9395 144.355 72.9395Z" fill="#455A64"/>
<path d="M128.148 69.6421C128.081 69.5681 128.022 69.4872 127.973 69.4007C127.825 69.1534 127.73 68.8789 127.691 68.5937C127.626 68.1378 127.712 67.673 127.936 67.2708C128.088 67.0017 128.294 66.7674 128.542 66.5829C128.79 66.3984 129.074 66.2677 129.375 66.1992L129.345 66.2521C129.154 65.5541 129.234 64.8096 129.57 64.1685C129.751 63.8085 130.008 63.4924 130.324 63.2424C130.669 63 131.037 62.7918 131.422 62.6207C131.613 62.5253 131.789 62.4027 131.945 62.2569C132.095 62.1036 132.208 61.9181 132.275 61.7145C132.431 61.3044 132.454 60.8248 132.659 60.3915C132.876 59.9347 133.225 59.5532 133.66 59.2962C134.096 59.0392 134.598 58.9185 135.103 58.9495L135.037 59.0223C134.929 58.5213 134.937 58.0021 135.061 57.5047C135.185 57.0073 135.421 56.545 135.752 56.1533C136.082 55.7617 136.498 55.4511 136.968 55.2455C137.438 55.0399 137.948 54.9448 138.46 54.9675L138.394 55.0436C138.293 54.4919 138.353 53.9229 138.565 53.4038C138.777 52.8847 139.133 52.4371 139.591 52.1138C140.05 51.7904 140.591 51.6049 141.151 51.579C141.711 51.5532 142.267 51.688 142.753 51.9678H142.687C143.073 51.5407 143.547 51.2022 144.076 50.9756C144.545 50.7619 145.04 50.6096 145.548 50.5225C146.369 50.375 147.21 50.375 148.032 50.5225C148.559 50.6068 149.07 50.7766 149.543 51.0252C149.668 51.0898 149.787 51.1638 149.9 51.2468C149.98 51.2997 150.016 51.3295 150.016 51.3295C150.016 51.3295 149.851 51.2203 149.526 51.0516C149.051 50.8184 148.542 50.6599 148.018 50.582C147.204 50.4508 146.374 50.4643 145.564 50.6217C145.065 50.7104 144.579 50.8638 144.119 51.0781C143.601 51.3068 143.14 51.6453 142.766 52.0703L142.736 52.1034L142.7 52.0802C142.233 51.8135 141.699 51.6858 141.161 51.712C140.624 51.7381 140.105 51.9171 139.666 52.228C139.226 52.5388 138.885 52.9685 138.681 53.4667C138.478 53.9648 138.42 54.5107 138.516 55.0403V55.1163H138.437C137.943 55.0925 137.45 55.1825 136.997 55.3795C136.543 55.5765 136.141 55.8752 135.821 56.2524C135.502 56.6297 135.273 57.0754 135.153 57.5551C135.033 58.0348 135.025 58.5357 135.13 59.019L135.149 59.1017H135.063C134.585 59.0754 134.11 59.1915 133.698 59.4352C133.286 59.6789 132.956 60.0393 132.748 60.4709C132.553 60.8909 132.527 61.3639 132.361 61.7938C132.284 62.0128 132.157 62.2109 131.991 62.3726C131.827 62.5261 131.642 62.6553 131.442 62.7563C131.06 62.9218 130.696 63.1246 130.354 63.3615C130.049 63.6002 129.801 63.9028 129.626 64.2479C129.297 64.867 129.214 65.5872 129.391 66.2653V66.3083H129.348C129.056 66.3715 128.781 66.4951 128.539 66.6711C128.298 66.8471 128.096 67.0716 127.946 67.3303C127.722 67.7221 127.632 68.1759 127.688 68.6235C127.722 68.9053 127.81 69.1781 127.946 69.4272C128.092 69.5594 128.148 69.6388 128.148 69.6421Z" fill="#455A64"/>
<path d="M168.091 67.8661C168.061 67.817 168.042 67.7623 168.034 67.7053C168.027 67.6483 168.032 67.5904 168.048 67.5354C168.089 67.3975 168.164 67.2723 168.266 67.1716C168.41 67.041 168.579 66.9409 168.762 66.8772C168.988 66.798 169.201 66.6866 169.394 66.5465C169.606 66.3641 169.753 66.1182 169.814 65.8453C169.887 65.5296 169.899 65.2031 169.851 64.8829C169.811 64.5521 169.728 64.1784 169.702 63.7881C169.636 63.001 169.913 62.1742 170.052 61.2878C170.129 60.8308 170.114 60.3633 170.009 59.912C169.957 59.6764 169.855 59.4548 169.71 59.2624C169.564 59.07 169.379 58.9114 169.166 58.7974C168.686 58.6054 168.184 58.4743 167.671 58.4071C167.398 58.3541 167.136 58.2545 166.897 58.1128C166.656 57.9585 166.458 57.7458 166.322 57.4943C166.081 56.9795 165.894 56.4407 165.766 55.8869C165.688 55.6145 165.571 55.3548 165.419 55.1163C165.26 54.8827 165.027 54.7092 164.757 54.6235C164.374 54.5496 163.983 54.524 163.593 54.5475C163.39 54.5478 163.189 54.5131 162.998 54.4449C162.806 54.3718 162.638 54.2498 162.508 54.0911C162.29 53.7717 162.117 53.4232 161.996 53.0559C161.865 52.7163 161.663 52.4086 161.404 52.153C161.158 51.9078 160.864 51.7161 160.541 51.5897C160.218 51.4634 159.872 51.4052 159.525 51.4187C158.875 51.4505 158.261 51.7256 157.805 52.1894L157.752 52.2423L157.716 52.1761C157.44 51.6801 157.061 51.249 156.605 50.9118C156.149 50.5746 155.625 50.3392 155.07 50.2215C154.608 50.124 154.132 50.1173 153.668 50.2016C153.273 50.2677 152.893 50.4043 152.547 50.6051C151.929 50.9704 151.461 51.542 151.224 52.2191C151.207 52.2536 151.193 52.2889 151.181 52.325L151.164 52.3613C151.164 52.3613 151.164 52.3613 151.164 52.3216C151.164 52.282 151.187 52.2588 151.2 52.2125C151.244 52.0696 151.298 51.9303 151.363 51.7958C151.61 51.2779 152.005 50.8443 152.497 50.5489C152.849 50.3403 153.235 50.1969 153.638 50.1256C154.111 50.033 154.597 50.033 155.07 50.1256C155.637 50.2447 156.171 50.4833 156.638 50.8255C157.106 51.1677 157.494 51.6056 157.779 52.11H157.693C158.167 51.6224 158.809 51.3328 159.489 51.2997C159.852 51.2852 160.214 51.3455 160.552 51.4769C160.891 51.6084 161.198 51.8081 161.456 52.0637C161.728 52.3307 161.94 52.6519 162.078 53.0063C162.196 53.3589 162.363 53.693 162.574 53.9985C162.697 54.1385 162.851 54.2486 163.023 54.3203C163.195 54.3919 163.381 54.4233 163.567 54.4119C163.967 54.3863 164.37 54.413 164.764 54.4912C165.058 54.5863 165.312 54.7773 165.485 55.0336C165.646 55.2816 165.769 55.5526 165.849 55.8373C165.975 56.3828 166.158 56.9137 166.394 57.4215C166.52 57.6564 166.703 57.8556 166.927 58.0003C167.154 58.133 167.403 58.2269 167.661 58.2781C168.184 58.3485 168.696 58.484 169.186 58.6816C169.419 58.8013 169.62 58.9761 169.771 59.191C169.914 59.3987 170.018 59.6307 170.079 59.8756C170.189 60.3408 170.202 60.8237 170.118 61.2944C169.973 62.194 169.695 63.0076 169.755 63.7749C169.778 64.1553 169.857 64.5158 169.894 64.863C169.943 65.1936 169.927 65.5306 169.847 65.8552C169.779 66.1408 169.622 66.397 169.397 66.5862C169.194 66.7283 168.971 66.8397 168.736 66.9169C168.555 66.9733 168.388 67.0681 168.246 67.1947C168.147 67.2848 168.072 67.3986 168.028 67.5254C168.007 67.6428 168.029 67.7641 168.091 67.8661Z" fill="#455A64"/>
<path d="M175.708 60.8215L175.662 60.7487L175.53 60.5238L175.033 59.6507C174.815 59.2737 174.57 58.7974 174.226 58.2848C173.866 57.6881 173.344 57.2054 172.722 56.8924C172.371 56.7336 171.974 56.641 171.571 56.4955C171.361 56.4242 171.161 56.3264 170.975 56.2045C170.782 56.0736 170.623 55.8977 170.512 55.6918C170.284 55.2718 170.241 54.7823 170.049 54.349C169.962 54.1275 169.808 53.9382 169.609 53.8066C169.394 53.6821 169.159 53.5938 168.915 53.5454C168.656 53.4937 168.402 53.4173 168.157 53.3172C167.9 53.2038 167.686 53.0115 167.546 52.7681C167.258 52.282 167.215 51.7098 167.073 51.1806C167.013 50.9119 166.901 50.6578 166.742 50.4332C166.569 50.2191 166.32 50.0804 166.047 50.0462C165.492 49.9734 164.916 50.2083 164.301 50.1553C163.991 50.1248 163.699 49.9962 163.468 49.7882C163.251 49.5911 163.059 49.3691 162.895 49.1268C162.739 48.8887 162.569 48.6601 162.386 48.4422C162.212 48.2266 161.984 48.0612 161.725 47.9626C161.212 47.7708 160.656 47.9328 160.154 48.0916C159.653 48.2874 159.116 48.3731 158.579 48.3429C158.077 48.2551 157.596 48.0769 157.157 47.8171C156.752 47.578 156.325 47.3797 155.881 47.2251C155.063 47.0142 154.201 47.0487 153.403 47.3243C152.742 47.5463 152.139 47.9149 151.641 48.4025C151.269 48.7763 150.957 49.2046 150.715 49.6725C150.568 49.972 150.445 50.2828 150.347 50.6018L150.268 50.8499C150.262 50.8788 150.252 50.9066 150.238 50.9326C150.24 50.9031 150.247 50.8741 150.258 50.8466C150.258 50.7837 150.295 50.6978 150.324 50.5919C150.411 50.2677 150.527 49.9521 150.672 49.6493C150.907 49.1719 151.216 48.7345 151.588 48.3529C152.091 47.8518 152.702 47.4718 153.374 47.2416C154.189 46.9528 155.072 46.9114 155.91 47.1225C156.362 47.2785 156.797 47.4778 157.21 47.7178C157.637 47.968 158.105 48.1404 158.593 48.2272C159.113 48.2551 159.634 48.1682 160.117 47.9725C160.379 47.8866 160.646 47.8203 160.918 47.7741C161.203 47.7255 161.495 47.7506 161.768 47.8468C162.042 47.9556 162.284 48.1319 162.472 48.3595C162.664 48.5778 162.823 48.8192 162.991 49.054C163.148 49.2954 163.332 49.5175 163.54 49.7155C163.754 49.9039 164.021 50.0197 164.304 50.0462C164.877 50.0991 165.452 49.8643 166.057 49.9404C166.362 49.9784 166.64 50.1339 166.831 50.3736C167.002 50.6101 167.123 50.8791 167.185 51.1641C167.327 51.7098 167.377 52.272 167.642 52.7251C167.772 52.9454 167.967 53.1199 168.2 53.2246C168.438 53.3233 168.685 53.3986 168.938 53.4494C169.193 53.5007 169.438 53.5946 169.662 53.7273C169.88 53.8705 170.049 54.0772 170.145 54.3193C170.344 54.779 170.383 55.2652 170.598 55.6587C170.821 56.0282 171.176 56.2999 171.59 56.4194C171.984 56.565 172.388 56.6609 172.748 56.8262C173.381 57.1517 173.91 57.6492 174.273 58.2616C174.603 58.7842 174.851 59.2538 175.063 59.6441L175.539 60.5271L175.658 60.7586C175.677 60.7777 175.694 60.7988 175.708 60.8215Z" fill="#455A64"/>
<path d="M170.955 56.7931L171.031 56.7766C171.107 56.7675 171.185 56.7789 171.256 56.8096C171.386 56.8798 171.497 56.9811 171.579 57.1046C171.661 57.2281 171.711 57.3699 171.725 57.5174C171.74 57.728 171.724 57.9396 171.679 58.1458C171.626 58.3855 171.608 58.6318 171.626 58.8767C171.675 59.1519 171.794 59.4095 171.973 59.6242C172.155 59.8623 172.38 60.0938 172.565 60.3816C172.674 60.5293 172.747 60.7003 172.779 60.8811C172.81 61.0618 172.799 61.2475 172.747 61.4234C172.641 61.7872 172.417 62.1047 172.304 62.4751C172.223 62.8658 172.294 63.2728 172.502 63.6128C172.691 63.9799 172.952 64.3338 173.141 64.7439C173.242 64.9511 173.304 65.1754 173.323 65.4054C173.337 65.644 173.301 65.8829 173.217 66.1065C173.019 66.5425 172.782 66.9598 172.509 67.3534C172.232 67.7465 172.114 68.2296 172.178 68.7061C172.325 69.185 172.528 69.6447 172.784 70.0753C172.9 70.3114 172.972 70.5671 172.995 70.8294C173.005 71.0915 172.957 71.3525 172.853 71.5934C172.631 72.0383 172.358 72.4557 172.039 72.837C171.743 73.1999 171.525 73.6198 171.398 74.0706C171.317 74.5185 171.207 74.9604 171.067 75.3935C170.983 75.6053 170.852 75.7952 170.683 75.9492C170.515 76.0922 170.322 76.2042 170.115 76.2799C169.923 76.3527 169.735 76.4355 169.552 76.5279C169.383 76.6278 169.229 76.7502 169.093 76.8917C168.847 77.1774 168.64 77.4944 168.477 77.8343C168.309 78.1651 168.147 78.4759 167.971 78.7637C167.654 79.2938 167.172 79.7059 166.599 79.9378C166.171 80.1152 165.709 80.1943 165.246 80.1693C164.956 80.1522 164.671 80.0909 164.4 79.9874C164.305 79.9504 164.213 79.9062 164.125 79.8551C164.481 80.0096 164.862 80.0992 165.249 80.1197C165.703 80.1367 166.155 80.0519 166.572 79.8716C167.126 79.6396 167.59 79.2347 167.895 78.7174C168.071 78.433 168.226 78.1155 168.388 77.788C168.554 77.4388 168.765 77.113 169.017 76.819C169.159 76.6691 169.321 76.5399 169.499 76.4353C169.684 76.3366 169.875 76.2504 170.072 76.1774C170.267 76.1065 170.448 76.0025 170.607 75.8698C170.763 75.726 170.883 75.5483 170.958 75.3505C171.098 74.9176 171.209 74.4756 171.289 74.0276C171.417 73.5604 171.643 73.1255 171.95 72.751C172.262 72.3765 172.53 71.9669 172.747 71.5306C172.845 71.3078 172.889 71.0655 172.876 70.8228C172.855 70.5765 172.788 70.3363 172.678 70.115C172.416 69.6757 172.209 69.2059 172.063 68.716C172.016 68.4613 172.032 68.1993 172.109 67.952C172.187 67.7198 172.292 67.4977 172.423 67.2906C172.692 66.9031 172.925 66.4925 173.121 66.0635C173.204 65.8534 173.239 65.6274 173.223 65.4021C173.207 65.1839 173.15 64.9707 173.055 64.7737C172.873 64.3768 172.615 64.0229 172.423 63.6426C172.201 63.2781 172.129 62.842 172.221 62.4255C172.334 62.0319 172.572 61.7177 172.674 61.3771C172.724 61.2145 172.734 61.0427 172.706 60.8753C172.678 60.7078 172.612 60.549 172.512 60.4113C172.334 60.1335 172.112 59.8987 171.93 59.6539C171.745 59.4256 171.622 59.1533 171.573 58.8635C171.56 58.6125 171.582 58.3608 171.639 58.116C171.687 57.9158 171.706 57.7098 171.696 57.5042C171.685 57.3629 171.64 57.2264 171.565 57.1061C171.49 56.9858 171.387 56.8852 171.266 56.8129C171.166 56.7765 171.058 56.7696 170.955 56.7931Z" fill="#455A64"/>
<path d="M128.243 69.4966C128.133 69.509 128.022 69.509 127.912 69.4966C127.591 69.4578 127.282 69.3506 127.006 69.1824C126.557 68.9204 126.214 68.5097 126.037 68.0215C125.922 67.6967 125.88 67.3505 125.914 67.0076C125.947 66.6647 126.056 66.3334 126.232 66.0371C126.456 65.7068 126.713 65.3999 126.999 65.121C127.312 64.83 127.554 64.4714 127.707 64.0726C127.82 63.6268 127.762 63.1551 127.545 62.7497C127.353 62.3131 127.075 61.8964 126.883 61.4267C126.675 60.895 126.581 60.3257 126.606 59.7553C126.63 59.1848 126.774 58.6259 127.028 58.1143C127.281 57.6027 127.639 57.1497 128.078 56.7843C128.516 56.419 129.027 56.1494 129.576 55.9928L129.543 56.0953C129.332 55.8381 129.185 55.5342 129.116 55.209C129.052 54.8813 129.052 54.5444 129.116 54.2168C129.177 53.8834 129.295 53.5632 129.467 53.2709C129.647 52.977 129.869 52.7116 130.128 52.4837C130.897 51.8455 131.802 51.3928 132.774 51.1608C133.685 50.9176 134.626 50.8063 135.569 50.83L135.506 50.8929C135.49 50.4972 135.553 50.1023 135.693 49.7317C135.833 49.3611 136.045 49.0223 136.318 48.7354C136.591 48.4485 136.919 48.2194 137.282 48.0617C137.645 47.9039 138.037 47.8207 138.433 47.8171C138.908 47.8349 139.378 47.9218 139.828 48.075C140.044 48.1354 140.266 48.1699 140.49 48.1776C140.703 48.1778 140.913 48.1386 141.112 48.0618C141.491 47.9005 141.849 47.6928 142.177 47.4433C142.49 47.2148 142.831 47.027 143.192 46.8844C143.528 46.7606 143.88 46.6871 144.237 46.6661C144.844 46.623 145.453 46.7369 146.003 46.9969C146.41 47.1964 146.775 47.4701 147.081 47.8038C147.273 48.0114 147.438 48.2413 147.574 48.4885C147.621 48.5728 147.661 48.6601 147.697 48.7497C147.697 48.7497 147.65 48.6637 147.554 48.4984C147.411 48.2602 147.243 48.0384 147.052 47.8369C146.743 47.5149 146.379 47.2515 145.977 47.0597C145.436 46.802 144.838 46.6881 144.24 46.729C143.892 46.7533 143.549 46.8279 143.222 46.9506C142.869 47.0924 142.535 47.2792 142.23 47.5062C141.896 47.761 141.533 47.9742 141.148 48.1412C140.938 48.2256 140.713 48.2672 140.487 48.2636C140.257 48.2586 140.03 48.2253 139.809 48.1643C139.368 48.0144 138.908 47.9297 138.443 47.913C137.955 47.9215 137.477 48.0523 137.054 48.2933C136.604 48.5541 136.235 48.9324 135.985 49.3876C135.735 49.8427 135.614 50.3575 135.635 50.8764V50.9425H135.569C134.638 50.9202 133.709 51.0315 132.81 51.2732C131.854 51.4953 130.962 51.9356 130.204 52.5598C129.958 52.7787 129.747 53.0328 129.576 53.3139C129.413 53.5941 129.301 53.9009 129.245 54.2201C129.185 54.5325 129.185 54.8535 129.245 55.166C129.31 55.4707 129.447 55.7554 129.645 55.9961L129.708 56.0722L129.615 56.0986C129.081 56.2484 128.584 56.5086 128.157 56.8623C127.729 57.2161 127.381 57.6555 127.134 58.1523C126.886 58.649 126.746 59.1921 126.722 59.7464C126.698 60.3008 126.79 60.854 126.993 61.3705C127.171 61.8401 127.446 62.2602 127.654 62.6934C127.876 63.1162 127.934 63.6064 127.816 64.0693C127.658 64.4813 127.406 64.8514 127.082 65.1508C126.797 65.4235 126.541 65.725 126.318 66.0504C126.145 66.3372 126.037 66.6585 126.001 66.9917C125.966 67.3248 126.004 67.6617 126.113 67.9786C126.283 68.4569 126.612 68.8621 127.046 69.1262C127.315 69.2957 127.617 69.4082 127.932 69.4569C128.147 69.4966 128.246 69.49 128.243 69.4966Z" fill="#263238"/>
<path d="M172.211 53.8165C172.201 53.7913 172.195 53.7644 172.194 53.7371L172.155 53.5023C172.118 53.2906 172.069 52.993 172.003 52.6093C171.936 52.2257 171.844 51.7494 171.698 51.2136C171.539 50.6027 171.309 50.0123 171.014 49.4541C170.655 48.7811 170.156 48.1925 169.552 47.7277C169.213 47.475 168.835 47.2785 168.434 47.1456C167.998 47.0297 167.557 46.937 167.111 46.8678C166.631 46.7948 166.17 46.6309 165.752 46.3849C165.332 46.1024 164.949 45.7692 164.611 45.3927C164.26 45.0256 163.923 44.6387 163.536 44.2914C163.15 43.9356 162.701 43.6542 162.213 43.4612C161.233 43.1123 160.191 42.9693 159.154 43.0412C158.184 43.0789 157.219 43.1895 156.266 43.3719C154.642 43.6633 153.077 44.2221 151.636 45.0256C150.672 45.5734 149.801 46.2712 149.056 47.0927C148.927 47.2415 148.808 47.3672 148.725 47.4863C148.643 47.6053 148.56 47.7079 148.494 47.7905L148.352 47.9791L148.299 48.0386C148.31 48.0145 148.324 47.9913 148.339 47.9691L148.474 47.7773L148.696 47.4631C148.788 47.3407 148.904 47.2118 149.026 47.0596C149.765 46.2201 150.635 45.5064 151.603 44.9462C153.041 44.1256 154.606 43.551 156.233 43.2463C157.192 43.0619 158.164 42.9514 159.14 42.9155C160.195 42.8377 161.254 42.9819 162.249 43.3389C162.751 43.5383 163.212 43.8287 163.609 44.1955C164.002 44.546 164.339 44.9396 164.69 45.3034C165.019 45.6687 165.392 45.9909 165.801 46.2626C166.207 46.5058 166.656 46.6676 167.124 46.7388C167.57 46.8073 168.012 46.9023 168.447 47.0232C168.859 47.1614 169.247 47.3646 169.595 47.6252C170.208 48.1027 170.712 48.7061 171.073 49.3946C171.363 49.9609 171.585 50.5592 171.735 51.1772C171.874 51.7196 171.956 52.1959 172.019 52.5862C172.082 52.9764 172.122 53.2774 172.145 53.4825C172.145 53.5817 172.165 53.6577 172.171 53.7173C172.19 53.7478 172.204 53.7814 172.211 53.8165Z" fill="#263238"/>
<path d="M173.128 90.8323C173.128 90.8323 172.136 87.0917 171.805 87.0917L161.34 84.4458C161.34 84.4458 157.759 88.3915 153.535 87.9483C149.312 87.5051 145.875 84.049 145.875 84.049L134.21 86.8337C133.367 87.0024 131.822 87.5382 130.351 89.6449C128.697 91.9931 120.045 104.227 120.045 104.227L133.476 110.66L173.683 104.296L173.128 90.8323Z" fill="#455A64"/>
<path d="M171.805 87.0914C171.805 87.0914 175.37 87.4552 179.742 92.0822C182.011 94.4965 188.308 101.111 188.308 101.111L176.402 112.247L171.805 105.156L171.901 92.9653L171.805 87.0914Z" fill="#455A64"/>
<path d="M119.76 90.7329C119.522 90.5411 120.567 86.7244 120.567 86.7244C120.567 86.7244 117.799 82.4414 117.726 81.059C117.653 79.6765 118.817 76.8454 118.817 76.8454L126.755 74.9106C126.755 74.9106 129.305 79.3987 129.811 80.9895C130.317 82.5803 128.938 87.968 128.938 87.968L127.595 90.7329C127.595 90.7329 123.54 93.7723 119.76 90.7329Z" fill="#FFBE9D"/>
<path d="M117.743 81.8858C117.433 81.3444 117.153 80.7857 116.907 80.2123C116.407 79.0812 115.789 77.9732 116.907 77.3415C117.083 77.2316 117.281 77.1587 117.486 77.1275C117.692 77.0962 117.902 77.1071 118.104 77.1596C118.104 77.1596 117.932 76.2104 118.53 75.8532C118.707 75.7491 118.904 75.6862 119.108 75.669C119.312 75.6518 119.517 75.6809 119.708 75.754C119.708 75.754 119.516 74.4112 120.369 73.8424C120.698 73.6395 121.074 73.5272 121.459 73.5167C121.845 73.5063 122.227 73.5981 122.565 73.7828C122.565 73.7828 121.884 67.9057 121.825 67.5948C121.606 66.4538 122.053 65.4417 123.25 65.7229C123.69 65.8254 123.935 66.2653 124.447 68.1802C124.96 70.0952 125.79 73.3595 125.79 73.3595C125.79 73.3595 127.182 75.6746 127.841 76.9049C128.499 78.1353 129.799 80.9895 129.908 81.7403C130.189 83.685 128.988 86.2581 128.988 86.2581L120.558 86.7244C120.558 86.7244 118.064 82.4414 117.743 81.8858Z" fill="#FFBE9D"/>
<path d="M118.27 77.4144C118.513 77.6853 118.734 77.975 118.931 78.2809L119.593 79.2434C119.731 79.433 119.853 79.6345 119.957 79.8453C120.075 80.0816 120.11 80.3507 120.056 80.6093C120.028 80.7464 119.964 80.8735 119.87 80.9776C119.776 81.0817 119.657 81.1589 119.523 81.2013C119.268 81.263 119 81.2313 118.766 81.112C118.568 81.0203 118.38 80.9095 118.204 80.7813C118.038 80.6688 117.873 80.5597 117.751 80.4506C117.476 80.2488 117.264 80.0768 117.119 79.9511C116.973 79.8255 116.904 79.7527 116.911 79.7428C116.917 79.7329 117.261 79.9776 117.823 80.3579C118.139 80.5841 118.47 80.7864 118.816 80.9632C119.014 81.0606 119.239 81.0863 119.454 81.0359C119.559 81.0017 119.652 80.9395 119.724 80.8562C119.797 80.7729 119.845 80.6716 119.864 80.563C119.91 80.3391 119.88 80.1062 119.778 79.9015C119.684 79.6987 119.573 79.504 119.447 79.3194L118.812 78.3272C118.607 78.0383 118.425 77.733 118.27 77.4144Z" fill="#EB996E"/>
<path d="M125.173 78.1121C125.098 77.6922 125.129 77.2604 125.262 76.8553C125.339 76.4321 125.52 76.0345 125.788 75.6978C125.834 75.7176 125.599 76.2302 125.434 76.895C125.268 77.5598 125.239 78.1121 125.173 78.1121Z" fill="#EB996E"/>
<path d="M128.529 79.832C127.739 79.1088 126.761 78.6237 125.707 78.433C124.648 78.239 123.566 78.2 122.496 78.3173C121.636 78.39 120.657 78.6017 120.267 79.3293C119.877 80.0569 120.35 81.0458 121.11 81.4791C121.871 81.9123 122.81 81.9256 123.693 81.8495C124.576 81.7734 125.469 81.618 126.339 81.747" fill="#FFBE9D"/>
<path d="M126.343 81.7467C126.343 81.7467 126.104 81.7269 125.681 81.7302C125.258 81.7335 124.639 81.803 123.875 81.8923C123.455 81.9429 123.032 81.9606 122.609 81.9452C122.117 81.9335 121.633 81.8209 121.186 81.6144C120.698 81.3764 120.32 80.9595 120.131 80.4503C120.034 80.1836 120.013 79.8947 120.072 79.6168C120.145 79.3266 120.308 79.0671 120.538 78.876C121.012 78.5297 121.573 78.3224 122.159 78.2773C122.69 78.2175 123.225 78.1877 123.76 78.1881C124.668 78.1723 125.574 78.3018 126.442 78.5717C127.02 78.7555 127.565 79.0338 128.052 79.3952C128.181 79.4981 128.304 79.6086 128.42 79.726C128.499 79.8053 128.535 79.8483 128.532 79.855C128.529 79.8616 128.357 79.6995 128.009 79.4614C127.515 79.1276 126.973 78.8701 126.402 78.6974C125.543 78.4513 124.65 78.3398 123.756 78.3667C123.228 78.3696 122.7 78.4028 122.175 78.4659C121.625 78.5073 121.097 78.7008 120.651 79.0248C120.446 79.1959 120.301 79.4275 120.237 79.6863C120.185 79.9344 120.203 80.1922 120.29 80.4304C120.462 80.9022 120.809 81.2895 121.259 81.5119C121.683 81.7124 122.143 81.825 122.612 81.8427C123.027 81.8616 123.442 81.8517 123.855 81.8129C124.459 81.737 125.066 81.6995 125.675 81.7004C125.841 81.705 126.006 81.7194 126.171 81.7434C126.228 81.7356 126.286 81.7367 126.343 81.7467Z" fill="#EB996E"/>
<path d="M118.332 77.507C119.205 78.8127 120.012 80.1616 120.75 81.5486C120.932 81.9671 121.225 82.3283 121.596 82.5937C121.927 82.7822 122.711 82.4416 123.065 82.3258L120.627 77.0638" fill="#FFBE9D"/>
<path d="M120.627 77.0638C120.714 77.1867 120.787 77.3186 120.846 77.4574C120.985 77.7418 121.176 78.1189 121.385 78.5588C121.835 79.4947 122.456 80.8077 123.144 82.2927L123.184 82.3754L123.095 82.4052C122.83 82.4945 122.549 82.6069 122.245 82.6797C122.122 82.7092 121.997 82.7269 121.871 82.7326C121.804 82.7361 121.737 82.7294 121.672 82.7128C121.606 82.6956 121.543 82.6664 121.487 82.6268C121.293 82.4939 121.127 82.3242 120.998 82.1274C120.746 81.7536 120.571 81.3799 120.373 81.0326C119.989 80.3315 119.638 79.7097 119.334 79.1838C119.03 78.658 118.775 78.2479 118.597 77.9601C118.495 77.8173 118.407 77.6656 118.332 77.507C118.454 77.6361 118.565 77.7755 118.663 77.9238C118.858 78.2016 119.132 78.6117 119.45 79.1276C119.767 79.6436 120.131 80.2653 120.521 80.9599C120.723 81.2906 120.908 81.6875 121.147 82.0381C121.266 82.2147 121.417 82.3672 121.593 82.4879C121.688 82.5345 121.792 82.5612 121.898 82.5663C122.003 82.5714 122.109 82.5548 122.208 82.5176C122.496 82.4482 122.77 82.339 123.042 82.2464L122.992 82.3589C122.307 80.8739 121.706 79.5543 121.285 78.6017C121.084 78.1486 120.922 77.7716 120.793 77.4806C120.725 77.3472 120.669 77.2076 120.627 77.0638Z" fill="#EB996E"/>
<path d="M119.973 75.4992C120.758 77.3646 121.54 79.2288 122.321 81.0919C122.465 81.4996 122.678 81.879 122.953 82.2131C123.097 82.3831 123.279 82.5162 123.485 82.6014C123.691 82.6865 123.915 82.7212 124.137 82.7026C124.431 82.6385 124.695 82.4757 124.885 82.2411C125.074 82.0066 125.178 81.7143 125.178 81.4127C125.16 80.8215 125.01 80.2418 124.739 79.7161C124.037 78.0202 123.474 76.2704 123.055 74.4839" fill="#FFBE9D"/>
<path d="M123.054 74.4839C123.083 74.5368 123.103 74.5937 123.114 74.6526L123.253 75.1487C123.375 75.5753 123.551 76.1971 123.799 76.9545C124.047 77.7118 124.368 78.6081 124.771 79.6003C125.021 80.1036 125.187 80.6443 125.264 81.2011C125.288 81.5074 125.226 81.8143 125.085 82.0874C124.942 82.3889 124.691 82.6251 124.381 82.7489C124.219 82.8039 124.047 82.8255 123.877 82.8124C123.706 82.7993 123.54 82.7518 123.389 82.6728C123.108 82.5287 122.87 82.3145 122.697 82.0511C122.416 81.5671 122.178 81.0591 121.986 80.533C121.586 79.5408 121.222 78.6776 120.915 77.9301C120.607 77.1827 120.382 76.6072 120.207 76.1739L120.022 75.6911C119.996 75.6365 119.978 75.5786 119.969 75.5191C120.005 75.5678 120.033 75.6212 120.055 75.6778L120.27 76.1475L121.03 77.8871C121.361 78.6313 121.722 79.5077 122.138 80.4735C122.336 80.9778 122.576 81.4646 122.856 81.9287C123.013 82.1673 123.23 82.361 123.484 82.4909C123.612 82.5593 123.753 82.6004 123.898 82.6118C124.042 82.6232 124.187 82.6046 124.325 82.5571C124.593 82.449 124.812 82.2452 124.94 81.9849C125.067 81.7359 125.123 81.4567 125.102 81.1779C125.026 80.6393 124.867 80.1158 124.629 79.6268C124.232 78.6346 123.924 77.7416 123.69 76.9809C123.455 76.2202 123.296 75.5918 123.197 75.1553C123.147 74.937 123.111 74.7683 123.088 74.6526C123.07 74.5979 123.058 74.5413 123.054 74.4839Z" fill="#EB996E"/>
<path d="M120.161 88.6128C120.161 88.6128 114.78 103.668 114.568 104.419L125.373 107.954L129.012 87.6173L120.161 88.6128Z" fill="#FFBE9D"/>
<path d="M125.4 86.2745C125.229 86.2923 125.056 86.2708 124.894 86.2117C124.498 86.0969 124.133 85.8971 123.822 85.6263C123.518 85.3627 123.277 85.0337 123.118 84.6639C123.039 84.5191 123.001 84.3556 123.009 84.1909C123.233 84.687 123.55 85.1359 123.941 85.5138C124.379 85.8512 124.873 86.1088 125.4 86.2745Z" fill="#EB996E"/>
<path d="M114.569 104.419C114.569 104.419 112.803 108.807 112.915 111.777C113.028 114.747 114.569 120.376 118.908 120.343C122.037 120.327 125.169 119.087 128.519 115.25C130.378 113.12 132.726 110.332 132.726 110.332L122.804 105.589L114.569 104.419Z" fill="#FFBE9D"/>
<path d="M123.121 116.034C123.141 115.956 123.169 115.88 123.207 115.809L123.482 115.178C123.607 114.91 123.706 114.556 123.852 114.159C123.998 113.762 124.127 113.296 124.279 112.783C124.874 110.733 125.519 107.849 126.131 104.647C126.743 101.446 127.216 98.5285 127.556 96.4184C127.722 95.3766 127.857 94.5266 127.956 93.9181C128.003 93.637 128.039 93.4121 128.069 93.2401C128.078 93.1593 128.094 93.0795 128.118 93.002C128.125 93.0823 128.125 93.163 128.118 93.2434L128.039 93.928C127.963 94.52 127.847 95.3799 127.708 96.4383C127.397 98.5516 126.938 101.472 126.329 104.68C125.721 107.888 125.049 110.769 124.427 112.816C124.265 113.329 124.133 113.808 123.974 114.189C123.816 114.569 123.71 114.936 123.574 115.204L123.267 115.823C123.224 115.897 123.175 115.968 123.121 116.034Z" fill="#EB996E"/>
<path d="M131.859 96.6265C131.895 96.7053 131.922 96.7872 131.942 96.8712C131.992 97.0498 132.061 97.2879 132.144 97.5823C132.309 98.2074 132.531 99.1103 132.779 100.228C133.278 102.474 133.88 105.593 134.472 109.055C135.064 112.518 135.511 115.67 135.779 117.949C135.911 119.09 136 120.016 136.05 120.658C136.07 120.968 136.083 121.213 136.093 121.398C136.099 121.484 136.099 121.57 136.093 121.656C136.071 121.573 136.058 121.488 136.053 121.402C136.033 121.216 136.01 120.972 135.977 120.664C135.908 120.026 135.798 119.103 135.646 117.962C135.349 115.683 134.872 112.545 134.29 109.082C133.708 105.619 133.119 102.504 132.637 100.251C132.402 99.1268 132.2 98.2206 132.055 97.6054C131.985 97.3078 131.929 97.0663 131.886 96.8877C131.872 96.8012 131.863 96.714 131.859 96.6265Z" fill="#263238"/>
<path d="M173.101 114.033C173.094 113.969 173.094 113.905 173.101 113.841C173.101 113.696 173.128 113.511 173.144 113.292C173.187 112.793 173.247 112.108 173.316 111.272C173.518 109.055 173.599 106.829 173.558 104.604C173.52 103.38 173.416 102.159 173.247 100.946C173.154 100.39 173.078 99.8579 172.966 99.3684C172.91 99.1237 172.867 98.8856 172.81 98.6607C172.754 98.4358 172.695 98.2208 172.642 97.9992C172.543 97.5825 172.414 97.2187 172.311 96.8945C172.208 96.5704 172.113 96.2959 172.027 96.071C171.941 95.8461 171.888 95.6907 171.841 95.5551C171.815 95.4961 171.796 95.4338 171.785 95.3699C171.822 95.4225 171.851 95.4805 171.871 95.5419L172.089 96.0479C172.185 96.2695 172.294 96.5407 172.4 96.8648C172.506 97.1889 172.648 97.5494 172.754 97.9661C172.814 98.1745 172.873 98.3895 172.936 98.6276C172.999 98.8657 173.045 99.0939 173.101 99.3387C173.224 99.8315 173.303 100.364 173.402 100.923C173.582 102.14 173.692 103.367 173.733 104.597C173.778 106.83 173.681 109.064 173.442 111.285C173.356 112.135 173.277 112.823 173.214 113.299C173.184 113.52 173.158 113.702 173.138 113.845C173.135 113.909 173.123 113.973 173.101 114.033Z" fill="#263238"/>
<path d="M168.301 131.053C168.301 131.053 167.749 129.598 168.962 129.482C169.623 129.435 170.285 129.422 170.947 129.442C171.472 129.451 171.981 129.625 172.403 129.938C172.824 130.251 173.138 130.688 173.298 131.188L173.791 132.763L175.461 134.433H177.303L180.184 140.561C180.184 140.561 177.707 142.652 176.265 141.97C174.823 141.289 174.611 141.401 174.611 141.401C174.611 141.401 168.909 144.742 168.506 144.57C168.102 144.398 167.414 143.783 168.506 142.84C169.597 141.898 173.401 139.272 173.401 139.272L166.144 141.97C166.144 141.97 164.937 141.689 165.629 140.766C166.32 139.844 172.422 137.003 172.422 137.003L171.962 136.507C171.962 136.507 166.088 138.696 165.678 138.408C165.268 138.121 164.332 137.542 165.407 136.794C166.482 136.047 171.783 133.917 171.783 133.917L170.976 132.015L170.153 131.612C170.153 131.612 168.47 131.579 168.301 131.053Z" fill="#FFBE9D"/>
<path d="M179.143 136.659C179.064 136.678 178.899 135.971 178.313 135.336C177.728 134.701 177.047 134.476 177.073 134.396C177.099 134.317 177.88 134.436 178.522 135.144C179.163 135.852 179.219 136.665 179.143 136.659Z" fill="#EB996E"/>
<path d="M174.402 134.919C174.336 134.968 173.922 134.386 173.145 134.115C172.368 133.844 171.68 134.036 171.663 133.953C171.647 133.87 171.809 133.821 172.097 133.761C172.478 133.689 172.872 133.719 173.239 133.848C173.605 133.977 173.931 134.2 174.183 134.495C174.372 134.724 174.432 134.899 174.402 134.919Z" fill="#EB996E"/>
<path d="M174.481 137.122C174.434 137.188 173.975 136.917 173.353 136.946C172.731 136.976 172.288 137.277 172.238 137.201C172.189 137.125 172.609 136.685 173.343 136.662C174.077 136.639 174.54 137.072 174.481 137.122Z" fill="#EB996E"/>
<path d="M175.503 139.169C175.479 139.248 174.93 139.126 174.266 139.225C173.601 139.324 173.108 139.582 173.062 139.513C173.015 139.443 173.488 139.047 174.226 138.944C174.963 138.842 175.532 139.103 175.503 139.169Z" fill="#EB996E"/>
<path d="M160.47 106.152C160.446 106.215 160.417 106.276 160.381 106.334L160.103 106.84C159.859 107.279 159.482 107.904 158.999 108.665C158.516 109.426 157.914 110.319 157.213 111.275C156.512 112.23 155.698 113.259 154.802 114.304C153.905 115.349 153.002 116.289 152.156 117.139C151.309 117.989 150.522 118.706 149.841 119.292C149.159 119.877 148.597 120.347 148.187 120.654L147.727 121.005C147.676 121.049 147.619 121.087 147.559 121.117C147.602 121.066 147.651 121.019 147.704 120.978L148.144 120.601C148.528 120.271 149.08 119.801 149.745 119.202C153.239 116.074 156.318 112.51 158.906 108.599C159.399 107.848 159.789 107.236 160.05 106.806L160.358 106.317C160.388 106.257 160.426 106.202 160.47 106.152Z" fill="#263238"/>
<path d="M158.213 109.29C158.166 109.296 158.12 109.296 158.074 109.29C157.938 109.293 157.803 109.283 157.67 109.261C157.154 109.162 156.674 108.928 156.278 108.583C155.646 108.041 155.194 107.32 154.981 106.516C154.733 105.451 154.689 104.349 154.852 103.268C154.889 102.967 154.925 102.663 154.965 102.348C154.998 102.025 155.057 101.704 155.14 101.389C155.229 101.052 155.406 100.744 155.653 100.496C155.78 100.363 155.935 100.26 156.106 100.193C156.277 100.126 156.461 100.098 156.645 100.109C156.835 100.137 157.016 100.208 157.174 100.319C157.331 100.429 157.46 100.575 157.551 100.744C157.737 101.079 157.856 101.446 157.902 101.826C157.964 102.608 157.923 103.396 157.779 104.167C157.474 105.827 156.752 107.383 155.682 108.689C155.118 109.376 154.461 109.983 153.731 110.491C153.36 110.761 152.957 110.983 152.531 111.153C152.093 111.333 151.619 111.403 151.148 111.358C150.67 111.296 150.229 111.069 149.901 110.716C149.591 110.371 149.353 109.967 149.203 109.529C149.053 109.104 148.943 108.667 148.873 108.222C148.799 107.784 148.748 107.343 148.72 106.899C148.666 106.045 148.701 105.187 148.823 104.339C148.886 103.923 148.965 103.516 149.064 103.116C149.167 102.713 149.349 102.336 149.6 102.004C149.728 101.838 149.89 101.701 150.076 101.604C150.266 101.509 150.481 101.472 150.692 101.498C150.892 101.538 151.081 101.625 151.242 101.751C151.403 101.877 151.532 102.04 151.618 102.226C151.774 102.579 151.84 102.966 151.81 103.351C151.783 103.712 151.738 104.072 151.674 104.429C151.428 105.731 150.949 106.977 150.262 108.11C149.268 109.753 147.868 111.113 146.197 112.059C145.938 112.209 145.671 112.344 145.397 112.462C145.199 112.558 144.996 112.642 144.788 112.714L144.408 112.846C144.365 112.863 144.321 112.877 144.275 112.886C144.315 112.863 144.358 112.844 144.401 112.829L144.775 112.68C144.979 112.604 145.179 112.516 145.373 112.416C145.644 112.292 145.908 112.154 146.164 112.002C147.808 111.038 149.181 109.672 150.156 108.034C150.829 106.913 151.295 105.681 151.532 104.396C151.594 104.044 151.639 103.69 151.664 103.334C151.69 102.974 151.628 102.613 151.482 102.282C151.407 102.119 151.295 101.977 151.154 101.866C151.013 101.755 150.848 101.679 150.672 101.644C150.488 101.627 150.304 101.66 150.137 101.739C149.971 101.818 149.829 101.941 149.726 102.094C149.24 102.706 149.117 103.542 148.988 104.353C148.867 105.189 148.834 106.036 148.889 106.879C148.917 107.313 148.968 107.745 149.041 108.173C149.112 108.606 149.223 109.033 149.372 109.446C149.513 109.863 149.739 110.247 150.033 110.574C150.332 110.899 150.737 111.107 151.174 111.162C151.617 111.205 152.063 111.139 152.474 110.971C152.888 110.808 153.279 110.593 153.638 110.332C154.358 109.836 155.004 109.24 155.557 108.563C156.611 107.281 157.325 105.753 157.63 104.121C157.773 103.366 157.816 102.595 157.756 101.829C157.715 101.469 157.602 101.12 157.425 100.804C157.347 100.653 157.235 100.523 157.097 100.424C156.959 100.325 156.799 100.26 156.632 100.235C156.469 100.223 156.305 100.246 156.152 100.303C155.999 100.36 155.86 100.45 155.745 100.566C155.508 100.808 155.344 101.112 155.269 101.442C155.186 101.75 155.126 102.064 155.09 102.381C155.051 102.692 155.011 103 154.975 103.298C154.808 104.364 154.841 105.452 155.074 106.506C155.277 107.296 155.711 108.008 156.321 108.55C156.706 108.893 157.173 109.132 157.677 109.244C158.024 109.297 158.213 109.277 158.213 109.29Z" fill="white"/>
<path d="M164.992 110.339C164.986 110.424 164.967 110.508 164.936 110.587C164.852 110.817 164.711 111.022 164.526 111.182C164.232 111.44 163.864 111.599 163.474 111.635C162.954 111.67 162.44 111.507 162.035 111.179C161.542 110.792 161.18 110.262 161 109.661C160.804 108.98 160.728 108.271 160.775 107.564C160.825 105.944 161.222 104.354 161.94 102.901C162.051 102.701 162.213 102.534 162.409 102.418C162.513 102.361 162.628 102.329 162.747 102.324C162.865 102.319 162.983 102.342 163.09 102.391C163.29 102.499 163.449 102.669 163.544 102.874C163.639 103.064 163.702 103.269 163.729 103.479C163.789 104.272 163.653 105.067 163.332 105.795C162.795 107.007 161.943 108.054 160.865 108.827C160.147 109.348 159.38 109.799 158.576 110.173C158.295 110.312 158.077 110.412 157.915 110.478C157.839 110.515 157.761 110.545 157.68 110.567C157.749 110.521 157.822 110.48 157.898 110.445L158.536 110.114C159.327 109.715 160.082 109.248 160.792 108.718C161.838 107.945 162.664 106.91 163.186 105.718C163.488 105.021 163.617 104.261 163.563 103.503C163.536 103.31 163.478 103.124 163.391 102.95C163.314 102.779 163.183 102.637 163.018 102.547C162.934 102.51 162.843 102.492 162.752 102.496C162.661 102.5 162.572 102.526 162.492 102.57C162.323 102.673 162.185 102.818 162.088 102.99C161.716 103.725 161.435 104.502 161.252 105.305C161.068 106.05 160.957 106.811 160.921 107.577C160.869 108.267 160.937 108.961 161.123 109.628C161.29 110.204 161.63 110.715 162.095 111.093C162.475 111.409 162.96 111.572 163.454 111.549C163.826 111.521 164.18 111.377 164.466 111.139C164.65 110.991 164.795 110.8 164.89 110.584C164.969 110.425 164.979 110.336 164.992 110.339Z" fill="white"/>
<g opacity="0.3">
<path d="M159.859 107.187C158.445 111.266 155.711 114.758 152.09 117.109C152.09 117.109 156.7 112.654 159.859 107.187Z" fill="black"/>
</g>
<g opacity="0.3">
<path d="M172.031 95.9652V96.1008C173.52 99.4578 173.582 104.518 173.599 108.308C174.369 106.277 174.815 104.138 174.922 101.968C174.938 99.9935 173.711 97.0004 172.031 95.9652Z" fill="black"/>
</g>
</svg>
