<svg width="123" height="33" viewBox="0 0 123 33" fill="none" xmlns="http://www.w3.org/2000/svg">
<g id="logo_ConCredito">
<path id="Shape" fill-rule="evenodd" clip-rule="evenodd" d="M67.7257 13.2552L67.8338 12.8454C67.895 12.6374 67.9606 12.4079 68.0309 12.1616C68.2193 11.5021 68.4419 10.7226 68.7074 9.91535L68.6061 9.80835L67.7257 9.95405C67.1284 10.0541 66.7668 10.1091 66.0219 10.2224L66.0216 10.2224L65.3773 10.3206L65.2355 10.4321C65.1998 10.5704 65.1249 10.9267 65.0449 11.3075L65.0447 11.3084L65.0446 11.3089L65.0446 11.3091L65.0442 11.3112L65.0436 11.3138L65.0434 11.3148L65.0434 11.3149L65.0433 11.3153C64.9419 11.7979 64.8328 12.3175 64.7851 12.4811L64.4271 13.9951C64.2824 13.9904 64.1514 13.9853 64.0298 13.9805L64.0296 13.9804L64.0294 13.9804C63.7938 13.9711 63.5934 13.9632 63.3959 13.9632C63.0073 13.9609 62.6191 13.9861 62.234 14.0383C61.2738 14.1723 60.3719 14.5824 59.6357 15.2199C58.0596 16.5722 57.258 18.9126 57.258 20.6565C57.2537 20.9731 57.2885 21.2889 57.3616 21.5968C57.4779 22.3948 58.0145 23.0656 58.7621 23.3475C59.1052 23.4821 59.4703 23.5501 59.8383 23.5478C60.7293 23.5598 61.5894 23.2182 62.234 22.5962C62.2768 22.5598 62.3196 22.5211 62.3579 22.4824L62.234 22.9035L62.1125 23.3156L62.2115 23.4226H62.234C63.4184 23.3702 63.7832 23.3702 65.0981 23.3702L65.2197 23.2655C65.4854 21.7743 66.2149 18.8785 66.762 16.8363L67.7257 13.2552ZM55.0424 10.0155H54.3511L54.2093 10.1043C53.5518 11.2563 53.3086 11.6319 52.748 12.4925L52.4237 12.9752L52.4823 13.0844H52.748C53.4099 13.0708 53.5833 13.0708 54.2498 13.0708H54.2498L54.3939 13.0161C55.6526 11.6342 55.97 11.2996 57.1341 10.0907L57.0913 9.98593C56.1367 10.0155 55.7336 10.0155 55.0424 10.0155ZM52.748 13.8402C53.0578 13.7995 53.37 13.7805 53.6824 13.7833C55.5693 13.7833 56.8302 14.6894 56.8122 16.4947C56.787 17.3818 56.615 18.2583 56.3033 19.0878L56.1389 19.1948H55.209H52.7322C52.3693 19.1948 52.0186 19.1995 51.7269 19.2034C51.5191 19.2061 51.3413 19.2085 51.2102 19.2085C51.14 19.4681 51.1051 19.7362 51.1066 20.0053C51.0892 20.332 51.1751 20.6557 51.352 20.9296C51.6852 21.3872 52.2819 21.542 52.7322 21.5944C52.9012 21.6139 53.0711 21.623 53.2411 21.6217C54.0017 21.6435 54.7535 21.4529 55.4139 21.0708L55.5963 21.1436C55.3306 21.9245 55.2315 22.241 54.9861 23.1266L54.824 23.2928C54.1427 23.4847 53.4394 23.585 52.7322 23.591H52.5499C51.7142 23.6142 50.8814 23.4815 50.0934 23.1994C49.4357 22.96 48.8793 22.4995 48.5172 21.8949C48.2303 21.3655 48.0888 20.7681 48.1074 20.1647C48.1074 19.953 48.1248 19.7624 48.1427 19.5651L48.1427 19.5649L48.1502 19.4817C48.2064 18.8688 48.3295 18.2641 48.5172 17.6786C48.6849 17.1656 48.9117 16.6743 49.1927 16.2147C49.9488 14.9079 51.2625 14.0304 52.748 13.8402ZM52.748 17.5445L53.7635 17.5285C53.8831 17.1403 53.9505 16.7375 53.9639 16.331C53.9639 15.9759 53.8445 15.4796 53.2366 15.4796C53.0699 15.4763 52.9045 15.5105 52.7525 15.5798C52.581 15.6674 52.4281 15.7881 52.3022 15.9349C51.9401 16.4195 51.6768 16.9721 51.5276 17.5604L52.748 17.5445ZM34.3703 18.3799C34.3703 20.0509 35.2237 21.294 37.3357 21.294C37.8198 21.294 38.8375 21.2393 39.6526 20.7544L39.7967 20.8272C39.497 21.7106 39.4302 21.9474 39.2507 22.5836C39.209 22.7312 39.1613 22.9003 39.1032 23.1039L38.9411 23.2655C38.8964 23.2844 38.8571 23.2977 38.8173 23.3112C38.785 23.3221 38.7523 23.3332 38.716 23.3475C38.0472 23.5638 36.8291 23.6207 36.3585 23.6207C32.7199 23.6207 30.9186 21.5421 30.9186 18.5415C30.9341 16.9018 31.3977 15.2984 32.2583 13.9086C33.5399 11.8399 35.7954 10.5965 38.2093 10.6279C39.1184 10.6272 40.0212 10.7811 40.8798 11.0833C41.1251 11.1712 41.3656 11.2722 41.6003 11.386L41.6611 11.5113C41.2934 12.4974 41.236 12.6822 40.9354 13.6503L40.9315 13.6627L40.8798 13.6786L40.7469 13.7128C40.1364 13.2366 39.3832 12.9859 38.6124 13.0025C35.6898 13.0025 34.3703 16.2899 34.3703 18.3799ZM48.5262 15.1017L48.5762 14.9924C48.6968 14.729 48.8167 14.4671 48.9315 14.191L48.891 14.0134C48.777 13.9451 48.6542 13.893 48.5262 13.8586C48.3914 13.8302 48.2541 13.8164 48.1164 13.8176C46.6979 13.8176 46.0089 14.8831 45.133 16.2491C45.4595 15.0083 45.5361 14.7397 45.8085 13.8723L45.7072 13.763C44.3269 14.0134 43.9397 14.0635 42.4536 14.2434L42.3343 14.3322C42.0911 15.8393 41.9875 16.4084 41.2602 19.1973L40.8842 20.627L40.8527 20.7409C40.784 20.9621 40.5981 21.6138 40.4311 22.1991L40.4308 22.2001L40.4305 22.2011L40.4303 22.202C40.3021 22.6514 40.1852 23.0612 40.1412 23.2065L40.1007 23.334L40.2042 23.4205L40.8797 23.4C41.1242 23.3958 41.3332 23.3916 41.5278 23.3878L41.528 23.3878L41.5282 23.3878L41.5284 23.3877L41.5285 23.3877L41.5287 23.3877L41.5289 23.3877L41.5291 23.3877L41.5293 23.3877L41.5294 23.3877C42.0779 23.3768 42.5125 23.3681 43.3047 23.3681L43.4488 23.2634C43.4618 23.1996 43.4734 23.1416 43.4844 23.0871L43.4844 23.0871L43.4844 23.087L43.4844 23.0869C43.559 22.7153 43.6016 22.5033 43.8136 21.6993L44.2391 19.9213C44.6467 18.2184 45.0114 16.7112 46.6754 16.7112C47.0139 16.692 47.3492 16.7856 47.6301 16.9776L47.7742 16.9389C47.9363 16.4972 48.1164 16.0533 48.3033 15.6116C48.3231 15.5654 48.3423 15.519 48.3617 15.4724L48.3618 15.4721L48.3618 15.472L48.3619 15.472C48.4129 15.3491 48.4642 15.2254 48.5262 15.1017ZM84.0612 13.7834C84.5903 13.7834 86.0517 13.8198 87.0288 14.8283H87.0266C87.8597 15.6844 87.8777 16.891 87.8777 17.3122C87.8777 18.6485 87.3688 21.2576 85.6621 22.5871C84.9542 23.1186 84.1168 23.446 83.2394 23.5342C82.9725 23.5652 82.7042 23.5812 82.4356 23.582C80.99 23.582 79.4792 23.1062 78.8622 21.6264C78.6631 21.1269 78.5666 20.5916 78.5785 20.0532C78.6025 18.666 78.9785 17.3082 79.6706 16.1101C80.4389 14.8239 81.7626 13.98 83.2416 13.8335C83.5135 13.7987 83.7872 13.7819 84.0612 13.7834ZM83.6739 20.9548C83.5674 21.1729 83.4198 21.3677 83.2394 21.5285C83.0502 21.689 82.8108 21.7761 82.5639 21.7744C81.7083 21.7744 81.7083 21.0072 81.7083 20.6885C81.7083 19.4113 82.3207 17.3691 82.6877 16.6042C82.8193 16.3206 83.0098 16.069 83.2461 15.8666C83.4529 15.6888 83.7155 15.5911 83.9869 15.5911C84.775 15.5911 84.775 16.3947 84.775 16.7135C84.7682 17.7084 84.3021 19.8188 83.6739 20.9548ZM78.4569 15.9507C78.0291 15.9348 77.7026 15.9348 77.1555 15.9348L76.3449 19.0105C76.0612 20.0782 75.9576 20.5404 75.9576 20.7885C75.9455 20.9684 76.009 21.145 76.1324 21.2751C76.2559 21.4051 76.4279 21.4764 76.6061 21.4715C76.8512 21.478 77.0962 21.4543 77.3356 21.401L77.4392 21.4351C77.178 22.2228 77.115 22.455 76.9101 23.2564L76.7705 23.3611C76.2839 23.4739 75.7858 23.5274 75.2866 23.5205C74.6879 23.5464 74.0929 23.4121 73.5619 23.1312C73.3799 23.0254 73.2182 22.8874 73.0846 22.7237C72.8342 22.3859 72.7076 21.9706 72.7266 21.5489C72.7706 20.88 72.8907 20.2185 73.0846 19.5774L73.1589 19.2427L74.0933 15.9234C73.5844 15.9234 73.5169 15.9234 73.0666 15.9553L72.9832 15.8528L73.0756 15.5568C73.2444 15.0082 73.2985 14.8306 73.4899 14.0975L73.6137 13.9928C74.0618 14.0065 74.0978 14.0065 74.5481 14.0065L74.628 13.6949C74.8097 12.9871 74.8787 12.7183 75.0772 11.8232L75.2191 11.7184C76.3772 11.4979 76.8503 11.3811 77.8326 11.1386C77.9962 11.0982 78.174 11.0543 78.3714 11.0059L78.4524 11.0969L78.0449 12.513L77.6193 14.027C78.0195 14.027 78.2503 14.0174 78.559 14.0047C78.6497 14.001 78.7472 13.9969 78.8577 13.9928H79.0829L79.1459 14.0975C79.0153 14.4686 78.9365 14.7099 78.8622 14.9376C78.7766 15.2017 78.7068 15.443 78.5965 15.8483L78.4569 15.9507ZM62.2296 21.3075C62.4164 21.1709 62.5831 21.0002 62.5943 20.9205L63.898 15.8686C63.4117 15.8322 63.0019 15.8163 62.511 16.1145C62.4127 16.1845 62.3187 16.2605 62.2296 16.3422C61.151 17.287 60.5634 19.4611 60.5634 20.3718C60.5634 20.5995 60.5634 21.542 61.4978 21.542C61.6792 21.5382 61.8585 21.5012 62.0269 21.4327C62.0988 21.3986 62.1667 21.3566 62.2296 21.3075ZM73.3353 10.4514L73.3353 10.4513L73.4426 10.0906L73.303 9.96537L73.0778 9.99724C71.8372 10.168 71.4747 10.209 70.2453 10.3387L70.0607 10.464C69.8999 11.2401 69.8342 11.494 69.6331 12.2711L69.633 12.2713L69.6329 12.2719L69.554 12.5767L69.6756 12.7019C70.1 12.6507 70.4784 12.6033 70.8613 12.5554L70.8614 12.5554L70.8624 12.5552L70.8626 12.5552C71.4158 12.4859 71.9783 12.4155 72.7018 12.3308L72.8437 12.1874C72.9156 11.9329 72.9695 11.7338 73.0168 11.5593L73.0171 11.5585L73.0195 11.5493C73.0423 11.4654 73.0636 11.3871 73.0846 11.3109C73.1581 11.0464 73.229 10.8082 73.3328 10.4598L73.3337 10.4565L73.334 10.4555L73.3353 10.4514ZM68.9754 14.3524L69.115 14.2454C70.6596 14.0656 71.1212 13.995 72.4992 13.7833L72.5982 13.8744C72.5334 14.1342 72.4372 14.4675 72.3434 14.7925L72.3433 14.7929L72.3432 14.7931C72.2646 15.0658 72.1876 15.3326 72.1321 15.5454C71.8484 16.604 71.5445 17.7423 71.281 18.842L70.9545 20.1738C70.904 20.3839 70.8571 20.5907 70.8103 20.7973L70.8098 20.7995L70.8098 20.7996L70.8098 20.7996L70.8098 20.7997L70.8097 20.7999C70.7461 21.0806 70.6825 21.3611 70.61 21.649C70.4097 22.6234 70.3691 22.8557 70.3038 23.2837L70.162 23.3861C69.0699 23.3861 68.5183 23.3861 67.719 23.4089L66.8341 23.4408L66.7305 23.336C66.7883 23.1452 66.8418 22.9694 66.8919 22.8043L66.8939 22.7979C67.2041 21.777 67.39 21.1651 67.719 19.9461C67.7633 19.7799 67.8097 19.6023 67.8599 19.4107L67.8609 19.4069C67.9251 19.1615 67.9953 18.893 68.0747 18.5961L68.2999 17.7082C68.5868 16.6032 68.8123 15.4829 68.9754 14.3524ZM7.72922 13.0024C8.49852 12.987 9.24999 13.2376 9.85924 13.7127L10.0416 13.6558C10.206 13.1322 10.3006 12.8385 10.4086 12.5175C10.501 12.2466 10.6045 11.9643 10.7734 11.5044L10.7104 11.3815C10.6113 11.3337 10.5077 11.2881 10.4086 11.2449C9.43054 10.8327 8.38132 10.6207 7.32167 10.6211C4.91036 10.5951 2.65972 11.8407 1.38191 13.9085C0.519402 15.2981 0.0519933 16.901 0.0309448 18.5415C0.0309448 21.5421 1.83224 23.6206 5.4731 23.6206C5.94143 23.6206 7.15956 23.5637 7.82829 23.3475C7.86146 23.3351 7.89058 23.3251 7.91852 23.3156L7.91876 23.3155L7.9188 23.3155L7.91883 23.3155C7.96283 23.3004 8.00394 23.2864 8.05345 23.2655L8.21556 23.1039C8.26338 22.9337 8.30412 22.7877 8.34025 22.6582L8.3404 22.6577C8.53386 21.9644 8.59535 21.744 8.90456 20.8272L8.76271 20.7544C7.94987 21.2507 6.93665 21.3053 6.4503 21.3053C4.33603 21.3053 3.48267 20.0623 3.48267 18.3912C3.48267 16.2899 4.80212 13.0024 7.72922 13.0024ZM14.7047 13.8335C14.9766 13.7987 15.2503 13.7819 15.5243 13.7834C16.0557 13.7834 17.517 13.8198 18.4942 14.8101C19.325 15.6661 19.3453 16.8728 19.3453 17.2962C19.3453 18.6326 18.8342 21.2416 17.1275 22.5712C16.4197 23.1031 15.5823 23.4305 14.7047 23.5183C14.4371 23.5493 14.168 23.5653 13.8987 23.5661C12.5184 23.5661 11.0684 23.1244 10.4087 21.7903C10.1523 21.2414 10.0266 20.6395 10.0416 20.0327C10.0533 19.2598 10.1769 18.4928 10.4087 17.7561C10.5828 17.178 10.8295 16.6248 11.1427 16.1101C11.9025 14.8198 13.226 13.9739 14.7047 13.8335ZM15.137 20.9548C15.0322 21.1733 14.8852 21.3684 14.7047 21.5285C14.5157 21.6893 14.2762 21.7765 14.0292 21.7744C13.1736 21.7744 13.1736 21.0072 13.1736 20.6885C13.1736 19.4113 13.7838 17.3691 14.1486 16.6042C14.2832 16.3219 14.4741 16.0708 14.7092 15.8666C14.9162 15.6891 15.1786 15.5915 15.45 15.5911C16.2426 15.5911 16.2426 16.3902 16.2426 16.7135C16.2426 17.7084 15.7697 19.8188 15.137 20.9548ZM24.7447 14.9922C26.0123 13.9449 27.1381 13.8197 27.5885 13.8197C28.6039 13.8197 29.6802 14.3411 29.6802 15.6387C29.6505 16.1544 29.5682 16.6655 29.4348 17.1641C29.3486 17.5099 29.2648 17.8565 29.1813 18.202C29.051 18.7411 28.9213 19.2777 28.7841 19.805L28.4936 20.9979C28.444 21.1898 28.3986 21.3774 28.3534 21.5645C28.3063 21.7593 28.2593 21.9537 28.2077 22.1522C28.0591 22.7828 28.041 22.8648 27.9825 23.2381L27.8384 23.3429C26.5394 23.3429 26.1051 23.3555 25.1262 23.3838C25.004 23.3874 24.8732 23.3912 24.7312 23.3952L24.6298 23.3087C24.9858 22.0768 25.1007 21.6156 25.2961 20.8317C25.3343 20.6784 25.3756 20.5126 25.4224 20.3263L25.8885 18.505C26.1542 17.3667 26.2307 16.9296 26.2307 16.6837C26.2441 16.493 26.1727 16.3063 26.036 16.1742C25.8993 16.0422 25.7115 15.9786 25.5237 16.0007C25.082 16.0203 24.6708 16.2341 24.3979 16.5858C23.808 18.9103 23.1978 21.3941 22.7723 23.2632L22.6304 23.3679C21.4117 23.3679 20.9571 23.3807 19.9317 23.4094C19.8109 23.4128 19.6822 23.4164 19.5434 23.4203L19.4601 23.3338C19.5817 22.9422 19.7664 22.2159 19.9105 21.6468C20.0298 21.1846 20.1536 20.7156 20.2955 20.2603L20.6017 19.0742C20.971 17.6171 21.3155 16.2352 21.6172 14.3456L21.7613 14.2386C23.2023 14.0861 23.5085 14.0474 24.9676 13.7833L25.0689 13.8698L24.7447 14.9922Z" fill="#00AC68"/>
<path id="Shape_2" fill-rule="evenodd" clip-rule="evenodd" d="M117.741 30.361C117.729 29.6279 118.304 29.0222 119.029 29.0046H119.02C119.376 28.9948 119.72 29.1303 119.976 29.3804C120.232 29.6306 120.377 29.9743 120.38 30.3342C120.382 31.0674 119.799 31.665 119.074 31.6724C118.348 31.6798 117.753 31.0941 117.741 30.361ZM117.971 30.3432C117.975 30.9291 118.449 31.4 119.029 31.395C119.299 31.3915 119.557 31.278 119.745 31.0802C119.932 30.8824 120.032 30.6168 120.024 30.3432C120.033 30.0646 119.931 29.794 119.74 29.5926C119.549 29.3912 119.286 29.2761 119.011 29.2732C118.431 29.2782 117.966 29.7573 117.971 30.3432Z" fill="#00AC68"/>
<path id="Shape_3" fill-rule="evenodd" clip-rule="evenodd" d="M119.321 30.3617V30.3754C119.452 30.4164 119.517 30.5211 119.553 30.7055C119.566 30.8182 119.599 30.9277 119.65 31.0288H119.328C119.276 30.9276 119.241 30.8184 119.225 30.7055C119.198 30.5689 119.121 30.5052 118.952 30.5052H118.806V31.0311H118.504V29.7015C118.671 29.6777 118.838 29.6648 119.006 29.6628C119.164 29.645 119.323 29.6819 119.457 29.7675C119.545 29.8334 119.595 29.939 119.592 30.0498C119.58 30.2029 119.47 30.3299 119.321 30.3617ZM118.819 30.2798H118.963V30.2775C119.141 30.2775 119.267 30.2024 119.267 30.0817C119.267 29.9611 119.182 29.8814 118.986 29.8814C118.93 29.8797 118.874 29.885 118.819 29.8973V30.2798Z" fill="#00AC68"/>
<path id="Shape_4" fill-rule="evenodd" clip-rule="evenodd" d="M122.969 16.4719C122.969 9.80964 119 3.80341 112.912 1.25408C106.825 -1.29525 99.8176 0.114389 95.1588 4.82566C90.4999 9.53693 89.1068 16.622 91.6289 22.7768C94.1511 28.9317 100.092 32.9443 106.681 32.9434C115.67 32.9246 122.952 25.5607 122.969 16.4719ZM121.375 16.472C121.378 18.4248 121 20.3589 120.263 22.1636L108.581 27.3339L95.3936 18.3708H95.3778C94.9688 18.0994 94.8489 17.5475 95.1076 17.1277C95.234 16.9279 95.4343 16.7876 95.6638 16.7384C95.8959 16.6882 96.1382 16.7315 96.3393 16.8591L96.3663 16.8773L96.4023 16.8955L96.9652 17.1801L98.1608 17.7879L100.748 19.0993L102.238 19.8528L102.238 19.8529C102.216 19.9007 102.193 19.9485 102.169 19.9963C102.156 20.0206 102.143 20.0503 102.13 20.0814C102.117 20.1114 102.104 20.1426 102.09 20.1716C101.998 20.3744 101.917 20.5818 101.847 20.7931L101.68 21.3622L102.198 21.6263L108.169 24.8478L108.471 25.0094L108.784 24.8796L114.607 22.3753L113.985 21.171L108.559 23.4089H108.545L107.284 22.726L103.43 20.7157L103.445 20.677H103.432L103.445 20.6474C103.472 20.6036 103.495 20.5579 103.515 20.5108C103.599 20.3012 103.705 20.1013 103.83 19.9143C104.227 19.3543 104.758 19.1311 105.569 19.2108C105.871 19.2975 106.173 19.4094 106.475 19.5212C107.101 19.7532 107.726 19.9848 108.352 19.9894C108.525 19.9927 108.699 19.9767 108.869 19.9416L108.797 19.928C109.656 19.7324 110.431 19.2679 111.013 18.6007C111.156 18.4459 111.289 18.2824 111.412 18.1112C111.608 17.8685 111.821 17.6403 112.049 17.4282C112.984 16.545 114.173 15.9867 115.444 15.8346C115.764 15.7941 116.087 15.7872 116.408 15.8141H121.361C121.365 15.8678 121.368 15.9206 121.371 15.9728L121.371 15.9731L121.371 15.9734L121.371 15.9737L121.371 15.9738C121.382 16.1446 121.393 16.3083 121.393 16.472H121.375ZM102.736 13.2641C101.991 13.4638 101.223 13.5618 100.453 13.5555C99.6832 13.5615 98.9161 13.4635 98.1721 13.2641V14.2111C98.4265 14.3614 99.2258 14.5891 100.453 14.5891C101.68 14.5891 102.482 14.3637 102.736 14.2111V13.2641ZM98.5413 11.889C98.5413 11.6614 99.397 11.4588 100.453 11.4588C101.509 11.4588 102.367 11.6523 102.367 11.889C102.367 12.1258 101.511 12.3193 100.453 12.3193C99.3947 12.3193 98.5323 12.1258 98.5323 11.889H98.5413ZM102.736 15.5226C101.992 15.724 101.224 15.8228 100.453 15.8163C99.6801 15.8242 98.9098 15.7262 98.1631 15.5249V16.1624L98.4513 16.3035L99.3272 16.7588C99.7003 16.8094 100.076 16.8338 100.453 16.8317C101.671 16.8317 102.479 16.6177 102.736 16.456V15.5226ZM102.736 17.7673V18.5482L101.651 17.9836C102.015 17.9438 102.375 17.8714 102.727 17.7673H102.736ZM108.498 8.71551C107.754 8.91567 106.987 9.01444 106.217 9.0092H106.208C105.441 9.01343 104.676 8.91467 103.934 8.71551V9.66714C104.191 9.81285 104.992 10.0405 106.217 10.0405C107.442 10.0405 108.246 9.8174 108.498 9.66714V8.71551ZM104.301 7.31526C104.301 7.07621 105.159 6.8827 106.217 6.8827C107.275 6.8827 108.131 7.07621 108.131 7.31526C108.131 7.55431 107.264 7.73871 106.208 7.73871C105.152 7.73871 104.292 7.55203 104.292 7.31526H104.301ZM108.498 10.9785C107.754 11.1787 106.987 11.2775 106.217 11.2722H106.208C105.437 11.2772 104.67 11.1785 103.925 10.9785V11.9165C104.182 12.0645 104.983 12.2921 106.208 12.2921C107.433 12.2921 108.237 12.0645 108.498 11.9097V10.9785ZM106.217 13.5144C106.987 13.5198 107.754 13.4203 108.498 13.2185V14.1519C108.246 14.3044 107.442 14.5298 106.217 14.5298C104.992 14.5298 104.191 14.3022 103.934 14.1519V13.2185C104.676 13.4193 105.44 13.5188 106.208 13.5144H106.217ZM108.498 15.4656C107.754 15.6647 106.987 15.7634 106.217 15.7593H106.208C105.441 15.7623 104.676 15.6636 103.934 15.4656V16.39C104.191 16.5379 104.992 16.7656 106.217 16.7656C107.442 16.7656 108.246 16.5402 108.498 16.39V15.4656ZM108.498 17.7059V18.6666C108.471 18.6825 108.443 18.6962 108.415 18.7076C108.164 18.6835 107.849 18.5501 107.474 18.3911C107.175 18.2643 106.837 18.1212 106.463 18.0041C107.148 17.9941 107.829 17.8938 108.489 17.7059H108.498ZM114.251 11.6091C113.509 11.8081 112.744 11.9068 111.977 11.9028H111.968C111.198 11.9075 110.431 11.8087 109.687 11.6091V12.5562C109.941 12.7064 110.741 12.9341 111.968 12.9341C113.195 12.9341 113.999 12.711 114.251 12.5562V11.6091ZM110.054 10.243C110.054 10.0153 110.914 9.8127 111.968 9.8127C113.021 9.8127 113.884 10.0062 113.884 10.243C113.884 10.4798 113.026 10.6755 111.968 10.6755C110.909 10.6755 110.054 10.4706 110.054 10.243ZM114.251 13.8719C113.506 14.0709 112.738 14.1696 111.968 14.1656V14.1611C111.198 14.1649 110.431 14.0662 109.687 13.8674V14.8031C109.941 14.9533 110.743 15.181 111.968 15.181C112.302 15.1804 112.637 15.1614 112.97 15.1241L112.993 15.1078L112.993 15.1077L112.993 15.1077C113.042 15.0741 113.092 15.0399 113.136 15.0125C113.497 14.8536 113.87 14.7235 114.251 14.6232V13.8719ZM111.412 16.3899C111.211 16.567 111.01 16.7489 110.81 16.9304C110.673 17.0546 110.537 17.1785 110.401 17.3005C110.153 17.2572 109.912 17.1807 109.685 17.0729V16.1098C110.247 16.271 110.827 16.365 111.412 16.3899ZM92.0118 17.1745C92.3792 25.0977 98.8383 31.3313 106.683 31.3337L106.69 31.3291C110.585 31.3363 114.322 29.7758 117.077 26.9921C117.908 26.149 118.637 25.209 119.249 24.1919L108.793 28.8294L108.435 28.9864L108.108 28.7588L94.5987 19.5771C94.0834 19.2401 93.7218 18.7098 93.5934 18.103C93.465 17.4962 93.5804 16.8627 93.9143 16.342C94.5665 15.2994 95.9107 14.9536 96.9765 15.5543V12.1325C96.9793 12.1026 96.9846 12.0729 96.9922 12.0437C96.9905 12.0252 96.9877 12.0076 96.985 11.9903C96.9807 11.9631 96.9765 11.9364 96.9765 11.9071C96.9768 11.6596 97.0797 11.4234 97.2602 11.256C97.8253 10.6778 99.2821 10.4706 100.453 10.4706C101.221 10.4659 101.987 10.5647 102.729 10.7643V7.57699C102.732 7.54156 102.738 7.50648 102.747 7.47227C102.737 7.42056 102.731 7.36799 102.729 7.31518C102.73 7.06731 102.831 6.83054 103.009 6.65951C103.578 6.08352 105.033 5.8809 106.206 5.8809C106.787 5.8809 109.682 5.9492 109.682 7.31518C109.682 7.37108 109.676 7.42682 109.664 7.48137C109.673 7.51268 109.68 7.54465 109.685 7.57699V9.10461C110.425 8.89941 111.191 8.79979 111.959 8.80865C112.54 8.80865 115.44 8.87467 115.44 10.2407C115.44 10.2912 115.434 10.3415 115.424 10.3909C115.425 10.4046 115.428 10.4163 115.432 10.4279C115.436 10.4414 115.44 10.4547 115.44 10.4706V14.4092C115.794 14.3732 116.15 14.3663 116.505 14.3887H121.233C120.129 6.53558 113.119 0.944616 105.308 1.68919C97.4981 2.43377 91.6443 9.25117 92.0118 17.1745Z" fill="#00AC68"/>
</g>
</svg>
