<svg width="69" height="70" viewBox="0 0 69 70" fill="none" xmlns="http://www.w3.org/2000/svg">
<path fill-rule="evenodd" clip-rule="evenodd" d="M69.0001 34.8362C69.0001 20.7462 60.6056 8.04377 47.731 2.65223C34.8565 -2.73931 20.0375 0.241919 10.1846 10.2057C0.331615 20.1695 -2.61481 35.1535 2.71927 48.1704C8.05334 61.1873 20.6174 69.6733 34.5525 69.6714C53.563 69.6317 68.9635 54.0579 69.0001 34.8362ZM65.6287 34.8365C65.6358 38.9663 64.8363 43.0569 63.2763 46.8736L38.5716 57.808L10.6811 38.8521H10.6477C9.78276 38.2781 9.52906 37.111 10.0763 36.2232C10.3435 35.8006 10.7672 35.504 11.2525 35.3999C11.7434 35.2937 12.2559 35.3852 12.6811 35.6551L12.7382 35.6936L12.8144 35.7321L14.0049 36.3339L16.5335 37.6195L22.0049 40.3928L25.1573 41.9865C25.1097 42.0876 25.062 42.1888 25.0097 42.2899C24.983 42.3414 24.9562 42.4042 24.9283 42.47L24.9283 42.47L24.9283 42.4701C24.9014 42.5333 24.8733 42.5993 24.843 42.6606C24.6492 43.0895 24.4775 43.5282 24.3287 43.9751L23.9763 45.1788L25.0716 45.7373L37.7001 52.5502L38.3382 52.8921L39.0001 52.6176L51.3144 47.3214L50.0001 44.7743L38.5239 49.5073H38.4954L35.8287 48.0628L27.6763 43.8113L27.7097 43.7295H27.6811L27.7097 43.6669C27.7655 43.5742 27.8148 43.4777 27.8573 43.378C28.0346 42.9348 28.2581 42.5119 28.5239 42.1165C29.362 40.9321 30.4858 40.4602 32.2001 40.6288C32.8398 40.812 33.4784 41.0487 34.1165 41.2852L34.1165 41.2852C35.4404 41.7758 36.762 42.2657 38.0858 42.2754C38.4535 42.2824 38.8208 42.2485 39.1811 42.1743L39.0287 42.1454C40.8439 41.7318 42.4837 40.7495 43.7144 39.3384C44.0159 39.0109 44.2973 38.6652 44.5573 38.3032C44.9719 37.7899 45.4223 37.3072 45.9049 36.8588C47.8826 34.9909 50.3984 33.8102 53.0858 33.4884C53.7619 33.4027 54.4449 33.3882 55.1239 33.4451H65.6001C65.6068 33.5593 65.6141 33.6717 65.6212 33.7826V33.7828V33.7829V33.783V33.7832V33.7833V33.7834V33.7835V33.7835V33.7836V33.7837C65.6445 34.1447 65.6668 34.4906 65.6668 34.8365H65.6287ZM26.2095 28.0522C24.6344 28.4746 23.0105 28.6819 21.381 28.6685C19.7531 28.6813 18.1307 28.474 16.5572 28.0522V30.0551C17.0953 30.3729 18.7857 30.8544 21.381 30.8544C23.9762 30.8544 25.6714 30.3777 26.2095 30.0551V28.0522ZM17.3379 25.1439C17.3379 24.6624 19.1474 24.2339 21.3808 24.2339C23.6141 24.2339 25.4284 24.6431 25.4284 25.1439C25.4284 25.6446 23.6189 26.0539 21.3808 26.0539C19.1427 26.0539 17.3189 25.6446 17.3189 25.1439H17.3379ZM26.2094 32.8288C24.6349 33.2548 23.0107 33.4637 21.3808 33.4499C19.7464 33.4666 18.1173 33.2593 16.538 32.8336V34.1818L17.1475 34.4803L18.9999 35.4433C19.7891 35.5503 20.5846 35.6018 21.3808 35.5974C23.957 35.5974 25.6666 35.1448 26.2094 34.8029V32.8288ZM26.2095 37.5759V39.2274L23.9142 38.0333C24.6848 37.9492 25.4466 37.7961 26.1904 37.5759H26.2095ZM38.3952 18.4326C36.8218 18.8559 35.1995 19.0648 33.5714 19.0537H33.5523C31.929 19.0627 30.3117 18.8538 28.7428 18.4326V20.4452C29.2856 20.7533 30.9809 21.2348 33.5714 21.2348C36.1618 21.2348 37.8618 20.763 38.3952 20.4452V18.4326ZM29.5191 15.4714C29.5191 14.9658 31.3334 14.5565 33.5715 14.5565C35.8096 14.5565 37.6191 14.9658 37.6191 15.4714C37.6191 15.9769 35.7857 16.3669 33.5524 16.3669C31.3191 16.3669 29.5 15.9721 29.5 15.4714H29.5191ZM38.3952 23.2182C36.8218 23.6415 35.1995 23.8504 33.5714 23.8393H33.5523C31.9227 23.85 30.2989 23.6411 28.7237 23.2182V25.2019C29.2666 25.5149 30.9618 25.9964 33.5523 25.9964C36.1428 25.9964 37.8428 25.5149 38.3952 25.1875V23.2182ZM33.5714 28.5815C35.1998 28.5929 36.8223 28.3823 38.3952 27.9556V29.9296C37.8618 30.2522 36.1618 30.7289 33.5714 30.7289C30.9809 30.7289 29.2856 30.2474 28.7428 29.9296V27.9556C30.3112 28.3802 31.9287 28.5907 33.5523 28.5815H33.5714ZM38.3952 32.7079C36.8213 33.1288 35.1993 33.3376 33.5714 33.329H33.5523C31.9292 33.3353 30.3122 33.1265 28.7428 32.7079V34.6627C29.2856 34.9756 30.9809 35.4571 33.5714 35.4571C36.1618 35.4571 37.8618 34.9804 38.3952 34.6627V32.7079ZM38.3951 37.4457V39.4775C38.3388 39.5112 38.2799 39.5401 38.219 39.5642C37.6889 39.5133 37.0231 39.2312 36.2291 38.8948C35.5964 38.6267 34.8822 38.3241 34.0904 38.0764C35.54 38.0552 36.9807 37.8432 38.3761 37.4457H38.3951ZM50.5619 24.552C48.9929 24.9728 47.3756 25.1816 45.7524 25.1731H45.7333C44.1053 25.183 42.4831 24.9742 40.9095 24.552V26.5549C41.4476 26.8727 43.1381 27.3542 45.7333 27.3542C48.3286 27.3542 50.0286 26.8824 50.5619 26.5549V24.552ZM41.6857 21.6629C41.6857 21.1814 43.5047 20.7529 45.7333 20.7529C47.9619 20.7529 49.7857 21.1621 49.7857 21.6629C49.7857 22.1636 47.9714 22.5777 45.7333 22.5777C43.4952 22.5777 41.6857 22.1443 41.6857 21.6629ZM50.5619 29.3378C48.9864 29.7585 47.3628 29.9673 45.7333 29.9589V29.9493C44.1054 29.9574 42.4835 29.7486 40.9095 29.3282V31.3071C41.4476 31.6248 43.1428 32.1063 45.7333 32.1063C46.4413 32.1049 47.1487 32.0648 47.8524 31.9859L47.9025 31.9514C48.0058 31.8802 48.1105 31.808 48.2047 31.75C48.9681 31.4139 49.7562 31.1386 50.5619 30.9267V29.3378ZM43.2854 35.8059L43.2853 35.806L43.2847 35.8066C42.9956 36.0689 42.7069 36.3307 42.4189 36.5886C41.8952 36.4971 41.3859 36.3352 40.9047 36.1072V34.0705C42.0951 34.4114 43.3209 34.6102 44.557 34.6627C44.1328 35.0373 43.7086 35.4221 43.2854 35.8059ZM3.52897 36.3221C4.30611 53.079 17.9663 66.2623 34.5572 66.2672L34.5715 66.2575C42.8082 66.2727 50.7122 62.9724 56.5382 57.0853C58.2966 55.3023 59.8391 53.3143 61.1334 51.1631L39.0191 60.9709L38.262 61.3031L37.5715 60.8216L9.0001 41.4035C7.91028 40.6907 7.14536 39.5692 6.87384 38.2859C6.60231 37.0026 6.84645 35.6628 7.55248 34.5616C8.93192 32.3566 11.7748 31.6253 14.0287 32.8957V25.659C14.0347 25.5956 14.0459 25.5328 14.062 25.4712C14.0583 25.432 14.0525 25.3949 14.0467 25.3583C14.0376 25.3006 14.0287 25.2442 14.0287 25.1824C14.0295 24.6587 14.2471 24.1593 14.6287 23.8053C15.8239 22.5824 18.9049 22.1442 21.3811 22.1442C23.006 22.1344 24.6249 22.3433 26.1953 22.7653V16.0246C26.2007 15.9497 26.2134 15.8755 26.2334 15.8031C26.2108 15.6938 26.1981 15.5826 26.1953 15.4709C26.1973 14.9467 26.4106 14.4459 26.7858 14.0842C27.9906 12.8661 31.0668 12.4375 33.5477 12.4375C34.7763 12.4375 40.9001 12.582 40.9001 15.4709C40.9003 15.5891 40.8875 15.707 40.862 15.8224C40.8813 15.8886 40.8956 15.9562 40.9049 16.0246V19.2553C42.4714 18.8213 44.0902 18.6107 45.7144 18.6294C46.943 18.6294 53.0763 18.769 53.0763 21.6579C53.076 21.7647 53.0648 21.8712 53.043 21.9757C53.0452 22.0047 53.0525 22.0295 53.0597 22.054C53.068 22.0825 53.0763 22.1106 53.0763 22.1442V30.4738C53.8247 30.3977 54.578 30.3832 55.3287 30.4305H65.3287C62.9945 13.8221 48.1673 1.99787 31.6496 3.57256C15.132 5.14725 2.75182 19.5653 3.52897 36.3221Z" fill="#00AC68"/>
</svg>
